<?xml version="1.0" standalone="no"?>
<!DOCTYPE svg PUBLIC "-//W3C//DTD SVG 1.1//EN" "http://www.w3.org/Graphics/SVG/1.1/DTD/svg11.dtd" >
<svg xmlns="http://www.w3.org/2000/svg" xmlns:xlink="http://www.w3.org/1999/xlink" version="1.1">
<metadata>
Created by FontForge 20161013 at Thu Nov 12 14:58:01 2015
 By ,,,
Copyright (c) 2015 by Jakob Runge, under exclusive license to TypeMates, Runge Thomsen GbR. All rights reserved.
</metadata>
<defs>
<font id="CeraCY-BoldItalic" horiz-adv-x="560" >
  <font-face 
    font-family="CeraCY-BoldItalic"
    font-weight="400"
    font-style="italic"
    font-stretch="normal"
    units-per-em="1000"
    panose-1="2 11 8 0 0 0 0 0 0 0"
    ascent="799"
    descent="-201"
    x-height="485"
    cap-height="660"
    bbox="-153 -245 1386 910"
    underline-thickness="100"
    underline-position="-200"
    slope="-10"
    unicode-range="U+0020-F8FF"
  />
<missing-glyph horiz-adv-x="713" 
d="M596 0h-562l116 660h562zM225 576l291 -499l88 499h-379z" />
    <glyph glyph-name=".notdef" horiz-adv-x="713" 
d="M596 0h-562l116 660h562zM225 576l291 -499l88 499h-379z" />
    <glyph glyph-name=".null" horiz-adv-x="0" 
 />
    <glyph glyph-name="nonmarkingreturn" horiz-adv-x="333" 
 />
    <glyph glyph-name="space" unicode=" " horiz-adv-x="280" 
 />
    <glyph glyph-name="exclam" unicode="!" horiz-adv-x="347" 
d="M228 242h-110l47 418h164zM146 174q39 0 65.5 -27t26.5 -66q0 -40 -26.5 -66.5t-65.5 -26.5q-41 0 -67.5 26.5t-26.5 66.5q0 39 26.5 66t67.5 27z" />
    <glyph glyph-name="quotedbl" unicode="&#x22;" horiz-adv-x="539" 
d="M215 382h-106l54 278h154zM452 382h-106l54 278h154z" />
    <glyph glyph-name="numbersign" unicode="#" horiz-adv-x="606" 
d="M273 494h149l30 166h110l-30 -166h94l-20 -113h-94l-18 -102h94l-19 -113h-95l-29 -166h-110l29 166h-149l-29 -166h-110l29 166h-93l20 113h93l18 102h-93l20 113h93l30 166h110zM234 273h149l20 114h-149z" />
    <glyph glyph-name="dollar" unicode="$" horiz-adv-x="538" 
d="M400 620q37 -14 65 -41t49 -63l-100 -67q-20 30 -45 48t-63 18t-52.5 -15.5t-14.5 -35.5q0 -22 15 -36t41 -27l65 -33q56 -28 88.5 -65t32.5 -93q0 -31 -11.5 -62.5t-34.5 -58t-58 -45.5t-83 -23l-21 -118h-118l23 131q-51 18 -87.5 53t-61.5 82l99 63q27 -41 62 -66
t81 -25q35 0 55.5 15t20.5 41q0 23 -16.5 38.5t-47.5 31.5l-60 31q-56 29 -87.5 66.5t-31.5 92.5q0 35 13 65.5t36.5 54t56.5 38.5t74 19l21 115h118z" />
    <glyph glyph-name="percent" unicode="%" horiz-adv-x="831" 
d="M221 0h-109l530 660h109zM612 316q34 0 63.5 -12.5t51.5 -34t34 -50t12 -61.5q0 -35 -14 -65.5t-37.5 -53.5t-55 -36.5t-66.5 -13.5t-64.5 12.5t-51 34.5t-33.5 51t-12 61q0 35 13.5 65.5t37 53.5t55 36t67.5 13zM609 224q-32 0 -51 -21.5t-19 -51.5t17.5 -49.5
t48.5 -19.5q32 0 50 21.5t18 52.5q0 29 -17 48.5t-47 19.5zM264 671q34 0 63.5 -12.5t51.5 -34t34 -50.5t12 -61q0 -35 -14 -66t-37.5 -54t-55 -36t-66.5 -13t-64.5 12.5t-51 34.5t-33.5 50.5t-12 61.5q0 34 13.5 65t37 53.5t55 36t67.5 13.5zM261 578q-32 0 -51 -21.5
t-19 -51.5q0 -29 17.5 -49t48.5 -20q32 0 50 21.5t18 52.5q0 29 -17 48.5t-47 19.5z" />
    <glyph glyph-name="ampersand" unicode="&#x26;" horiz-adv-x="675" 
d="M343 672q37 0 66.5 -10.5t50.5 -29.5t32 -44.5t11 -55.5q0 -54 -34.5 -96.5t-98.5 -84.5l78 -121q26 28 54.5 60.5t59.5 68.5l89 -81q-36 -41 -70 -79.5t-67 -72.5l81 -126h-148l-29 44q-38 -26 -80.5 -41t-90.5 -15q-41 0 -79 11t-67.5 33t-47.5 55t-18 76
q0 64 42.5 113.5t125.5 100.5q-17 27 -29.5 58.5t-12.5 65.5q0 28 11 58.5t33.5 55.5t56.5 41t81 16zM254 106q23 0 48 10t51 29l-91 140q-42 -26 -66 -49t-24 -55q0 -34 23.5 -54.5t58.5 -20.5zM287 506q0 -18 8 -34.5t20 -33.5q30 20 47 38t17 41q0 18 -10.5 29t-31.5 11
q-23 0 -36.5 -14t-13.5 -37z" />
    <glyph glyph-name="quotesingle" unicode="'" horiz-adv-x="302" 
d="M215 382h-106l54 278h154z" />
    <glyph glyph-name="parenleft" unicode="(" horiz-adv-x="368" 
d="M417 655q-62 -31 -105.5 -82t-70.5 -112.5t-39 -128.5t-12 -130q0 -54 8 -94.5t21.5 -71t32 -53.5t40.5 -42l-66 -74q-67 41 -110 123.5t-43 211.5q0 76 17.5 159.5t54.5 158t94.5 133t138.5 85.5z" />
    <glyph glyph-name="parenright" unicode=")" horiz-adv-x="367" 
d="M164 738q67 -41 110 -123.5t43 -210.5q0 -76 -17.5 -159.5t-54.5 -158.5t-94.5 -133.5t-138.5 -85.5l-39 84q62 30 105 81t70 112.5t39 129t12 130.5q0 53 -7.5 93.5t-21 71.5t-32 54t-40.5 42z" />
    <glyph glyph-name="asterisk" unicode="*" horiz-adv-x="467" 
d="M490 580l-102 -51l78 -82l-50 -59l-93 61l-32 -107l-76 13l6 113l-110 -26l-27 73l101 50l-78 83l50 58l95 -63l33 110l75 -14l-7 -113l110 26z" />
    <glyph glyph-name="plus" unicode="+" 
d="M370 377h170l-20 -114h-170l-32 -178h-128l32 178h-173l20 114h172l32 176h128z" />
    <glyph glyph-name="comma" unicode="," horiz-adv-x="270" 
d="M95 -178h-107l58 301h154z" />
    <glyph glyph-name="hyphen" unicode="-" horiz-adv-x="340" 
d="M300 264h-250l20 113h249z" />
    <glyph glyph-name="period" unicode="." horiz-adv-x="270" 
d="M108 174q39 0 65.5 -27t26.5 -66q0 -40 -26.5 -66.5t-65.5 -26.5q-41 0 -67.5 26.5t-26.5 66.5q0 39 26.5 66t67.5 27z" />
    <glyph glyph-name="slash" unicode="/" horiz-adv-x="667" 
d="M83 -121h-143l675 901h145z" />
    <glyph glyph-name="zero" unicode="0" horiz-adv-x="659" 
d="M347 549q57 0 107.5 -20t88 -56t59.5 -85t22 -106q0 -62 -24.5 -115.5t-66.5 -93t-97.5 -62.5t-116.5 -23q-58 0 -108.5 20t-87.5 56t-58 85t-21 106q0 61 24.5 115t66 93.5t96.5 62.5t116 23zM343 427q-34 0 -63.5 -13.5t-51 -37t-34 -54.5t-12.5 -65q0 -31 10 -58
t28.5 -46.5t44.5 -30.5t58 -11q33 0 63 12.5t52 35t35 53t13 66.5q0 32 -11 59.5t-30 47.5t-45 31t-57 11z" />
    <glyph glyph-name="one" unicode="1" horiz-adv-x="516" 
d="M324 114h130l-19 -114h-407l20 114h141l54 302h-132l21 121h267z" />
    <glyph glyph-name="two" unicode="2" horiz-adv-x="581" 
d="M313 549q48 0 88 -15t68.5 -40.5t44.5 -59.5t16 -73q0 -37 -14 -68.5t-39.5 -60.5t-60.5 -56.5t-77 -54.5l-12 -8h180l-19 -113h-490l5 29l234 154q33 21 61.5 41t49.5 40t32.5 40.5t11.5 44.5q0 33 -22.5 54.5t-63.5 21.5q-28 0 -46.5 -10t-29.5 -25.5t-15.5 -34
t-4.5 -34.5v-11t1 -14h-130q-5 20 -5 44q0 39 17 77t48 67t74.5 47t97.5 18z" />
    <glyph glyph-name="three" unicode="3" horiz-adv-x="537" 
d="M523 501l-182 -211q26 -11 48.5 -28.5t39.5 -41t26.5 -52.5t9.5 -62q0 -42 -16.5 -84.5t-48.5 -77t-81 -56t-113 -21.5q-50 0 -89.5 13t-69.5 36t-50.5 54t-31.5 66l105 58q23 -51 54.5 -77.5t81.5 -26.5q29 0 51.5 9t37.5 24t23 34.5t8 40.5q0 45 -32 69t-92 24h-76l1 1
l6 34l164 191h-215l21 120h426z" />
    <glyph glyph-name="four" unicode="4" horiz-adv-x="576" 
d="M457 113h84l-20 -113h-84l-21 -121h-134l21 121h-329l7 36l281 501h144l-241 -424h158l33 187h134z" />
    <glyph glyph-name="five" unicode="5" horiz-adv-x="553" 
d="M497 418h-252l-21 -118q14 2 27 3.5t25 1.5q40 0 77.5 -13t66 -37.5t46 -61t17.5 -83.5q0 -45 -16.5 -88.5t-49.5 -78t-82 -55.5t-113 -21q-51 0 -92 13t-72 36t-52.5 54t-32.5 66l106 58q23 -52 57.5 -78t84.5 -26q30 0 53 8.5t38.5 23.5t23.5 34.5t8 41.5
q0 43 -30.5 67.5t-91.5 24.5h-147l60 347h383z" />
    <glyph glyph-name="six" unicode="6" horiz-adv-x="563" 
d="M320 446q39 -1 75.5 -17t64.5 -44t44.5 -66.5t16.5 -85.5q0 -53 -21.5 -98t-56.5 -77.5t-81.5 -50.5t-95.5 -18q-47 0 -89.5 16.5t-74 46.5t-50 71.5t-18.5 91.5q0 33 8 61.5t23 55t36 53t47 55.5l190 220h168zM285 336q-25 0 -46.5 -8.5t-37.5 -24.5t-25 -37.5t-9 -46.5
q0 -47 28.5 -77.5t76.5 -30.5q24 0 45.5 8.5t37 24.5t25 38t9.5 48q0 48 -29 77t-75 29z" />
    <glyph glyph-name="seven" unicode="7" horiz-adv-x="525" 
d="M548 501l-405 -622h-154l359 539h-279l21 119h464z" />
    <glyph glyph-name="eight" unicode="8" horiz-adv-x="588" 
d="M349 671q39 0 78 -9t70 -29.5t50 -52.5t19 -77q0 -56 -32.5 -100.5t-101.5 -74.5q48 -25 74.5 -60t26.5 -81q0 -33 -14 -68t-44 -64t-76 -47.5t-109 -18.5q-41 0 -86.5 9.5t-83 31t-62 56t-24.5 84.5q0 60 40.5 110t125.5 72q-34 26 -53 57.5t-19 73.5q0 34 13 67.5
t40.5 60.5t69 43.5t98.5 16.5zM398 186q0 33 -24.5 55t-67.5 45q-70 -18 -103 -42t-33 -62q0 -36 28.5 -59t84.5 -23q31 0 53 7.5t35.5 19.5t20 27.5t6.5 31.5zM348 562q-44 0 -69 -22t-25 -55q0 -26 16.5 -46t54.5 -43q49 16 81.5 37t32.5 58q0 33 -26 52t-65 19z" />
    <glyph glyph-name="nine" unicode="9" horiz-adv-x="562" 
d="M307 549q47 0 89 -16.5t73.5 -46.5t50 -71.5t18.5 -91.5q0 -33 -8.5 -61t-23.5 -54.5t-36 -53t-46 -56.5l-189 -219h-168l184 213q-39 1 -75 17t-64 44t-44.5 67t-16.5 86q0 53 21.5 97.5t57 77t81.5 50.5t96 18zM301 427q-24 0 -45.5 -8.5t-37.5 -24.5t-25 -37.5
t-9 -48.5q0 -48 28.5 -77t75.5 -29q25 0 46.5 9t37.5 24.5t25 37t9 47.5q0 47 -29 77t-76 30z" />
    <glyph glyph-name="colon" unicode=":" horiz-adv-x="270" 
d="M166 504q39 0 65.5 -27t26.5 -66q0 -40 -26.5 -66.5t-65.5 -26.5q-41 0 -67.5 26.5t-26.5 66.5q0 39 26.5 66t67.5 27zM108 174q39 0 65.5 -27t26.5 -66q0 -40 -26.5 -66.5t-65.5 -26.5q-41 0 -67.5 26.5t-26.5 66.5q0 39 26.5 66t67.5 27z" />
    <glyph glyph-name="semicolon" unicode=";" horiz-adv-x="270" 
d="M166 504q39 0 65.5 -27t26.5 -66q0 -40 -26.5 -66.5t-65.5 -26.5q-41 0 -67.5 26.5t-26.5 66.5q0 39 26.5 66t67.5 27zM95 -178h-107l58 301h154z" />
    <glyph glyph-name="less" unicode="&#x3c;" 
d="M534 422l-268 -106l230 -107l-20 -112l-428 206l6 36l500 206z" />
    <glyph glyph-name="equal" unicode="=" 
d="M528 371h-451l20 114h451zM491 156h-451l20 114h451z" />
    <glyph glyph-name="greater" unicode="&#x3e;" 
d="M540 339l-6 -37l-500 -205l21 124l269 105l-231 109l19 109z" />
    <glyph glyph-name="question" unicode="?" horiz-adv-x="452" 
d="M283 672q36 0 69 -10t57.5 -29.5t39 -48.5t14.5 -67q0 -31 -9.5 -55.5t-24.5 -45t-35 -37.5t-41 -32q-31 -23 -54 -44.5t-33 -59.5h-111q0 43 17 80.5t71 76.5q40 29 60 48.5t20 48.5q0 26 -16.5 38.5t-39.5 12.5q-28 0 -49 -17.5t-40 -49.5l-101 59q35 67 87.5 99.5
t118.5 32.5zM195 174q41 0 67 -27t26 -66q0 -40 -26.5 -66.5t-66.5 -26.5q-39 0 -66 26.5t-27 66.5q0 39 26.5 66t66.5 27z" />
    <glyph glyph-name="at" unicode="@" horiz-adv-x="955" 
d="M519 665q97 0 172.5 -29t126.5 -78.5t77.5 -114t26.5 -135.5q0 -58 -18 -109.5t-56 -89.5t-96.5 -60.5t-138.5 -22.5h-68l8 50q-23 -28 -56 -41.5t-71 -13.5q-42 0 -75 16.5t-56.5 43.5t-35.5 62.5t-12 74.5t13 80.5t40 76t68 57t97 22.5q51 0 85.5 -18.5t53.5 -49.5
l11 58h111l-56 -316q66 2 105 48t39 129q0 55 -18.5 102t-55.5 81t-92.5 53.5t-128.5 19.5q-99 0 -169 -33t-115 -84t-66 -113t-21 -119q0 -65 24.5 -119t68 -92.5t103 -60t128.5 -21.5q26 0 52 2.5t49 7.5l10 -93q-30 -11 -64.5 -15.5t-63.5 -4.5q-90 0 -166.5 30
t-131.5 82.5t-86 123.5t-31 154q0 81 31 163t92 148t150 107t206 41zM484 343q-23 0 -43 -8.5t-34.5 -24t-23 -36.5t-8.5 -45q0 -42 24.5 -70t67.5 -28q25 0 45 10t34 26.5t22 37.5t8 44q0 45 -27 69.5t-65 24.5z" />
    <glyph glyph-name="A" unicode="A" horiz-adv-x="661" 
d="M607 0h-140l-23 86h-266l-52 -86h-153l414 672h44zM245 197h171l-47 217z" />
    <glyph glyph-name="B" unicode="B" horiz-adv-x="620" 
d="M364 660q45 0 81.5 -13t62 -36.5t39 -56t13.5 -70.5q0 -46 -18.5 -81t-51.5 -58q40 -22 63 -59t23 -88q0 -45 -18 -81.5t-50 -62.5t-75 -40t-94 -14h-305l116 660h214zM214 281l-29 -165h153q48 0 75.5 22t27.5 64q0 37 -22 58t-64 21h-141zM261 545l-27 -152h98
q44 0 68.5 23t24.5 59q0 32 -20.5 51t-60.5 19h-83z" />
    <glyph glyph-name="C" unicode="C" horiz-adv-x="720" 
d="M433 672q100 0 174 -47t111 -131l-110 -66q-27 57 -72 88t-111 31q-50 0 -92 -18t-72.5 -49.5t-48 -74t-17.5 -92.5q0 -45 14 -81.5t40 -63t62.5 -41t80.5 -14.5q60 0 108 27t86 75l95 -76q-52 -72 -129.5 -111.5t-169.5 -39.5q-72 0 -131.5 24t-103 67t-67.5 101
t-24 127q0 76 30 143t81 116t119.5 77.5t146.5 28.5z" />
    <glyph glyph-name="D" unicode="D" horiz-adv-x="694" 
d="M337 660q75 0 136 -23t105 -64t68 -97t24 -122q0 -59 -21.5 -122t-68 -114.5t-121.5 -84.5t-181 -33h-244l116 660h187zM263 538l-73 -417l97 1q58 0 103.5 17.5t77 48.5t47.5 71.5t16 87.5q0 88 -55 139.5t-150 51.5h-63z" />
    <glyph glyph-name="E" unicode="E" horiz-adv-x="573" 
d="M573 538h-309l-24 -134h227l-20 -115h-228l-29 -167h321l-21 -122h-456l116 660h444z" />
    <glyph glyph-name="F" unicode="F" horiz-adv-x="535" 
d="M562 538h-299l-29 -165h245l-20 -122h-246l-44 -251h-135l116 660h434z" />
    <glyph glyph-name="G" unicode="G" horiz-adv-x="750" 
d="M693 147q-24 -35 -56.5 -64t-72.5 -50t-86 -33t-96 -12q-72 0 -131.5 24t-103 67t-67.5 101t-24 127q0 76 30 143t81 116t119.5 77.5t146.5 28.5q93 0 163.5 -41t112.5 -116l-102 -75q-30 50 -73.5 78.5t-107.5 28.5q-50 0 -92.5 -17.5t-73 -49t-48 -74.5t-17.5 -94
q0 -45 14 -82.5t40.5 -64t63 -41t81.5 -14.5q50 0 93 18t75 51l12 66h-181l21 117h317z" />
    <glyph glyph-name="H" unicode="H" horiz-adv-x="713" 
d="M596 0h-135l50 285h-292l-50 -285h-135l116 660h135l-44 -253h292l44 253h135z" />
    <glyph glyph-name="I" unicode="I" horiz-adv-x="286" 
d="M169 0h-135l116 660h135z" />
    <glyph glyph-name="J" unicode="J" horiz-adv-x="390" 
d="M302 165q-16 -91 -68 -134t-133 -43q-30 0 -63 6t-61 16l20 112q48 -9 80 -9q39 0 62.5 16t31.5 61l83 470h135z" />
    <glyph glyph-name="K" unicode="K" horiz-adv-x="670" 
d="M231 354l296 306h172l-313 -324l230 -336h-151l-236 343l-60 -343h-135l116 660h135z" />
    <glyph glyph-name="L" unicode="L" horiz-adv-x="524" 
d="M190 122h289l-21 -122h-424l116 660h135z" />
    <glyph glyph-name="M" unicode="M" horiz-adv-x="798" 
d="M680 0h-135l59 338l-189 -194h-44l-138 220l-64 -364h-135l118 672h45v-3l215 -355l339 355l2 3h45z" />
    <glyph glyph-name="N" unicode="N" horiz-adv-x="713" 
d="M594 -12h-44l-1 2v-2l-309 417l-71 -405h-135l118 672h45v-2l309 -411l71 401h135z" />
    <glyph glyph-name="O" unicode="O" horiz-adv-x="779" 
d="M431 672q70 0 129.5 -24t102.5 -67t67 -101t24 -127q0 -77 -30 -143.5t-81 -115.5t-119.5 -77.5t-144.5 -28.5q-71 0 -130 24t-102 67t-67 101t-24 127q0 76 30 143t81 116t119 77.5t145 28.5zM422 547q-48 0 -89.5 -18t-72 -49.5t-48 -74t-17.5 -92.5q0 -45 14.5 -81.5
t40 -63t61 -41t78.5 -14.5q47 0 88.5 18t72 49.5t48.5 74.5t18 93q0 44 -14.5 80.5t-40 63t-61.5 41t-78 14.5z" />
    <glyph glyph-name="P" unicode="P" horiz-adv-x="599" 
d="M372 660q109 0 170 -54.5t61 -145.5q0 -52 -20 -94t-56.5 -71.5t-86.5 -45.5t-110 -16h-120l-41 -233h-135l116 660h222zM264 541l-34 -190h121q54 0 83.5 28t29.5 73q0 42 -23.5 65.5t-71.5 23.5h-105z" />
    <glyph glyph-name="Q" unicode="Q" horiz-adv-x="778" 
d="M431 672q70 0 129.5 -24t102.5 -67t67 -101t24 -127q0 -50 -13 -95.5t-36 -85t-56 -72.5t-72 -57q35 -49 75 -78.5t83.5 -45t91 -20.5t97.5 -5q23 0 36 0.5t18 0.5l-18 -104q-16 -5 -41.5 -8t-57.5 -3q-38 0 -90.5 7.5t-108 30.5t-109.5 65.5t-96 112.5q-20 -4 -39 -6
t-39 -2q-71 0 -130 24t-102 67t-67 101t-24 127q0 76 30 143t81 116t119 77.5t145 28.5zM422 547q-48 0 -89.5 -18t-72 -49.5t-48 -74t-17.5 -92.5q0 -45 14.5 -81.5t40 -63t61 -41t78.5 -14.5q47 0 88.5 18t72 49.5t48 74.5t17.5 93q0 44 -14.5 80.5t-40 63t-61 41
t-77.5 14.5z" />
    <glyph glyph-name="R" unicode="R" horiz-adv-x="640" 
d="M372 660q54 0 97 -14.5t73 -40.5t45.5 -62.5t15.5 -79.5q0 -75 -44 -129.5t-116 -80.5l148 -253h-147l-139 233h-95l-41 -233h-135l116 660h222zM264 541l-33 -189h120q54 0 83.5 27.5t29.5 72.5q0 42 -23.5 65.5t-71.5 23.5h-105z" />
    <glyph glyph-name="S" unicode="S" horiz-adv-x="559" 
d="M326 672q79 0 132 -35.5t88 -95.5l-101 -66q-23 35 -52.5 55t-73.5 20q-47 0 -65.5 -20t-18.5 -45q0 -28 18.5 -45t48.5 -34l72 -37q60 -30 96.5 -71.5t36.5 -102.5q0 -36 -14 -73t-43 -67t-72.5 -48.5t-103.5 -18.5q-48 0 -87.5 12.5t-72 35t-58 52t-43.5 64.5l100 64
q30 -48 71 -77t95 -29q44 0 68.5 20t24.5 52q0 28 -19.5 46.5t-56.5 37.5l-68 36q-59 30 -94 72.5t-35 102.5q0 40 16 76t46 62t72 41.5t93 15.5z" />
    <glyph glyph-name="T" unicode="T" horiz-adv-x="588" 
d="M625 538h-211l-95 -538h-135l95 538h-212l21 122h558z" />
    <glyph glyph-name="U" unicode="U" horiz-adv-x="700" 
d="M630 240q-11 -62 -38 -109t-65.5 -79t-87 -48t-103.5 -16q-58 0 -106.5 17.5t-83.5 49t-54.5 75.5t-19.5 97q0 17 2 32t5 32l64 369h135l-65 -371q-2 -14 -4 -27t-2 -25q0 -27 10 -50t28 -39.5t43 -25.5t54 -9q59 0 101.5 36t53.5 100l72 411h135z" />
    <glyph glyph-name="V" unicode="V" horiz-adv-x="661" 
d="M306 -12h-44l-176 672h141l101 -394l238 394h154z" />
    <glyph glyph-name="W" unicode="W" horiz-adv-x="1031" 
d="M609 672l101 -397l214 385h153l-381 -672h-44l-107 415l-263 -415h-44l-146 672h138l80 -391l254 403h45z" />
    <glyph glyph-name="X" unicode="X" horiz-adv-x="611" 
d="M338 447l157 213h164l-259 -337l157 -323h-143l-108 224l-172 -224h-164l276 350l-147 310h143z" />
    <glyph glyph-name="Y" unicode="Y" horiz-adv-x="624" 
d="M378 256l-45 -256h-135l46 262l-158 398h136l107 -263l191 263h156z" />
    <glyph glyph-name="Z" unicode="Z" horiz-adv-x="588" 
d="M626 624l-418 -502h331l-21 -122h-541l7 36l415 502h-283l21 122h496z" />
    <glyph glyph-name="bracketleft" unicode="[" horiz-adv-x="359" 
d="M386 621h-113l-112 -642h113l-20 -109h-228l151 860h228z" />
    <glyph glyph-name="backslash" unicode="\" horiz-adv-x="671" 
d="M603 -121h-126l-379 901h126z" />
    <glyph glyph-name="bracketright" unicode="]" horiz-adv-x="359" 
d="M203 -130h-228l18 108h113l114 643h-113l18 109h229z" />
    <glyph glyph-name="asciicircum" unicode="^" horiz-adv-x="535" 
d="M492 276h-122l-59 190l-125 -190h-131l266 394h44z" />
    <glyph glyph-name="underscore" unicode="_" horiz-adv-x="500" 
d="M393 -171h-430l19 106h429z" />
    <glyph glyph-name="grave" unicode="`" horiz-adv-x="258" 
d="M286 571h-94l-71 185l8 24h151z" />
    <glyph glyph-name="a" unicode="a" horiz-adv-x="629" 
d="M303 497q57 0 96 -18.5t62 -50.5l10 57h134l-85 -485h-126l9 50q-29 -31 -67.5 -46.5t-82.5 -15.5q-50 0 -89.5 18.5t-68 50t-43.5 73.5t-15 88t16 95.5t49 90t83 67t118 26.5zM312 376q-30 0 -55 -11.5t-43 -31t-28.5 -46t-10.5 -55.5q-1 -53 31 -88t87 -35
q31 0 56.5 12.5t43 33t27.5 46.5t10 54t-9 50.5t-25 38t-37.5 24t-46.5 8.5z" />
    <glyph glyph-name="b" unicode="b" horiz-adv-x="630" 
d="M238 443q28 27 64 40.5t76 13.5q49 0 89 -18.5t68 -50.5t43.5 -74t15.5 -88t-16 -95t-48.5 -89.5t-82.5 -67t-118 -26.5q-58 0 -97 20t-61 52l-10 -60h-135l132 750h134zM337 376q-32 0 -57 -12.5t-43 -33t-27.5 -46.5t-9.5 -53q0 -28 9 -50.5t25 -38.5t38 -24.5t47 -8.5
q29 0 54 11.5t43 31t28.5 45.5t10.5 55q1 54 -32 89t-86 35z" />
    <glyph glyph-name="c" unicode="c" horiz-adv-x="559" 
d="M319 496q78 0 133.5 -36t81.5 -95l-100 -66q-20 31 -48 53.5t-72 22.5q-29 0 -54.5 -11t-44 -30.5t-29 -45.5t-10.5 -56q0 -54 33.5 -88.5t87.5 -34.5q41 0 71 18.5t51 46.5l87 -74q-35 -51 -90.5 -81.5t-125.5 -30.5q-54 0 -100 18t-79.5 50t-53 76t-19.5 96
q0 57 22.5 106t61 85t89.5 56.5t108 20.5z" />
    <glyph glyph-name="d" unicode="d" horiz-adv-x="629" 
d="M520 0h-124l10 53q-29 -32 -68.5 -48.5t-84.5 -16.5q-50 0 -89.5 18.5t-68 50t-43.5 73.5t-15 88t16 95.5t49 90t83 67t118 26.5q57 0 96 -18.5t62 -50.5l56 322h135zM312 376q-30 0 -55 -11.5t-43 -31t-28.5 -46t-10.5 -55.5q-1 -53 31 -88t87 -35q31 0 56.5 12.5
t43 32.5t27.5 46.5t10 53.5q0 28 -9 51t-25 38.5t-37.5 24t-46.5 8.5z" />
    <glyph glyph-name="e" unicode="e" horiz-adv-x="564" 
d="M313 496q49 0 89.5 -16t69.5 -44.5t44.5 -66.5t15.5 -82q0 -26 -4.5 -49.5t-11.5 -40.5h-344q10 -47 44.5 -70.5t89.5 -23.5q40 0 74 12t66 34l49 -90q-45 -35 -95 -53t-106 -18q-57 0 -104 18t-81 50t-52.5 76t-18.5 95q0 56 21.5 105t59 85.5t87.5 57.5t107 21z
M303 388q-45 0 -79 -26t-48 -71h227v2q0 47 -29 71t-71 24z" />
    <glyph glyph-name="f" unicode="f" horiz-adv-x="343" 
d="M356 372h-108l-69 -396q-15 -86 -66 -127t-129 -41q-48 0 -96 18l18 109q19 -3 32 -4.5t25 -1.5q38 0 58.5 17.5t27.5 55.5l65 370h-71l20 113h71l19 108q15 87 66.5 128t129.5 41q46 0 96 -18l-18 -109q-19 3 -32.5 4.5t-25.5 1.5q-38 0 -58.5 -17.5t-27.5 -55.5
l-15 -83h108z" />
    <glyph glyph-name="g" unicode="g" horiz-adv-x="631" 
d="M304 497q57 0 96 -19t61 -50l10 57h135l-79 -453q-10 -58 -35.5 -100.5t-62.5 -70t-82 -40.5t-94 -13q-69 0 -134 26.5t-117 85.5l81 89q37 -38 78.5 -58.5t91.5 -20.5q53 0 92 25t48 81l4 24q-29 -24 -65 -35t-74 -11q-49 0 -89.5 16.5t-69.5 45t-45 67.5t-16 84
q0 44 16 92t49 87.5t83 65t118 25.5zM314 382q-30 0 -55.5 -11.5t-43.5 -31t-28.5 -44.5t-10.5 -53q0 -49 31 -83t87 -34q32 0 57.5 12t43 31.5t27.5 45t10 51.5q0 53 -33.5 85t-84.5 32z" />
    <glyph glyph-name="h" unicode="h" horiz-adv-x="585" 
d="M240 454q24 20 55.5 31.5t69.5 11.5t69.5 -12t54 -34t34.5 -52.5t12 -67.5q0 -23 -6 -56l-48 -275h-134l47 271q2 8 3 15.5t1 15.5q0 37 -23 57.5t-61 20.5t-66.5 -22t-36.5 -66l-50 -292h-135l132 750h134z" />
    <glyph glyph-name="i" unicode="i" horiz-adv-x="269" 
d="M160 0h-135l85 485h135zM212 759q36 0 61.5 -24t25.5 -60q0 -35 -25.5 -59t-61.5 -24q-35 0 -60.5 24t-25.5 59q0 36 25.5 60t60.5 24z" />
    <glyph glyph-name="j" unicode="j" horiz-adv-x="270" 
d="M156 -23q-15 -85 -65.5 -127t-128.5 -42q-28 0 -50.5 5t-40.5 13l19 111q27 -6 51 -6q38 0 58 16.5t26 53.5l86 484h134zM211 759q36 0 61.5 -24t25.5 -60q0 -35 -25.5 -59t-61.5 -24q-35 0 -60.5 24t-25.5 59q0 36 25.5 60t60.5 24z" />
    <glyph glyph-name="k" unicode="k" horiz-adv-x="558" 
d="M209 280l209 205h163l-223 -221l152 -264h-148l-154 273l-48 -273h-135l132 750h135z" />
    <glyph glyph-name="l" unicode="l" horiz-adv-x="269" 
d="M160 0h-135l132 750h135z" />
    <glyph glyph-name="m" unicode="m" horiz-adv-x="892" 
d="M672 497q81 0 126 -45.5t45 -120.5q0 -23 -6 -56l-48 -275h-135l47 269q4 17 4 33q0 37 -21 57.5t-58 20.5t-65 -22t-36 -66l-50 -292h-135l47 270q4 16 4 32q0 37 -21 57.5t-58 20.5t-65 -22t-36 -66l-50 -292h-135l85 485h123l-7 -43q26 25 60.5 40t77.5 15
q46 0 82 -18.5t58 -50.5q30 31 72.5 50t94.5 19z" />
    <glyph glyph-name="n" unicode="n" horiz-adv-x="585" 
d="M366 497q38 0 69 -12t53.5 -34t34.5 -52.5t12 -67.5q0 -23 -6 -56l-48 -275h-134l46 266q2 11 3.5 19.5t1.5 16.5q0 38 -23 58t-61 20t-66.5 -22t-36.5 -66l-50 -292h-135l85 485h123l-7 -43q26 25 60.5 40t78.5 15z" />
    <glyph glyph-name="o" unicode="o" horiz-adv-x="609" 
d="M318 497q54 0 100.5 -18.5t80 -51.5t53 -77.5t19.5 -96.5q0 -56 -23 -104.5t-61.5 -84t-89.5 -56t-107 -20.5q-54 0 -100.5 18.5t-80 51.5t-52.5 77.5t-19 95.5q0 56 22.5 104.5t61 84.5t89.5 56.5t107 20.5zM312 375q-29 0 -53.5 -11t-43 -30.5t-29 -45t-10.5 -55.5
q0 -27 8.5 -50t24.5 -39t38 -25t48 -9q28 0 53.5 10.5t44 29.5t29.5 44t11 55q0 28 -9 51t-25 39.5t-38.5 26t-48.5 9.5z" />
    <glyph glyph-name="p" unicode="p" horiz-adv-x="630" 
d="M378 497q49 0 89 -18.5t68 -50.5t43.5 -74t15.5 -88t-16 -95.5t-49 -90t-83 -66.5t-117 -26q-58 0 -97 19.5t-62 51.5l-42 -239h-134l117 665h123l-10 -56q28 34 68 51t86 17zM337 375q-32 0 -57 -12.5t-43 -32.5t-27.5 -46.5t-9.5 -53.5q0 -28 9 -50.5t25 -38t38 -24
t47 -8.5q29 0 54 11.5t43.5 31t29 45.5t10.5 55q0 26 -8 48.5t-24 39t-38 26t-49 9.5z" />
    <glyph glyph-name="q" unicode="q" horiz-adv-x="629" 
d="M303 497q58 0 97 -20t60 -52l11 60h134l-117 -666h-135l39 220q-28 -26 -63.5 -38.5t-75.5 -12.5q-49 0 -89 19t-68 50.5t-43.5 73.5t-15.5 88t16 95.5t49 90t83 66.5t118 26zM312 376q-30 0 -55 -11.5t-43 -31t-28.5 -46t-10.5 -55.5q-1 -53 31 -88t87 -35
q31 0 56.5 12.5t43 33t27.5 46.5t10 54t-9 50.5t-25 38t-37.5 24t-46.5 8.5z" />
    <glyph glyph-name="r" unicode="r" horiz-adv-x="388" 
d="M354 491q31 0 59 -11l-21 -117q-17 2 -30 3t-24 1q-53 0 -88.5 -28.5t-46.5 -91.5l-43 -247h-135l85 485h124l-9 -49q53 55 129 55z" />
    <glyph glyph-name="s" unicode="s" horiz-adv-x="456" 
d="M247 497q61 0 107 -22t77 -64l-80 -75q-22 26 -49 39t-55 13q-23 0 -36.5 -9t-13.5 -26q0 -14 10.5 -23t32.5 -20l44 -19q60 -26 93 -58.5t33 -83.5q0 -31 -12.5 -60t-36.5 -51.5t-60 -36t-84 -13.5q-72 0 -127 30.5t-85 80.5l84 74q27 -32 56.5 -54t72.5 -22q25 0 44 10
t19 30q0 17 -12 26t-34 20l-46 19q-28 12 -50.5 26t-38.5 31.5t-24.5 39t-8.5 49.5q0 35 14 63t38 47t57 29t71 10z" />
    <glyph glyph-name="t" unicode="t" horiz-adv-x="415" 
d="M394 372h-144l-32 -182q-1 -6 -1.5 -11.5t-0.5 -11.5q0 -38 27.5 -50t75.5 -12h23t19 1l-20 -113q-14 -2 -28 -3.5t-33 -1.5q-33 0 -68.5 6.5t-65 23.5t-48 47t-18.5 77q0 12 1.5 23.5t3.5 24.5l32 182h-77l19 113h78l24 135h134l-24 -135h143z" />
    <glyph glyph-name="u" unicode="u" horiz-adv-x="580" 
d="M509 192q-9 -51 -30.5 -89t-53 -63.5t-71 -38.5t-83.5 -13q-47 0 -86 14t-67.5 39.5t-44.5 61.5t-16 80q0 12 1.5 24t3.5 24l43 254h135l-47 -272q-1 -5 -1.5 -11t-0.5 -12q0 -36 24.5 -58t62.5 -22q34 0 62 20.5t36 63.5l50 291h134z" />
    <glyph glyph-name="v" unicode="v" horiz-adv-x="557" 
d="M250 -12h-45l-158 497h137l77 -271l171 271h150z" />
    <glyph glyph-name="w" unicode="w" horiz-adv-x="856" 
d="M487 496l85 -279l161 268h148l-316 -497h-45l-90 279l-194 -279h-44l-145 497h137l71 -280l188 291h44z" />
    <glyph glyph-name="x" unicode="x" horiz-adv-x="530" 
d="M279 348l114 137h159l-210 -239l139 -246h-145l-84 156l-128 -156h-159l223 257l-126 228h145z" />
    <glyph glyph-name="y" unicode="y" horiz-adv-x="596" 
d="M490 24q-9 -53 -32 -93.5t-56 -67.5t-74.5 -41t-87.5 -14q-65 0 -127.5 28t-106.5 84l81 89q32 -33 68 -56t85 -23q44 0 75.5 22.5t40.5 75.5l5 29q-25 -20 -56.5 -30.5t-67.5 -10.5q-39 0 -70 12.5t-53.5 34.5t-34.5 52.5t-12 65.5q0 12 1.5 25.5t3.5 27.5l45 251h134
l-44 -248q-3 -15 -3 -28q0 -35 23 -56t60 -21q38 0 66.5 22t36.5 64l47 267h134z" />
    <glyph glyph-name="z" unicode="z" horiz-adv-x="469" 
d="M485 449l-290 -335h235l-20 -114h-435l6 36l291 335h-211l20 114h411z" />
    <glyph glyph-name="braceleft" unicode="{" horiz-adv-x="411" 
d="M439 621h-57q-24 0 -39 -7t-23.5 -20.5t-12 -32.5t-3.5 -42v-91q0 -30 -3.5 -52.5t-13.5 -39t-28 -27t-47 -14.5q29 -6 44 -21t15 -42q0 -22 -9 -50t-19.5 -56.5t-19 -55.5t-8.5 -46q0 -46 54 -46h57l-19 -108h-81q-27 0 -51 7t-42.5 21.5t-29 36.5t-10.5 52q0 29 9 59
t20 58.5t20 54t9 43.5q0 36 -47 36h-63l20 115h67q39 0 51.5 19t12.5 58v99q0 43 9 80t31 64t57.5 42t88.5 15h80z" />
    <glyph glyph-name="bar" unicode="|" horiz-adv-x="332" 
d="M238 -121h-112v901h112v-901z" />
    <glyph glyph-name="braceright" unicode="}" horiz-adv-x="413" 
d="M205 730q27 0 51.5 -7t42.5 -22t28.5 -37t10.5 -52q0 -29 -9 -60.5t-20 -61.5t-20 -56.5t-9 -44.5q0 -36 48 -36h62l-20 -114h-66q-20 0 -32.5 -5.5t-19.5 -15.5t-9.5 -25t-2.5 -34v-86q0 -44 -9.5 -81t-31 -64t-57.5 -42.5t-89 -15.5h-80l19 108h57q24 0 39.5 7.5t24 21
t11.5 33t3 43.5v82q0 29 3.5 51.5t13.5 39t28.5 26.5t48.5 15q-61 12 -61 66q0 22 8.5 51t19 58t19.5 56.5t9 47.5q0 45 -54 45h-57l19 109h81z" />
    <glyph glyph-name="asciitilde" unicode="~" 
d="M174 437q27 0 50 -9.5t46 -24.5l77 -51q17 -11 30.5 -18.5t25.5 -7.5q18 0 26 14.5t12 37.5h103q-6 -85 -40 -130.5t-92 -45.5q-27 0 -50 9.5t-46 24.5l-77 51q-17 11 -30.5 18t-26.5 7q-18 0 -25.5 -14t-11.5 -37h-103q6 85 40 130.5t92 45.5z" />
    <glyph glyph-name="cent" unicode="&#xa2;" horiz-adv-x="558" 
d="M409 575q51 -14 87.5 -46t56.5 -77l-99 -65q-20 31 -50 53.5t-76 22.5q-31 0 -57 -11.5t-45 -31t-30 -46.5t-11 -58q0 -57 34.5 -92t91.5 -35q42 0 73.5 18t53.5 47l86 -73q-34 -49 -86.5 -79.5t-118.5 -34.5l-28 -164h-118l31 181q-71 26 -114 86.5t-43 141.5
q0 52 19 98.5t52 82t78 59t96 30.5l30 167h117z" />
    <glyph glyph-name="sterling" unicode="&#xa3;" horiz-adv-x="568" 
d="M426 227h-121q-4 -33 -17.5 -61.5t-35.5 -51.5h247l-19 -114h-481l6 29q44 27 74 52.5t49.5 50t29.5 48t13 47.5h-123l20 115h85q-10 28 -18.5 56t-8.5 62q0 37 13.5 75t42 68t71 49t101.5 19q42 0 80 -11.5t67 -35.5t48.5 -62t24.5 -91l-118 -30q-14 106 -98 106
q-27 0 -46 -10.5t-30.5 -26t-16.5 -34.5t-5 -36q0 -27 8.5 -50.5t18.5 -47.5h159z" />
    <glyph glyph-name="currency" unicode="&#xa4;" horiz-adv-x="667" 
d="M220 554q28 16 61 25t71 9q42 0 80 -11t70 -31l105 97l77 -83l-103 -96q16 -26 24.5 -56.5t8.5 -63.5q0 -42 -14.5 -85.5t-42.5 -81.5l79 -90l-83 -78l-82 94q-56 -31 -128 -31q-43 0 -80 10.5t-68 29.5l-103 -103l-76 84l100 99q-35 55 -35 123q0 41 14 83.5t41 80.5
l-75 86l83 78zM354 464q-29 0 -53.5 -11t-42.5 -29.5t-28.5 -44.5t-10.5 -56q0 -56 34 -91.5t87 -35.5q29 0 54 11t43.5 29.5t29 44.5t10.5 56q0 56 -35 91.5t-88 35.5z" />
    <glyph glyph-name="yen" unicode="&#xa5;" horiz-adv-x="599" 
d="M524 95h-182l-16 -95h-135l16 95h-179l19 109h179l11 62h-179l19 109h149l-147 285h142l109 -214l184 214h155l-247 -285h150l-18 -109h-182l-11 -62h181z" />
    <glyph glyph-name="brokenbar" unicode="&#xa6;" horiz-adv-x="332" 
d="M238 480h-112v300h112v-300zM238 -121h-112v300h112v-300z" />
    <glyph glyph-name="section" unicode="&#xa7;" horiz-adv-x="596" 
d="M376 676q39 0 71 -10t56 -26.5t40.5 -38t26.5 -44.5l-86 -64q-17 30 -44.5 50t-65.5 20q-29 0 -46 -13.5t-17 -36.5q0 -20 13.5 -35.5t41.5 -37.5l76 -62q63 -47 90 -87t27 -82q0 -51 -35.5 -93.5t-103.5 -62.5q3 -12 3 -26q0 -29 -12 -58t-36 -52t-60 -37.5t-84 -14.5
q-39 0 -70.5 10t-55.5 26.5t-41 38t-27 44.5l87 65q17 -30 44 -50.5t65 -20.5q30 0 46.5 14t16.5 37q0 19 -13 35t-41 38l-77 61q-62 47 -89 87t-27 82q0 51 35 93.5t102 61.5q-1 7 -1.5 13.5t-0.5 13.5q0 29 12 58t36 52t60 37.5t84 14.5zM283 356q-17 12 -31 25t-25 26
q-22 -9 -36.5 -26t-14.5 -40q0 -20 13.5 -39.5t50.5 -48.5l84 -67q17 -13 31 -25.5t25 -26.5q22 9 36.5 26t14.5 41q0 19 -13.5 38.5t-49.5 48.5z" />
    <glyph glyph-name="dieresis" unicode="&#xa8;" horiz-adv-x="471" 
d="M437 753q33 0 57 -22t24 -56q0 -31 -24 -54t-57 -23q-16 0 -30.5 6.5t-26 17t-18 24.5t-6.5 29q0 34 24.5 56t56.5 22zM189 753q33 0 57 -22t24 -56q0 -31 -24 -54t-57 -23q-16 0 -30.5 6.5t-26 17t-18 24.5t-6.5 29q0 34 24.5 56t56.5 22z" />
    <glyph glyph-name="copyright" unicode="&#xa9;" horiz-adv-x="786" 
d="M426 672q70 0 131 -25.5t106 -69.5t71 -103.5t26 -127.5q0 -74 -29.5 -139.5t-80 -114t-117.5 -76.5t-141 -28q-71 0 -132 25.5t-106 69.5t-71 104t-26 128q0 74 30 139t80.5 113.5t117.5 76.5t141 28zM421 515q51 0 89.5 -23.5t62.5 -62.5l-77 -57q-13 21 -32 35.5
t-48 14.5q-39 0 -64.5 -28.5t-25.5 -70.5q0 -36 22 -60.5t60 -24.5q25 0 44.5 12t34.5 30l66 -63q-29 -33 -67 -52.5t-84 -19.5q-39 0 -72 13.5t-57 37t-37.5 55.5t-13.5 69q0 42 16 77.5t43.5 61.5t63.5 41t76 15zM423 592q-57 0 -107.5 -21.5t-88.5 -58.5t-60 -87.5
t-22 -108.5q0 -53 18.5 -98.5t51.5 -78.5t79.5 -52t102.5 -19q65 0 116.5 24.5t87 64.5t54.5 90t19 100q0 51 -19 95.5t-52.5 78t-79.5 52.5t-100 19z" />
    <glyph glyph-name="guillemotleft" unicode="&#xab;" horiz-adv-x="597" 
d="M597 421l-162 -154l109 -151l-94 -71l-162 209l6 36l227 210zM340 421l-162 -154l109 -151l-94 -71l-162 209l6 36l227 210z" />
    <glyph glyph-name="logicalnot" unicode="&#xac;" 
d="M460 103h-127l29 160h-315l20 115h442z" />
    <glyph glyph-name="uni00AD" unicode="&#xad;" horiz-adv-x="340" 
d="M300 264h-250l20 113h249z" />
    <glyph glyph-name="registered" unicode="&#xae;" horiz-adv-x="581" 
d="M337 688q52 0 96.5 -19t77.5 -52t52 -77.5t19 -95.5q0 -55 -21.5 -104t-58.5 -85.5t-86 -57.5t-103 -21q-52 0 -97 19t-78 52.5t-52 78t-19 95.5q0 55 22 103.5t59 85t86 57.5t103 21zM334 625q-41 0 -77.5 -15.5t-64 -43t-43.5 -64.5t-16 -80q0 -39 13.5 -72.5t38 -58
t58 -38.5t73.5 -14q47 0 84.5 18.5t63 47.5t39 66t13.5 74q0 38 -13.5 71t-38 57t-58 38t-72.5 14zM349 564q39 0 63.5 -23.5t24.5 -59.5q0 -27 -14 -47t-37 -32l51 -89h-78l-44 75h-28l-13 -75h-70l44 251h101zM308 503l-10 -55h31q17 0 27 8t10 22q0 25 -28 25h-30z" />
    <glyph glyph-name="macron" unicode="&#xaf;" horiz-adv-x="362" 
d="M399 622h-302l19 106h302z" />
    <glyph glyph-name="degree" unicode="&#xb0;" horiz-adv-x="360" 
d="M234 671q33 0 61 -11.5t48.5 -31.5t32 -47t11.5 -58q0 -33 -13 -62t-35.5 -50.5t-52.5 -34t-63 -12.5q-32 0 -60 12t-48 32.5t-31.5 48t-11.5 57.5q0 32 13 60.5t35 50t51.5 34t62.5 12.5zM232 585q-32 0 -51 -20t-19 -49t18 -47.5t48 -18.5q32 0 50.5 20.5t18.5 49.5
q0 28 -17.5 46.5t-47.5 18.5z" />
    <glyph glyph-name="plusminus" unicode="&#xb1;" 
d="M377 424h161l-20 -109h-161l-25 -141h-128l25 141h-162l20 109h161l24 134h128zM463 0h-451l19 108h451z" />
    <glyph glyph-name="uni00B2" unicode="&#xb2;" horiz-adv-x="384" 
d="M264 788q34 0 61 -10.5t45.5 -28.5t28.5 -42t10 -51q0 -24 -8 -45t-23.5 -42t-39 -43.5t-54.5 -48.5l-28 -23h127l-16 -90l-311 -1l4 21l176 160q38 35 54.5 59t16.5 46t-13 34.5t-34 12.5q-29 0 -41 -21t-12 -50v-10h-100q-1 5 -1 8.5v6.5q0 28 9.5 56.5t29 51t49 36.5
t70.5 14z" />
    <glyph glyph-name="uni00B3" unicode="&#xb3;" horiz-adv-x="360" 
d="M408 753l-109 -130q30 -14 51 -43.5t21 -70.5q0 -26 -10 -53.5t-30.5 -49.5t-51.5 -36t-73 -14q-65 0 -103 32t-52 80l78 41q15 -33 33 -47t44 -14q33 0 48 17t15 39t-15.5 34.5t-52.5 12.5h-55l4 25l96 114h-123l16 90h274z" />
    <glyph glyph-name="acute" unicode="&#xb4;" horiz-adv-x="303" 
d="M364 756l-169 -185h-106l109 209h170z" />
    <glyph glyph-name="uni00B5" unicode="&#xb5;" horiz-adv-x="610" 
d="M512 176q-2 -9 -3.5 -18.5t-1.5 -17.5q0 -20 10.5 -28t30.5 -8h13t12 1l-20 -112q-11 -2 -24.5 -3t-26.5 -1q-42 0 -69 14t-41 40q-25 -26 -57 -40.5t-70 -14.5q-63 0 -101 38l-35 -206h-135l117 665h134l-46 -269q-2 -8 -3 -15.5t-1 -15.5q0 -36 23.5 -57.5t61.5 -21.5
q37 0 64.5 21.5t35.5 66.5l52 291h135z" />
    <glyph glyph-name="paragraph" unicode="&#xb6;" horiz-adv-x="672" 
d="M549 -3q0 -98 -52 -143.5t-146 -45.5q-26 0 -49.5 3.5t-43.5 8.5v115q20 -2 35.5 -3t28.5 -1q47 0 70 17.5t23 62.5v649h134v-663zM349 217h-58q-53 0 -98 16t-78.5 45t-52.5 70t-19 92t19 91.5t52 69t78.5 44t98.5 15.5h58v-443z" />
    <glyph glyph-name="periodcentered" unicode="&#xb7;" horiz-adv-x="270" 
d="M150 413q39 0 65.5 -27t26.5 -66q0 -40 -26.5 -66.5t-65.5 -26.5q-41 0 -67.5 26.5t-26.5 66.5q0 39 26.5 66t67.5 27z" />
    <glyph glyph-name="cedilla" unicode="&#xb8;" horiz-adv-x="291" 
d="M154 38q24 -17 38 -42t14 -53q0 -22 -9 -45.5t-28.5 -43.5t-49.5 -33t-72 -13q-26 0 -48 5t-42 12l15 87l32 -4t30 -2q28 0 46 12.5t23 46.5q4 31 -4 54z" />
    <glyph glyph-name="uni00B9" unicode="&#xb9;" horiz-adv-x="370" 
d="M281 454h86l-15 -90h-288l16 90h101l41 236h-92l15 90h193z" />
    <glyph glyph-name="guillemotright" unicode="&#xbb;" horiz-adv-x="597" 
d="M576 291l-6 -36l-227 -210l-76 80l162 153l-108 151l94 71zM320 291l-6 -36l-227 -210l-76 80l162 153l-108 151l94 71z" />
    <glyph glyph-name="onequarter" unicode="&#xbc;" horiz-adv-x="952" 
d="M260 334h86l-15 -90h-288l16 90h101l41 236h-92l15 90h193zM328 0h-111l493 660h112zM876 151h49l-15 -86h-49l-11 -64h-93l11 64h-211l5 27l170 326h111l-142 -267h82l18 105h93z" />
    <glyph glyph-name="onehalf" unicode="&#xbd;" horiz-adv-x="987" 
d="M260 334h86l-15 -90h-288l16 90h101l41 236h-92l15 90h193zM328 0h-111l493 660h112zM802 425q34 0 61 -10.5t45.5 -28.5t28.5 -42t10 -51q0 -24 -8 -45t-23.5 -42t-39 -43.5t-54.5 -48.5l-28 -23h127l-16 -90l-311 -1l4 21l176 160q38 35 54.5 59t16.5 46t-13 34.5
t-34 12.5q-29 0 -41 -21t-12 -50v-10h-100q-1 5 -1 8.5v6.5q0 28 9.5 56.5t29 51t49 36.5t70.5 14z" />
    <glyph glyph-name="threequarters" unicode="&#xbe;" horiz-adv-x="907" 
d="M387 633l-109 -130q30 -14 51 -43.5t21 -70.5q0 -26 -10 -53.5t-30.5 -49.5t-51.5 -36t-73 -14q-65 0 -103 32t-52 80l78 41q15 -33 33 -47t44 -14q33 0 48 17t15 39t-15.5 34.5t-52.5 12.5h-55l4 25l96 114h-123l16 90h274zM283 0h-111l493 660h112zM831 151h49l-15 -86
h-49l-11 -64h-93l11 64h-211l5 27l170 326h111l-142 -267h82l18 105h93z" />
    <glyph glyph-name="multiply" unicode="&#xd7;" 
d="M305 402l173 135l69 -88l-173 -135l122 -157l-90 -69l-122 154l-173 -136l-69 90l173 135l-120 156l90 69z" />
    <glyph glyph-name="divide" unicode="&#xf7;" 
d="M519 263h-471l20 115h471zM262 209q34 0 58 -22t24 -55q0 -32 -24 -54.5t-58 -22.5t-57.5 22.5t-23.5 54.5q0 33 23.5 55t57.5 22zM328 584q34 0 58 -22t24 -54q0 -33 -24 -55.5t-58 -22.5t-57.5 22.5t-23.5 55.5q0 32 23.5 54t57.5 22z" />
    <glyph glyph-name="florin" unicode="&#x192;" horiz-adv-x="451" 
d="M410 293h-106l-77 -259q-51 -167 -204 -167q-28 0 -50 4.5t-39 11.5l20 110q15 -2 28.5 -3t23.5 -1q34 0 57 13.5t36 54.5l70 236h-72l21 113h85l30 99q51 167 204 167q28 0 50.5 -5t39.5 -12l-21 -109q-15 2 -28.5 2.5t-22.5 0.5q-35 0 -58 -13.5t-36 -54.5l-23 -75h93z
" />
    <glyph glyph-name="dotlessj" unicode="&#x237;" horiz-adv-x="270" 
d="M156 -23q-15 -85 -65.5 -127t-128.5 -42q-28 0 -50.5 5t-40.5 13l19 111q27 -6 51 -6q38 0 58 16.5t26 53.5l86 484h134z" />
    <glyph glyph-name="breve" unicode="&#x2d8;" horiz-adv-x="406" 
d="M465 748q-5 -37 -19.5 -68.5t-38.5 -55t-56 -36.5t-71 -13q-37 0 -67 11.5t-51 32t-32.5 48.5t-11.5 61v11t1 9h106v-9q0 -30 16.5 -47t45.5 -17q28 0 47.5 18t24.5 55h106z" />
    <glyph glyph-name="dotaccent" unicode="&#x2d9;" horiz-adv-x="236" 
d="M194 759q36 0 61.5 -24t25.5 -60q0 -35 -25.5 -59t-61.5 -24q-35 0 -60.5 24t-25.5 59q0 36 25.5 60t60.5 24z" />
    <glyph glyph-name="hungarumlaut" unicode="&#x2dd;" horiz-adv-x="477" 
d="M538 756l-154 -185h-99l109 209h148zM342 756l-154 -185h-99l109 209h148z" />
    <glyph glyph-name="uni0326" unicode="&#x326;" horiz-adv-x="188" 
d="M52 -220h-103l35 174h124z" />
    <glyph glyph-name="uni0400" unicode="&#x400;" horiz-adv-x="573" 
d="M573 538h-309l-24 -134h227l-20 -115h-228l-29 -167h321l-21 -122h-456l116 660h444zM424 724h-97l-100 162l4 24h153z" />
    <glyph glyph-name="uni0401" unicode="&#x401;" horiz-adv-x="573" 
d="M573 538h-309l-24 -134h227l-20 -115h-228l-29 -167h321l-21 -122h-456l116 660h444zM529 892q33 0 57 -22.5t24 -56.5q0 -31 -24 -54t-57 -23q-16 0 -30.5 6.5t-26 17t-18 24.5t-6.5 29q0 34 24.5 56.5t56.5 22.5zM265 892q33 0 57 -22t24 -56q0 -31 -24 -54t-57 -23
q-16 0 -30.5 6.5t-26 17t-18 24.5t-6.5 29q0 34 24.5 56t56.5 22z" />
    <glyph glyph-name="uni0402" unicode="&#x402;" horiz-adv-x="764" 
d="M625 538h-211l-23 -123h104q51 0 93 -15t71 -42t45 -65t16 -84q0 -56 -22.5 -96.5t-59 -67.5t-82.5 -40.5t-94 -16.5l-16 120q27 3 51.5 9t43 18t30 30.5t11.5 45.5q0 37 -23 61t-75 24h-113l-52 -296h-135l95 538h-212l21 122h558z" />
    <glyph glyph-name="uni0403" unicode="&#x403;" horiz-adv-x="525" 
d="M554 538h-290l-95 -538h-135l116 660h425zM573 886l-161 -162h-102l96 186h171z" />
    <glyph glyph-name="uni0404" unicode="&#x404;" horiz-adv-x="720" 
d="M485 289h-289q8 -80 60.5 -128t135.5 -48q60 0 108 27t86 75l95 -76q-52 -72 -129.5 -111.5t-169.5 -39.5q-72 0 -131.5 24t-103 67t-67.5 101t-24 127q0 76 30 143t81 116t119.5 77.5t146.5 28.5q100 0 174 -47t111 -131l-110 -66q-27 57 -72 88t-111 31
q-75 0 -131.5 -39.5t-81.5 -103.5h293z" />
    <glyph glyph-name="uni0405" unicode="&#x405;" horiz-adv-x="559" 
d="M326 672q79 0 132 -35.5t88 -95.5l-101 -66q-23 35 -52.5 55t-73.5 20q-47 0 -65.5 -20t-18.5 -45q0 -28 18.5 -45t48.5 -34l72 -37q60 -30 96.5 -71.5t36.5 -102.5q0 -36 -14 -73t-43 -67t-72.5 -48.5t-103.5 -18.5q-48 0 -87.5 12.5t-72 35t-58 52t-43.5 64.5l100 64
q30 -48 71 -77t95 -29q44 0 68.5 20t24.5 52q0 28 -19.5 46.5t-56.5 37.5l-68 36q-59 30 -94 72.5t-35 102.5q0 40 16 76t46 62t72 41.5t93 15.5z" />
    <glyph glyph-name="uni0406" unicode="&#x406;" horiz-adv-x="286" 
d="M169 0h-135l116 660h135z" />
    <glyph glyph-name="uni0407" unicode="&#x407;" horiz-adv-x="286" 
d="M169 0h-135l116 660h135zM381 892q33 0 57 -22.5t24 -56.5q0 -31 -24 -54t-57 -23q-16 0 -30.5 6.5t-26 17t-18 24.5t-6.5 29q0 34 24.5 56.5t56.5 22.5zM117 892q33 0 57 -22t24 -56q0 -31 -24 -54t-57 -23q-16 0 -30.5 6.5t-26 17t-18 24.5t-6.5 29q0 34 24.5 56
t56.5 22z" />
    <glyph glyph-name="uni0408" unicode="&#x408;" horiz-adv-x="390" 
d="M302 165q-16 -91 -68 -134t-133 -43q-30 0 -63 6t-61 16l20 112q48 -9 80 -9q39 0 62.5 16t31.5 61l83 470h135z" />
    <glyph glyph-name="uni0409" unicode="&#x409;" horiz-adv-x="997" 
d="M620 434h102q111 0 172.5 -55.5t61.5 -147.5q0 -53 -20.5 -95.5t-57 -72.5t-87.5 -46.5t-112 -16.5h-270l94 538h-164q-28 -159 -67.5 -261.5t-88.5 -163.5t-106 -87t-120 -31l22 127q39 5 72.5 30t62 74.5t52.5 126.5t43 185l21 122h430zM599 315l-35 -196h137
q56 0 86.5 28.5t30.5 75.5q0 42 -25 67t-74 25h-120z" />
    <glyph glyph-name="uni040A" unicode="&#x40a;" horiz-adv-x="1037" 
d="M660 433h102q111 0 172.5 -55t61.5 -147q0 -53 -20.5 -95.5t-57 -72.5t-87 -46.5t-111.5 -16.5h-272l50 285h-279l-50 -285h-135l116 660h135l-44 -253h279l44 253h135zM639 315l-35 -197h137q56 0 86 29t30 76q0 42 -24.5 67t-73.5 25h-120z" />
    <glyph glyph-name="uni040B" unicode="&#x40b;" horiz-adv-x="798" 
d="M484 414q52 0 95 -15t74 -43.5t48 -68.5t17 -89q0 -29 -6 -60l-25 -138h-135l27 152q2 12 3 23t1 19q0 54 -33 77t-81 23q-21 0 -47.5 -3.5t-53.5 -10.5l-49 -280h-135l95 538h-212l21 122h558l-21 -122h-211l-24 -135q47 11 94 11z" />
    <glyph glyph-name="uni040C" unicode="&#x40c;" horiz-adv-x="670" 
d="M611 886l-161 -162h-102l96 186h171zM231 354l296 306h172l-313 -324l230 -336h-151l-236 343l-60 -343h-135l116 660h135z" />
    <glyph glyph-name="uni040D" unicode="&#x40d;" horiz-adv-x="723" 
d="M606 0h-135l69 393l-463 -405h-45l118 672h135l-70 -394l465 406h44zM483 724h-97l-100 162l4 24h153z" />
    <glyph glyph-name="uni040E" unicode="&#x40e;" horiz-adv-x="629" 
d="M375 135q-46 -75 -102.5 -110t-133.5 -35q-53 0 -103 14l20 116q20 -3 36 -4t27 -1q35 0 66.5 12t54.5 41l-145 492h142l97 -348l204 348h153zM627 903q-5 -37 -20 -68.5t-39 -54.5t-56 -36t-71 -13q-36 0 -66 11.5t-51 32t-32.5 48.5t-11.5 61v10t1 9h106v-9
q0 -29 16.5 -46.5t45.5 -17.5q28 0 47.5 18.5t24.5 54.5h106z" />
    <glyph glyph-name="uni040F" unicode="&#x40f;" horiz-adv-x="691" 
d="M573 0h-202l-25 -141h-135l25 141h-202l116 660h135l-95 -538h270l94 538h135z" />
    <glyph glyph-name="uni0410" unicode="&#x410;" horiz-adv-x="661" 
d="M607 0h-140l-23 86h-266l-52 -86h-153l414 672h44zM245 197h171l-47 217z" />
    <glyph glyph-name="uni0411" unicode="&#x411;" horiz-adv-x="620" 
d="M563 538h-299l-26 -145h128q100 0 156 -50t56 -134q0 -48 -18.5 -86.5t-52 -65.5t-79.5 -42t-101 -15h-293l116 660h434zM218 282l-29 -167h155q47 0 73.5 23.5t26.5 63.5q0 35 -20.5 57.5t-62.5 22.5h-143z" />
    <glyph glyph-name="uni0412" unicode="&#x412;" horiz-adv-x="620" 
d="M364 660q45 0 81.5 -13t62 -36.5t39 -56t13.5 -70.5q0 -46 -18.5 -81t-51.5 -58q40 -22 63 -59t23 -88q0 -45 -18 -81.5t-50 -62.5t-75 -40t-94 -14h-305l116 660h214zM214 281l-29 -165h153q48 0 75.5 22t27.5 64q0 37 -22 58t-64 21h-141zM261 545l-27 -152h98
q44 0 68.5 23t24.5 59q0 32 -20.5 51t-60.5 19h-83z" />
    <glyph glyph-name="uni0413" unicode="&#x413;" horiz-adv-x="525" 
d="M554 538h-290l-95 -538h-135l116 660h425z" />
    <glyph glyph-name="uni0414" unicode="&#x414;" horiz-adv-x="727" 
d="M635 -141h-135l25 141h-411l-25 -141h-135l46 263h51q36 29 67.5 66.5t57.5 88.5t47 118t36 156l19 109h410l-95 -538h88zM386 538q-16 -85 -35 -150t-42.5 -115t-52.5 -86.5t-63 -64.5h265l73 416h-145z" />
    <glyph glyph-name="uni0415" unicode="&#x415;" horiz-adv-x="573" 
d="M573 538h-309l-24 -134h227l-20 -115h-228l-29 -167h321l-21 -122h-456l116 660h444z" />
    <glyph glyph-name="uni0416" unicode="&#x416;" horiz-adv-x="1012" 
d="M747 337l211 -337h-154l-212 343l-60 -343h-135l60 344l-313 -344h-174l335 360l-186 300h152l188 -307l54 307h135l-54 -305l275 305h172z" />
    <glyph glyph-name="uni0417" unicode="&#x417;" horiz-adv-x="588" 
d="M346 672q48 0 86 -14t65 -38t41.5 -56t14.5 -69q0 -45 -21 -86.5t-65 -67.5q35 -23 54.5 -57t19.5 -76q0 -38 -16 -77t-47.5 -70.5t-78.5 -52t-110 -20.5q-40 0 -79.5 9.5t-75 30t-65 53t-48.5 79.5l101 60q32 -59 73.5 -83t91.5 -24q53 0 86.5 24t33.5 69q0 31 -21 53.5
t-69 22.5h-119l20 111h100q50 0 76 23.5t26 58.5t-25.5 54t-67.5 19q-79 0 -146 -73l-84 76q43 56 110 88.5t139 32.5z" />
    <glyph glyph-name="uni0418" unicode="&#x418;" horiz-adv-x="723" 
d="M606 0h-135l69 393l-463 -405h-45l118 672h135l-70 -394l465 406h44z" />
    <glyph glyph-name="uni0419" unicode="&#x419;" horiz-adv-x="723" 
d="M606 0h-135l69 393l-463 -405h-45l118 672h135l-70 -394l465 406h44zM642 903q-5 -37 -20 -68.5t-39 -54.5t-56 -36t-71 -13q-36 0 -66 11.5t-51 32t-32.5 48.5t-11.5 61v10t1 9h106v-9q0 -29 16.5 -46.5t45.5 -17.5q28 0 47.5 18.5t24.5 54.5h106z" />
    <glyph glyph-name="uni041A" unicode="&#x41a;" horiz-adv-x="670" 
d="M231 354l296 306h172l-313 -324l230 -336h-151l-236 343l-60 -343h-135l116 660h135z" />
    <glyph glyph-name="uni041B" unicode="&#x41b;" horiz-adv-x="661" 
d="M544 0h-135l95 538h-165q-28 -159 -67.5 -261.5t-88 -163.5t-106 -87t-120.5 -31l22 127q39 5 72.5 30t62 74.5t52.5 126.5t43 185l21 122h430z" />
    <glyph glyph-name="uni041C" unicode="&#x41c;" horiz-adv-x="798" 
d="M680 0h-135l59 338l-189 -194h-44l-138 220l-64 -364h-135l118 672h45v-3l215 -355l339 355l2 3h45z" />
    <glyph glyph-name="uni041D" unicode="&#x41d;" horiz-adv-x="713" 
d="M596 0h-135l50 285h-292l-50 -285h-135l116 660h135l-44 -253h292l44 253h135z" />
    <glyph glyph-name="uni041E" unicode="&#x41e;" horiz-adv-x="779" 
d="M431 672q70 0 129.5 -24t102.5 -67t67 -101t24 -127q0 -77 -30 -143.5t-81 -115.5t-119.5 -77.5t-144.5 -28.5q-71 0 -130 24t-102 67t-67 101t-24 127q0 76 30 143t81 116t119 77.5t145 28.5zM422 547q-48 0 -89.5 -18t-72 -49.5t-48 -74t-17.5 -92.5q0 -45 14.5 -81.5
t40 -63t61 -41t78.5 -14.5q47 0 88.5 18t72 49.5t48.5 74.5t18 93q0 44 -14.5 80.5t-40 63t-61.5 41t-78 14.5z" />
    <glyph glyph-name="uni041F" unicode="&#x41f;" horiz-adv-x="691" 
d="M573 0h-135l95 538h-269l-95 -538h-135l116 660h539z" />
    <glyph glyph-name="uni0420" unicode="&#x420;" horiz-adv-x="599" 
d="M372 660q109 0 170 -54.5t61 -145.5q0 -52 -20 -94t-56.5 -71.5t-86.5 -45.5t-110 -16h-120l-41 -233h-135l116 660h222zM264 541l-34 -190h121q54 0 83.5 28t29.5 73q0 42 -23.5 65.5t-71.5 23.5h-105z" />
    <glyph glyph-name="uni0421" unicode="&#x421;" horiz-adv-x="720" 
d="M433 672q100 0 174 -47t111 -131l-110 -66q-27 57 -72 88t-111 31q-50 0 -92 -18t-72.5 -49.5t-48 -74t-17.5 -92.5q0 -45 14 -81.5t40 -63t62.5 -41t80.5 -14.5q60 0 108 27t86 75l95 -76q-52 -72 -129.5 -111.5t-169.5 -39.5q-72 0 -131.5 24t-103 67t-67.5 101
t-24 127q0 76 30 143t81 116t119.5 77.5t146.5 28.5z" />
    <glyph glyph-name="uni0422" unicode="&#x422;" horiz-adv-x="588" 
d="M625 538h-211l-95 -538h-135l95 538h-212l21 122h558z" />
    <glyph glyph-name="uni0423" unicode="&#x423;" horiz-adv-x="629" 
d="M375 135q-46 -75 -102.5 -110t-133.5 -35q-53 0 -103 14l20 116q20 -3 36 -4t27 -1q35 0 66.5 12t54.5 41l-145 492h142l97 -348l204 348h153z" />
    <glyph glyph-name="uni0424" unicode="&#x424;" horiz-adv-x="842" 
d="M556 613q58 -3 106.5 -22.5t83.5 -52.5t54.5 -78.5t19.5 -100.5t-21 -110t-64.5 -99t-110.5 -71t-159 -25h-8l-15 -86h-135l15 86q-59 3 -107.5 22.5t-84 52.5t-55 78.5t-19.5 101.5q0 55 20.5 110t64 99t110.5 70.5t160 25.5h10l14 79h135zM188 318q0 -71 42 -108.5
t112 -39.5l58 328h-7q-45 0 -83 -12.5t-65 -36t-42 -56.5t-15 -75zM688 350q0 70 -42 107t-111 40l-58 -327h6q45 0 82.5 12.5t65 36t42.5 57t15 74.5z" />
    <glyph glyph-name="uni0425" unicode="&#x425;" horiz-adv-x="611" 
d="M338 447l157 213h164l-259 -337l157 -323h-143l-108 224l-172 -224h-164l276 350l-147 310h143z" />
    <glyph glyph-name="uni0426" unicode="&#x426;" horiz-adv-x="726" 
d="M592 122h88l-46 -263h-135l25 141h-490l116 660h135l-95 -538h267l95 538h135z" />
    <glyph glyph-name="uni0427" unicode="&#x427;" horiz-adv-x="644" 
d="M527 0h-135l37 214q-18 -4 -38 -5.5t-40 -1.5q-59 0 -108.5 16.5t-85.5 47t-56 75t-20 101.5q0 32 6 65l26 148h135l-28 -161q-2 -14 -3.5 -26t-1.5 -22q0 -39 13.5 -63t34.5 -37.5t47 -18.5t52 -5q20 0 43 2.5t46 7.5l57 323h135z" />
    <glyph glyph-name="uni0428" unicode="&#x428;" horiz-adv-x="1038" 
d="M920 0h-886l116 660h135l-95 -538h241l95 538h135l-95 -538h241l94 538h135z" />
    <glyph glyph-name="uni0429" unicode="&#x429;" horiz-adv-x="1075" 
d="M942 122h87l-46 -263h-135l25 141h-839l116 660h135l-95 -538h241l95 538h135l-95 -538h241l94 538h135z" />
    <glyph glyph-name="uni042A" unicode="&#x42a;" horiz-adv-x="644" 
d="M267 434h102q111 0 172.5 -55.5t61.5 -147.5q0 -53 -20.5 -95.5t-57 -72.5t-87 -46.5t-111.5 -16.5h-272l95 538h-107l21 122h242zM245 315l-34 -196h137q56 0 86.5 28.5t30.5 75.5q0 42 -25 67t-74 25h-121z" />
    <glyph glyph-name="uni042B" unicode="&#x42b;" horiz-adv-x="909" 
d="M245 434h103q111 0 172.5 -55.5t61.5 -147.5q0 -53 -20.5 -95.5t-57 -72.5t-87.5 -46.5t-112 -16.5h-271l116 660h135zM224 315l-35 -196h137q56 0 86.5 28.5t30.5 75.5q0 42 -24.5 67t-73.5 25h-121zM792 0h-135l116 660h135z" />
    <glyph glyph-name="uni042C" unicode="&#x42c;" horiz-adv-x="623" 
d="M245 434h103q111 0 172.5 -55.5t61.5 -147.5q0 -53 -20.5 -95.5t-57 -72.5t-87.5 -46.5t-112 -16.5h-271l116 660h135zM224 315l-35 -196h137q56 0 86.5 28.5t30.5 75.5q0 42 -24.5 67t-73.5 25h-121z" />
    <glyph glyph-name="uni042D" unicode="&#x42d;" horiz-adv-x="719" 
d="M370 672q72 0 131.5 -24t102.5 -67t67 -101t24 -127q0 -77 -30 -143.5t-81 -115.5t-119.5 -77.5t-145.5 -28.5q-100 0 -174 47t-112 131l110 66q27 -57 72.5 -88t111.5 -31q42 0 78.5 13t65.5 36t49.5 55t29.5 71h-304l21 115h283q-16 66 -66.5 105t-123.5 39
q-61 0 -109 -27t-86 -75l-95 76q53 72 130 111.5t170 39.5z" />
    <glyph glyph-name="uni042E" unicode="&#x42e;" horiz-adv-x="1058" 
d="M241 407h117q16 58 50 106.5t80.5 83.5t103.5 55t120 20q70 0 129 -24t102 -67t67 -101t24 -127q0 -77 -29.5 -143.5t-80.5 -115.5t-119 -77.5t-144 -28.5q-67 0 -123.5 22t-98 62t-66.5 94t-29 119h-125l-50 -285h-135l116 660h135zM702 547q-48 0 -89.5 -18t-72 -49.5
t-48 -74t-17.5 -92.5q0 -45 14.5 -81.5t40 -63t61 -41t78.5 -14.5q47 0 88.5 18t72 49.5t48 74.5t17.5 93q0 44 -14.5 80.5t-40 63t-61 41t-77.5 14.5z" />
    <glyph glyph-name="uni042F" unicode="&#x42f;" horiz-adv-x="638" 
d="M520 0h-135l35 203h-64q-11 0 -22 0.5t-22 1.5l-171 -205h-160l209 250q-39 28 -59.5 70.5t-20.5 96.5q0 55 21.5 100t60 77t92 49t117.5 17h235zM378 541q-60 0 -94.5 -31.5t-34.5 -83.5q0 -48 28 -76t82 -28h82l39 219h-102z" />
    <glyph glyph-name="uni0430" unicode="&#x430;" horiz-adv-x="626" 
d="M303 497q57 0 96 -18.5t62 -50.5l10 57h134l-85 -485h-126l9 50q-29 -31 -67.5 -46.5t-82.5 -15.5q-50 0 -89.5 18.5t-68 50t-43.5 73.5t-15 88t16 95.5t49 90t83 67t118 26.5zM312 376q-30 0 -55 -11.5t-43 -31t-28.5 -46t-10.5 -55.5q-1 -53 31 -88t87 -35
q31 0 56.5 12.5t43 33t27.5 46.5t10 54t-9 50.5t-25 38t-37.5 24t-46.5 8.5z" />
    <glyph glyph-name="uni0431" unicode="&#x431;" horiz-adv-x="621" 
d="M613 642l-160 -29q-46 -10 -83 -24t-65 -35.5t-47 -51.5t-29 -72q26 21 60 34t75 13q46 0 86.5 -17t69.5 -48t46 -73t17 -92q0 -54 -20 -101.5t-56 -82.5t-85.5 -55t-107.5 -20q-54 0 -100 17.5t-79.5 50t-53 79t-19.5 105.5q0 11 1 22.5t3 28.5l8 54q13 90 40.5 155.5
t71 111.5t105.5 75t144 44l169 30zM328 356q-26 0 -48.5 -9t-40 -25.5t-28.5 -38.5t-12 -49q-1 -26 7.5 -48.5t24 -39.5t38 -26.5t48.5 -9.5t49.5 10t41 27.5t28 41t10.5 51.5q0 54 -34 85t-84 31z" />
    <glyph glyph-name="uni0432" unicode="&#x432;" horiz-adv-x="567" 
d="M309 497q36 0 71.5 -7.5t64 -24t46 -43t17.5 -64.5q0 -31 -13 -57t-41 -44q28 -14 44 -40t16 -60q0 -31 -14 -61t-43 -54t-73.5 -39t-105.5 -15q-48 0 -89 10t-72 31t-48.5 52.5t-17.5 74.5q0 25 6 61l19 103q15 85 76.5 131t156.5 46zM185 204q-3 -18 -3 -30
q0 -36 23 -57t80 -21q53 0 76 17t23 43q0 24 -18 36t-58 12h-123zM309 389q-42 0 -70 -16.5t-35 -54.5l-4 -23h106q35 0 54 11.5t19 36.5q0 26 -19 36t-51 10z" />
    <glyph glyph-name="uni0433" unicode="&#x433;" horiz-adv-x="455" 
d="M242 496q39 0 71.5 -8.5t56 -25.5t37 -43t13.5 -60q0 -58 -39.5 -94.5t-123.5 -64.5l-59 -20q-29 -9 -43.5 -19t-14.5 -26q0 -20 18 -28.5t44 -8.5q38 0 74 14.5t71 41.5l54 -86q-37 -37 -86.5 -58.5t-109.5 -21.5q-29 0 -63 6t-63 22.5t-48.5 44.5t-19.5 72q0 60 42 97
t127 65l59 19q27 8 39 17t12 24q0 17 -15 24t-40 7q-61 0 -113 -36l-50 88q36 28 77.5 43t92.5 15z" />
    <glyph glyph-name="uni0434" unicode="&#x434;" horiz-adv-x="594" 
d="M289 -12q-56 0 -102.5 18t-79.5 49.5t-51.5 75.5t-18.5 95q0 53 19.5 99t53.5 80t79.5 53.5t98.5 19.5q39 0 73 -11.5t62 -36.5q-7 36 -25.5 67.5t-53.5 59t-88.5 52.5t-129.5 48l46 113q101 -21 176 -55.5t124 -84.5t73 -117t24 -153q0 -61 -13.5 -126.5t-46 -120
t-86 -90t-134.5 -35.5zM288 110q27 0 51 10t42 27.5t28.5 41.5t10.5 52q0 25 -9 46.5t-25 37.5t-37 24.5t-46 8.5q-27 0 -50.5 -10t-40.5 -28t-27 -42.5t-10 -52.5q0 -52 32 -83.5t81 -31.5z" />
    <glyph glyph-name="uni0435" unicode="&#x435;" horiz-adv-x="564" 
d="M313 496q49 0 89.5 -16t69.5 -44.5t44.5 -66.5t15.5 -82q0 -26 -4.5 -49.5t-11.5 -40.5h-344q10 -47 44.5 -70.5t89.5 -23.5q40 0 74 12t66 34l49 -90q-45 -35 -95 -53t-106 -18q-57 0 -104 18t-81 50t-52.5 76t-18.5 95q0 56 21.5 105t59 85.5t87.5 57.5t107 21z
M303 388q-45 0 -79 -26t-48 -71h227v2q0 47 -29 71t-71 24z" />
    <glyph glyph-name="uni0436" unicode="&#x436;" horiz-adv-x="845" 
d="M644 254l151 -254h-149l-153 258l-45 -258h-135l45 260l-225 -260h-168l242 272l-141 213h151l143 -216l38 216h135l-38 -213l200 213h170z" />
    <glyph glyph-name="uni0437" unicode="&#x437;" horiz-adv-x="509" 
d="M228 -12q-29 0 -60 4t-61 15.5t-57 32.5t-47 55l82 74q11 -13 24.5 -25t31.5 -21t41.5 -14.5t53.5 -5.5q78 0 78 50q0 20 -14.5 33.5t-46.5 13.5h-96l17 98h94q26 0 42.5 10t16.5 31q0 44 -77 44q-46 0 -76.5 -10.5t-56.5 -30.5l-55 85q38 36 90.5 53t112.5 17
q33 0 68 -7t63.5 -23t47 -42.5t18.5 -65.5t-19 -69t-52 -50q26 -20 39.5 -45.5t13.5 -54.5t-13 -56t-40 -48.5t-67.5 -34.5t-95.5 -13z" />
    <glyph glyph-name="uni0438" unicode="&#x438;" horiz-adv-x="585" 
d="M475 0h-123l7 43q-26 -25 -61 -40t-78 -15q-38 0 -69 12t-53 34t-34.5 52.5t-12.5 67.5q0 23 6 56l48 275h135l-47 -265q-2 -12 -3 -20.5t-1 -16.5q0 -38 22.5 -58t60.5 -20t66.5 22t36.5 66l51 292h134z" />
    <glyph glyph-name="uni0439" unicode="&#x439;" horiz-adv-x="585" 
d="M475 0h-123l7 43q-26 -25 -61 -40t-78 -15q-38 0 -69 12t-53 34t-34.5 52.5t-12.5 67.5q0 23 6 56l48 275h135l-47 -265q-2 -12 -3 -20.5t-1 -16.5q0 -38 22.5 -58t60.5 -20t66.5 22t36.5 66l51 292h134zM554 748q-5 -37 -19.5 -68.5t-38.5 -55t-56 -36.5t-71 -13
q-37 0 -67 11.5t-51 32t-32.5 48.5t-11.5 61v11t1 9h106v-9q0 -30 16.5 -47t45.5 -17q28 0 47.5 18t24.5 55h106z" />
    <glyph glyph-name="uni043A" unicode="&#x43a;" horiz-adv-x="564" 
d="M213 276l209 209h163l-223 -224l153 -261h-148l-155 269l-47 -269h-135l85 485h135z" />
    <glyph glyph-name="uni043B" unicode="&#x43b;" horiz-adv-x="586" 
d="M479 0h-135l65 373h-44q-29 0 -47 -8t-30 -24.5t-20 -40.5t-17 -56q-17 -61 -36 -106t-50 -75.5t-77 -47t-117 -20.5l20 116q36 5 58 17.5t36 34t23 51.5t20 69q10 37 23 73t37.5 64.5t64 46.5t103.5 18h208z" />
    <glyph glyph-name="uni043C" unicode="&#x43c;" horiz-adv-x="695" 
d="M583 0h-134l39 220l-136 -127h-45l-101 142l-41 -235h-135l87 497h45l185 -259l280 259h43z" />
    <glyph glyph-name="uni043D" unicode="&#x43d;" horiz-adv-x="598" 
d="M486 0h-134l34 200h-187l-34 -200h-135l87 495h134l-32 -182h187l32 182h135z" />
    <glyph glyph-name="uni043E" unicode="&#x43e;" horiz-adv-x="609" 
d="M318 497q54 0 100.5 -18.5t80 -51.5t53 -77.5t19.5 -96.5q0 -56 -23 -104.5t-61.5 -84t-89.5 -56t-107 -20.5q-54 0 -100.5 18.5t-80 51.5t-52.5 77.5t-19 95.5q0 56 22.5 104.5t61 84.5t89.5 56.5t107 20.5zM312 375q-29 0 -53.5 -11t-43 -30.5t-29 -45t-10.5 -55.5
q0 -27 8.5 -50t24.5 -39t38 -25t48 -9q28 0 53.5 10.5t44 29.5t29.5 44t11 55q0 28 -9 51t-25 39.5t-38.5 26t-48.5 9.5z" />
    <glyph glyph-name="uni043F" unicode="&#x43f;" horiz-adv-x="592" 
d="M370 497q38 0 69 -12t53.5 -34t34.5 -52.5t12 -67.5q0 -23 -6 -56l-48 -275h-134l46 266q2 11 3.5 19.5t1.5 16.5q0 38 -23 58t-61 20t-66.5 -22t-36.5 -66l-50 -292h-135l85 485h123l-7 -43q26 25 60.5 40t78.5 15z" />
    <glyph glyph-name="uni0440" unicode="&#x440;" horiz-adv-x="634" 
d="M382 497q49 0 89 -18.5t68 -50.5t43.5 -74t15.5 -88t-16 -95.5t-49 -90t-83 -66.5t-117 -26q-58 0 -97 19.5t-62 51.5l-42 -239h-134l117 665h123l-10 -56q28 34 68 51t86 17zM341 375q-32 0 -57 -12.5t-43 -32.5t-27.5 -46.5t-9.5 -53.5q0 -28 9 -50.5t25 -38t38 -24
t47 -8.5q29 0 54 11.5t43.5 31t29 45.5t10.5 55q0 26 -8 48.5t-24 39t-38 26t-49 9.5z" />
    <glyph glyph-name="uni0441" unicode="&#x441;" horiz-adv-x="559" 
d="M319 496q78 0 133.5 -36t81.5 -95l-100 -66q-20 31 -48 53.5t-72 22.5q-29 0 -54.5 -11t-44 -30.5t-29 -45.5t-10.5 -56q0 -54 33.5 -88.5t87.5 -34.5q41 0 71 18.5t51 46.5l87 -74q-35 -51 -90.5 -81.5t-125.5 -30.5q-54 0 -100 18t-79.5 50t-53 76t-19.5 96
q0 57 22.5 106t61 85t89.5 56.5t108 20.5z" />
    <glyph glyph-name="uni0442" unicode="&#x442;" horiz-adv-x="897" 
d="M676 497q81 0 126 -45.5t45 -120.5q0 -23 -6 -56l-48 -275h-135l47 269q4 17 4 33q0 37 -21 57.5t-58 20.5t-65 -22t-36 -66l-50 -292h-135l47 270q4 16 4 32q0 37 -21 57.5t-58 20.5t-65 -22t-36 -66l-50 -292h-135l85 485h123l-7 -43q26 25 60.5 40t77.5 15
q46 0 82 -18.5t58 -50.5q30 31 72.5 50t94.5 19z" />
    <glyph glyph-name="uni0443" unicode="&#x443;" horiz-adv-x="593" 
d="M490 24q-9 -53 -32 -93.5t-56 -67.5t-74.5 -41t-87.5 -14q-65 0 -127.5 28t-106.5 84l81 89q32 -33 68 -56t85 -23q44 0 75.5 22.5t40.5 75.5l5 29q-25 -20 -56.5 -30.5t-67.5 -10.5q-39 0 -70 12.5t-53.5 34.5t-34.5 52.5t-12 65.5q0 12 1.5 25.5t3.5 27.5l45 251h134
l-44 -248q-3 -15 -3 -28q0 -35 23 -56t60 -21q38 0 66.5 22t36.5 64l47 267h134z" />
    <glyph glyph-name="uni0444" unicode="&#x444;" horiz-adv-x="779" 
d="M501 497q52 -2 96.5 -20t76.5 -48.5t50 -73.5t18 -94q0 -49 -18 -97.5t-57.5 -87t-101.5 -62.5t-150 -24h-2l-29 -170h-135l29 170q-53 2 -97 19.5t-75.5 48.5t-49.5 73.5t-18 94.5q0 49 18 97.5t57.5 87t101.5 62.5t150 24h2l44 253h135zM171 233q0 -61 35 -94.5
t96 -35.5l49 280h-3q-88 0 -132.5 -41.5t-44.5 -108.5zM609 254q0 61 -35 94t-96 35l-49 -280h4q87 0 131.5 42t44.5 109z" />
    <glyph glyph-name="uni0445" unicode="&#x445;" horiz-adv-x="530" 
d="M279 348l114 137h159l-210 -239l139 -246h-145l-84 156l-128 -156h-159l223 257l-126 228h145z" />
    <glyph glyph-name="uni0446" unicode="&#x446;" horiz-adv-x="635" 
d="M507 179q-3 -15 -3 -24q0 -43 46 -43h33l-44 -253h-135l26 150q-28 12 -45 37q-26 -26 -63.5 -42t-89.5 -16q-88 0 -134.5 46t-46.5 120q0 23 6 56l48 275h135l-48 -269q-3 -18 -3 -33q0 -38 22.5 -58t60.5 -20t66.5 22t36.5 66l51 292h134z" />
    <glyph glyph-name="uni0447" unicode="&#x447;" horiz-adv-x="562" 
d="M450 0h-135l28 160q-18 -5 -37 -7.5t-39 -2.5q-46 0 -84 14t-65.5 39t-43 60.5t-15.5 79.5q0 14 1.5 26t3.5 24l16 92h135l-18 -99q-1 -5 -1.5 -11.5t-0.5 -13.5q0 -39 23 -64.5t72 -25.5q17 0 36 3t39 9l36 202h134z" />
    <glyph glyph-name="uni0448" unicode="&#x448;" horiz-adv-x="895" 
d="M783 1h-124l7 42q-26 -25 -60.5 -39.5t-77.5 -14.5q-46 0 -82.5 18t-57.5 50q-30 -30 -72.5 -49t-94.5 -19q-79 0 -124.5 45.5t-45.5 120.5q0 23 6 56l48 275h135l-48 -271q-3 -17 -3 -31q0 -37 21 -57.5t58 -20.5t64.5 21.5t35.5 66.5l51 292h135l-48 -271
q-3 -17 -3 -31q0 -37 21 -57.5t58 -20.5t64.5 21.5t35.5 66.5l51 292h135z" />
    <glyph glyph-name="uni0449" unicode="&#x449;" horiz-adv-x="943" 
d="M814 179q-1 -8 -1.5 -13.5t-0.5 -10.5q0 -43 46 -43h32l-44 -253h-135l26 150q-29 12 -46 38q-26 -26 -63 -42.5t-88 -16.5q-54 0 -91.5 18.5t-59.5 51.5q-30 -31 -73 -50.5t-95 -19.5q-80 0 -125 46t-45 120q0 23 6 56l48 275h135l-48 -270q-2 -10 -2.5 -17t-0.5 -15
q0 -37 21 -57.5t58 -20.5t64.5 22t35.5 66l51 292h135l-48 -270q-3 -18 -3 -32q-1 -38 21 -58t58 -20q38 0 65 22t35 66l51 292h135z" />
    <glyph glyph-name="uni044A" unicode="&#x44a;" horiz-adv-x="586" 
d="M261 368l73 -1q45 0 82.5 -11t64.5 -33t42 -55t15 -77q0 -48 -17.5 -86t-47.5 -64t-70.5 -39.5t-86.5 -13.5q-45 0 -85 12.5t-70 36t-47.5 57.5t-17.5 78q0 19 4 42l28 159h-102l20 112h236zM241 254l-9 -52q-2 -8 -2 -14.5v-11.5q0 -34 25.5 -53.5t60.5 -19.5
q37 0 60.5 21.5t23.5 58.5q0 35 -23.5 53t-65.5 18h-70z" />
    <glyph glyph-name="uni044B" unicode="&#x44b;" horiz-adv-x="792" 
d="M218 367h73q45 0 82.5 -11t64.5 -33t42 -55t15 -77q0 -48 -17.5 -86t-47.5 -64t-70.5 -39.5t-86.5 -13.5q-45 0 -85 12.5t-70 36t-47.5 57.5t-17.5 78q0 19 4 42l48 271h134zM681 0h-135l85 485h134zM198 254l-9 -52q-2 -8 -2 -14.5v-11.5q0 -34 25.5 -53.5t60.5 -19.5
q37 0 60.5 21.5t23.5 58.5q0 35 -23 53t-65 18h-71z" />
    <glyph glyph-name="uni044C" unicode="&#x44c;" horiz-adv-x="554" 
d="M228 367h73q45 0 82.5 -11t64.5 -33t42 -55t15 -77q0 -48 -17.5 -86t-47.5 -64t-70.5 -39.5t-86.5 -13.5q-45 0 -85 12.5t-70 36t-47.5 57.5t-17.5 78q0 19 4 42l48 271h134zM208 254l-9 -52q-2 -8 -2 -14.5v-11.5q0 -34 25.5 -53.5t60.5 -19.5q37 0 60.5 21.5t23.5 58.5
q0 35 -23 53t-65 18h-71z" />
    <glyph glyph-name="uni044D" unicode="&#x44d;" horiz-adv-x="566" 
d="M277 496q54 0 100 -18t79.5 -50t53 -76t19.5 -96q0 -57 -22.5 -106t-61 -85t-89.5 -56.5t-108 -20.5q-78 0 -133.5 36t-81.5 95l96 64q20 -32 49 -55t75 -23q48 0 84 26.5t50 69.5h-191l17 95h176q-12 38 -43 60.5t-76 22.5q-43 0 -73 -19t-53 -47l-83 71
q35 51 90.5 81.5t125.5 30.5z" />
    <glyph glyph-name="uni044E" unicode="&#x44e;" horiz-adv-x="860" 
d="M219 307h89q13 42 38.5 76.5t60 60t76.5 39.5t88 14q53 0 99 -18.5t80 -51.5t53.5 -77.5t19.5 -95.5q0 -57 -23 -105.5t-61.5 -84t-89.5 -56t-106 -20.5q-48 0 -90 15.5t-74 43t-53 65t-27 81.5h-100l-34 -193h-135l85 485h135zM564 375q-29 0 -53.5 -11t-43 -30.5
t-29 -45t-10.5 -55.5q0 -27 8.5 -50t24.5 -39t38 -25t48 -9q29 0 54 10.5t44 29.5t29.5 44t10.5 55q0 28 -9 51t-25 39.5t-38.5 26t-48.5 9.5z" />
    <glyph glyph-name="uni044F" unicode="&#x44f;" horiz-adv-x="577" 
d="M465 0h-135l22 122h-72h-13.5t-13.5 1l-119 -123h-157l162 163q-60 46 -60 132q0 45 17 80.5t48 60t74 37.5t95 13h237zM301 375q-42 0 -64 -20.5t-22 -54.5q0 -31 19 -48t55 -17h82l25 140h-95z" />
    <glyph glyph-name="uni0450" unicode="&#x450;" horiz-adv-x="564" 
d="M313 496q49 0 89.5 -16t69.5 -44.5t44.5 -66.5t15.5 -82q0 -26 -4.5 -49.5t-11.5 -40.5h-344q10 -47 44.5 -70.5t89.5 -23.5q40 0 74 12t66 34l49 -90q-45 -35 -95 -53t-106 -18q-57 0 -104 18t-81 50t-52.5 76t-18.5 95q0 56 21.5 105t59 85.5t87.5 57.5t107 21z
M303 388q-45 0 -79 -26t-48 -71h227v2q0 47 -29 71t-71 24zM364 571h-94l-71 185l8 24h151z" />
    <glyph glyph-name="uni0451" unicode="&#x451;" horiz-adv-x="564" 
d="M313 496q49 0 89.5 -16t69.5 -44.5t44.5 -66.5t15.5 -82q0 -26 -4.5 -49.5t-11.5 -40.5h-344q10 -47 44.5 -70.5t89.5 -23.5q40 0 74 12t66 34l49 -90q-45 -35 -95 -53t-106 -18q-57 0 -104 18t-81 50t-52.5 76t-18.5 95q0 56 21.5 105t59 85.5t87.5 57.5t107 21z
M303 388q-45 0 -79 -26t-48 -71h227v2q0 47 -29 71t-71 24zM493 753q33 0 57 -22t24 -56q0 -31 -24 -54t-57 -23q-16 0 -30.5 6.5t-26 17t-18 24.5t-6.5 29q0 34 24.5 56t56.5 22zM245 753q33 0 57 -22t24 -56q0 -31 -24 -54t-57 -23q-16 0 -30.5 6.5t-26 17t-18 24.5
t-6.5 29q0 34 24.5 56t56.5 22z" />
    <glyph glyph-name="uni0452" unicode="&#x452;" horiz-adv-x="598" 
d="M455 551h-191l-21 -120q24 20 55 31.5t70 11.5q38 0 69.5 -12t54 -34t34.5 -52t12 -67q0 -14 -1.5 -26.5t-4.5 -29.5l-47 -271q-16 -88 -66 -131t-131 -43q-23 0 -47 4t-47 15l20 110q33 -6 55 -6q38 0 58 17t27 58l43 242q2 8 3 16t1 16q0 37 -22.5 57.5t-60.5 20.5
t-66.5 -22t-36.5 -67l-47 -269h-135l97 551h-79l20 111h78l16 88h135l-16 -88h190z" />
    <glyph glyph-name="uni0453" unicode="&#x453;" horiz-adv-x="455" 
d="M242 496q39 0 71.5 -8.5t56 -25.5t37 -43t13.5 -60q0 -58 -39.5 -94.5t-123.5 -64.5l-59 -20q-29 -9 -43.5 -19t-14.5 -26q0 -20 18 -28.5t44 -8.5q38 0 74 14.5t71 41.5l54 -86q-37 -37 -86.5 -58.5t-109.5 -21.5q-29 0 -63 6t-63 22.5t-48.5 44.5t-19.5 72q0 60 42 97
t127 65l59 19q27 8 39 17t12 24q0 17 -15 24t-40 7q-61 0 -113 -36l-50 88q36 28 77.5 43t92.5 15zM511 756l-169 -185h-106l109 209h170z" />
    <glyph glyph-name="uni0454" unicode="&#x454;" horiz-adv-x="565" 
d="M353 202l-179 -1q9 -44 41.5 -70t81.5 -26q43 0 73 19t53 47l83 -71q-35 -51 -90.5 -81.5t-125.5 -30.5q-54 0 -100 18t-79.5 50t-53 76t-19.5 96q0 57 22.5 106t61 85t89.5 57t108 21q78 0 133.5 -36t81.5 -95l-96 -64q-20 32 -49 55.5t-75 23.5q-45 0 -79 -23t-51 -61
h186z" />
    <glyph glyph-name="uni0455" unicode="&#x455;" horiz-adv-x="456" 
d="M247 497q61 0 107 -22t77 -64l-80 -75q-22 26 -49 39t-55 13q-23 0 -36.5 -9t-13.5 -26q0 -14 10.5 -23t32.5 -20l44 -19q60 -26 93 -58.5t33 -83.5q0 -31 -12.5 -60t-36.5 -51.5t-60 -36t-84 -13.5q-72 0 -127 30.5t-85 80.5l84 74q27 -32 56.5 -54t72.5 -22q25 0 44 10
t19 30q0 17 -12 26t-34 20l-46 19q-28 12 -50.5 26t-38.5 31.5t-24.5 39t-8.5 49.5q0 35 14 63t38 47t57 29t71 10z" />
    <glyph glyph-name="uni0456" unicode="&#x456;" horiz-adv-x="269" 
d="M160 0h-135l85 485h135zM212 759q36 0 61.5 -24t25.5 -60q0 -35 -25.5 -59t-61.5 -24q-35 0 -60.5 24t-25.5 59q0 36 25.5 60t60.5 24z" />
    <glyph glyph-name="uni0457" unicode="&#x457;" horiz-adv-x="269" 
d="M160 0h-135l85 485h135zM327 754q33 0 57 -22t24 -56q0 -16 -6.5 -30t-17.5 -24.5t-26 -17t-31 -6.5q-32 0 -56.5 23t-24.5 55q0 34 24.5 56t56.5 22zM99 754q33 0 57 -22t24 -56q0 -16 -6.5 -30t-17.5 -24.5t-26 -17t-31 -6.5q-32 0 -56.5 23t-24.5 55q0 34 24.5 56
t56.5 22z" />
    <glyph glyph-name="uni0458" unicode="&#x458;" horiz-adv-x="273" 
d="M160 -23q-15 -85 -65.5 -127t-128.5 -42q-28 0 -50.5 5t-40.5 13l19 111q27 -6 51 -6q38 0 58 16.5t26 53.5l86 484h134zM215 759q36 0 61.5 -24t25.5 -60q0 -35 -25.5 -59t-61.5 -24q-35 0 -60.5 24t-25.5 59q0 36 25.5 60t60.5 24z" />
    <glyph glyph-name="uni0459" unicode="&#x459;" horiz-adv-x="868" 
d="M543 367h72q46 0 83.5 -11t64.5 -33t42 -55t15 -77q0 -48 -17.5 -86t-48 -64t-71 -39.5t-86.5 -13.5q-45 0 -85 12.5t-70 36t-47.5 57.5t-17.5 78q0 19 4 42l28 159h-44q-29 0 -47 -8t-30 -24.5t-20 -40.5t-17 -56q-17 -61 -36 -106t-50 -75.5t-77 -47t-117 -20.5l20 116
q36 5 58 17.5t36 34t23 51.5t20 69q10 37 23 73t37.5 64.5t64 46.5t103.5 18h208zM523 254l-9 -52q-3 -17 -3 -26q0 -34 26 -53.5t61 -19.5q37 0 60.5 21.5t23.5 58.5q0 35 -23.5 53t-65.5 18h-70z" />
    <glyph glyph-name="uni045A" unicode="&#x45a;" horiz-adv-x="857" 
d="M219 310h169l31 175h134l-21 -118h73q45 0 82.5 -11t64.5 -33t42 -55t15 -77q0 -48 -17.5 -86t-47.5 -64t-70.5 -39.5t-86.5 -13.5q-45 0 -85 12.5t-70 36t-47.5 57.5t-17.5 78v11.5t1 14.5h-169l-34 -198h-135l85 485h134zM512 254l-9 -52q-2 -8 -2 -14.5v-11.5
q0 -34 25.5 -53.5t60.5 -19.5q37 0 60.5 21.5t23.5 58.5q0 35 -23 53t-65 18h-71z" />
    <glyph glyph-name="uni045B" unicode="&#x45b;" horiz-adv-x="594" 
d="M455 551h-191l-21 -120q24 20 55 31.5t70 11.5q38 0 69.5 -12t54 -34t34.5 -52t12 -67q0 -14 -1.5 -26.5t-4.5 -29.5l-44 -253h-134l43 249q2 8 3 15.5t1 15.5q0 37 -22.5 57.5t-60.5 20.5t-66.5 -22t-36.5 -67l-47 -269h-135l97 551h-79l20 111h78l16 88h134l-16 -88
h191z" />
    <glyph glyph-name="uni045C" unicode="&#x45c;" horiz-adv-x="564" 
d="M213 276l209 209h163l-223 -224l153 -261h-148l-155 269l-47 -269h-135l85 485h135zM567 756l-169 -185h-106l109 209h170z" />
    <glyph glyph-name="uni045D" unicode="&#x45d;" horiz-adv-x="585" 
d="M475 0h-123l7 43q-26 -25 -61 -40t-78 -15q-38 0 -69 12t-53 34t-34.5 52.5t-12.5 67.5q0 23 6 56l48 275h135l-47 -265q-2 -12 -3 -20.5t-1 -16.5q0 -38 22.5 -58t60.5 -20t66.5 22t36.5 66l51 292h134zM369 571h-94l-71 185l8 24h151z" />
    <glyph glyph-name="uni045E" unicode="&#x45e;" horiz-adv-x="596" 
d="M490 24q-9 -53 -32 -93.5t-56 -67.5t-74.5 -41t-87.5 -14q-65 0 -127.5 28t-106.5 84l81 89q32 -33 68 -56t85 -23q44 0 75.5 22.5t40.5 75.5l5 29q-25 -20 -56.5 -30.5t-67.5 -10.5q-39 0 -70 12.5t-53.5 34.5t-34.5 52.5t-12 65.5q0 12 1.5 25.5t3.5 27.5l45 251h134
l-44 -248q-3 -15 -3 -28q0 -35 23 -56t60 -21q38 0 66.5 22t36.5 64l47 267h134zM563 748q-5 -37 -19.5 -68.5t-38.5 -55t-56 -36.5t-71 -13q-37 0 -67 11.5t-51 32t-32.5 48.5t-11.5 61v11t1 9h106v-9q0 -30 16.5 -47t45.5 -17q28 0 47.5 18t24.5 55h106z" />
    <glyph glyph-name="uni045F" unicode="&#x45f;" horiz-adv-x="585" 
d="M475 0h-123l7 43q-26 -25 -61 -40t-78 -15q-38 0 -69 12t-53 34t-34.5 52.5t-12.5 67.5q0 23 6 56l48 275h135l-48 -269q-3 -18 -3 -33q0 -38 22.5 -58t60.5 -20t66.5 22t36.5 66l51 292h134zM278 -220h-118l15 174h134z" />
    <glyph glyph-name="uni0462" unicode="&#x462;" horiz-adv-x="623" 
d="M274 594h263l-20 -111h-263l-14 -80h123q103 0 159.5 -51.5t56.5 -136.5q0 -49 -19 -88.5t-52.5 -67.5t-80.5 -43.5t-104 -15.5h-289l85 483h-79l20 111h79l11 66h135zM219 286l-30 -167h150q49 0 75 25.5t26 63.5q0 35 -21 56.5t-63 21.5h-137z" />
    <glyph glyph-name="uni0463" unicode="&#x463;" horiz-adv-x="558" 
d="M259 519h198l-20 -111h-198l-11 -60h79q45 0 82 -9.5t63.5 -30t41 -51.5t14.5 -73q0 -47 -17.5 -83t-47.5 -61.5t-70.5 -38.5t-86.5 -13q-45 0 -85 12.5t-70 36t-47.5 57.5t-17.5 78q0 19 4 42l35 194h-79l20 111h78l41 231h135zM209 240l-6 -38q-3 -17 -3 -27
q0 -34 25.5 -53t61.5 -19t59.5 19.5t23.5 54.5q0 36 -24 49.5t-64 13.5h-73z" />
    <glyph glyph-name="uni0472" unicode="&#x472;" horiz-adv-x="778" 
d="M431 672q70 0 129.5 -24t102.5 -67t67 -101t24 -127q0 -77 -30 -143.5t-81 -115.5t-119.5 -77.5t-144.5 -28.5q-71 0 -130 24t-102 67t-67 101t-24 127q0 76 30 143t81 116t119 77.5t145 28.5zM389 113q41 0 77.5 13.5t65.5 38t49.5 58t28.5 74.5q-32 -14 -59 -20.5
t-56 -6.5t-53 5.5t-46.5 12.5t-45.5 12.5t-51 5.5q-26 0 -50.5 -5t-52.5 -16q4 -39 20 -71t41.5 -54.5t59 -34.5t72.5 -12zM320 425q28 0 51.5 -5.5t46 -12.5t46 -12.5t52.5 -5.5q45 0 92 17q-17 65 -66.5 103t-119.5 38q-74 0 -130.5 -40.5t-81.5 -106.5q30 13 56.5 19
t53.5 6z" />
    <glyph glyph-name="uni0473" unicode="&#x473;" horiz-adv-x="609" 
d="M318 497q54 0 100.5 -18.5t80 -51.5t53 -77.5t19.5 -95.5q0 -57 -23 -105.5t-61.5 -84t-89.5 -56t-107 -20.5q-54 0 -100.5 18.5t-80 51.5t-52.5 77t-19 95q0 57 22.5 105.5t61 84.5t89.5 56.5t107 20.5zM295 103q48 0 85 26.5t52 69.5q-33 -12 -63 -12q-21 0 -38 4
t-33 8.5t-32.5 8.5t-36.5 4q-15 0 -29 -2.5t-29 -7.5q9 -45 42 -72t82 -27zM240 304q20 0 37 -4t33.5 -8.5t33.5 -8.5t37 -4q26 0 55 9q-11 43 -44 68.5t-79 25.5q-45 0 -80 -24.5t-52 -63.5q29 10 59 10z" />
    <glyph glyph-name="uni0474" unicode="&#x474;" horiz-adv-x="680" 
d="M679 672q22 0 40.5 -3.5t33.5 -8.5l-20 -116q-21 3 -35 3q-28 0 -46.5 -14t-38.5 -46l-306 -499h-44l-177 672h141l101 -396l173 288q40 67 82 93.5t96 26.5z" />
    <glyph glyph-name="uni0475" unicode="&#x475;" horiz-adv-x="564" 
d="M548 495q33 0 61 -10l-20 -110h-28q-20 0 -35 -9.5t-31 -31.5l-230 -346h-45l-158 497h137l77 -270l112 177q32 51 70.5 77t89.5 26z" />
    <glyph glyph-name="uni0490" unicode="&#x490;" horiz-adv-x="499" 
d="M528 538h-264l-95 -538h-135l116 660h264l21 121h135z" />
    <glyph glyph-name="uni0491" unicode="&#x491;" horiz-adv-x="479" 
d="M478 372h-249l-64 -372h-135l85 485h248l23 129h135z" />
    <glyph glyph-name="uni0492" unicode="&#x492;" horiz-adv-x="514" 
d="M440 251h-218l-44 -251h-135l44 251h-93l22 122h92l51 287h404l-22 -122h-268l-29 -165h218z" />
    <glyph glyph-name="uni0493" unicode="&#x493;" horiz-adv-x="480" 
d="M407 151h-213l-26 -151h-135l26 151h-77l18 112h79l39 222h388l-20 -113h-254l-19 -109h213z" />
    <glyph glyph-name="uni0496" unicode="&#x496;" horiz-adv-x="1016" 
d="M594 355l275 305h172l-294 -324l134 -214h102l-46 -263h-135l25 141h-29l-206 343l-60 -343h-135l60 344l-313 -344h-174l333 360l-184 300h152l188 -307l54 307h135z" />
    <glyph glyph-name="uni0497" unicode="&#x497;" horiz-adv-x="877" 
d="M495 272l200 213h170l-222 -232l82 -140h100l-44 -254h-135l25 141h-28l-150 258l-45 -258h-135l45 260l-225 -260h-168l242 272l-141 213h151l143 -216l38 216h135z" />
    <glyph glyph-name="uni0498" unicode="&#x498;" horiz-adv-x="588" 
d="M346 672q48 0 86 -14t65 -38t41.5 -56t14.5 -69q0 -45 -21 -86.5t-65 -67.5q35 -23 54.5 -57t19.5 -76q0 -38 -16 -77t-47.5 -70.5t-78.5 -52t-110 -20.5q-40 0 -79.5 9.5t-75 30t-65 53t-48.5 79.5l101 60q32 -59 73.5 -83t91.5 -24q53 0 86.5 24t33.5 69q0 31 -21 53.5
t-69 22.5h-119l20 111h100q50 0 76 23.5t26 58.5t-25.5 54t-67.5 19q-79 0 -146 -73l-84 76q43 56 110 88.5t139 32.5zM294 38q24 -17 38 -42t14 -53q0 -22 -9 -45.5t-28.5 -43.5t-49.5 -33t-72 -13q-26 0 -48 5t-42 12l15 87l32 -4t30 -2q28 0 46 12.5t23 46.5q4 31 -4 54z
" />
    <glyph glyph-name="uni0499" unicode="&#x499;" horiz-adv-x="509" 
d="M228 -12q-29 0 -60 4t-61 15.5t-57 32.5t-47 55l82 74q11 -13 24.5 -25t31.5 -21t41.5 -14.5t53.5 -5.5q78 0 78 50q0 20 -14.5 33.5t-46.5 13.5h-96l17 98h94q26 0 42.5 10t16.5 31q0 44 -77 44q-46 0 -76.5 -10.5t-56.5 -30.5l-55 85q38 36 90.5 53t112.5 17
q33 0 68 -7t63.5 -23t47 -42.5t18.5 -65.5t-19 -69t-52 -50q26 -20 39.5 -45.5t13.5 -54.5t-13 -56t-40 -48.5t-67.5 -34.5t-95.5 -13zM256 38q24 -17 38 -42t14 -53q0 -22 -9 -45.5t-28.5 -43.5t-49.5 -33t-72 -13q-26 0 -48 5t-42 12l15 87l32 -4t30 -2q28 0 46 12.5
t23 46.5q4 31 -4 54z" />
    <glyph glyph-name="uni049A" unicode="&#x49a;" horiz-adv-x="673" 
d="M231 354l296 306h171l-312 -325l143 -213h111l-46 -263h-135l25 141h-25l-230 343l-60 -343h-135l116 660h135z" />
    <glyph glyph-name="uni049B" unicode="&#x49b;" horiz-adv-x="600" 
d="M211 268l206 217h170l-224 -232l84 -140h101l-45 -254h-134l25 141h-28l-156 262l-46 -262h-134l85 485h134z" />
    <glyph glyph-name="uni04A0" unicode="&#x4a0;" horiz-adv-x="707" 
d="M268 353l297 307h172l-313 -324l230 -336h-151l-237 345l-60 -345h-135l95 538h-111l21 122h246z" />
    <glyph glyph-name="uni04A1" unicode="&#x4a1;" horiz-adv-x="597" 
d="M245 275l210 210h163l-223 -224l153 -261h-148l-156 271l-47 -271h-135l65 372h-101l20 113h236z" />
    <glyph glyph-name="uni04A2" unicode="&#x4a2;" horiz-adv-x="751" 
d="M617 122h88l-46 -263h-135l25 141h-88l50 285h-292l-50 -285h-135l116 660h135l-44 -253h292l44 253h135z" />
    <glyph glyph-name="uni04A3" unicode="&#x4a3;" horiz-adv-x="646" 
d="M506 113h88l-45 -254h-142l25 141h-80l35 200h-187l-35 -200h-135l87 495h134l-31 -182h187l31 182h135z" />
    <glyph glyph-name="uni04AA" unicode="&#x4aa;" horiz-adv-x="720" 
d="M378 38q24 -17 38 -42t14 -53q0 -22 -9 -45.5t-28.5 -43.5t-49.5 -33t-72 -13q-26 0 -48 5t-42 12l15 87l32 -4t30 -2q28 0 46 12.5t23 46.5q4 31 -4 54zM433 672q100 0 174 -47t111 -131l-110 -66q-27 57 -72 88t-111 31q-50 0 -92 -18t-72.5 -49.5t-48 -74t-17.5 -92.5
q0 -45 14 -81.5t40 -63t62.5 -41t80.5 -14.5q60 0 108 27t86 75l95 -76q-52 -72 -129.5 -111.5t-169.5 -39.5q-72 0 -131.5 24t-103 67t-67.5 101t-24 127q0 76 30 143t81 116t119.5 77.5t146.5 28.5z" />
    <glyph glyph-name="uni04AB" unicode="&#x4ab;" horiz-adv-x="559" 
d="M289 38q24 -17 38 -42t14 -53q0 -22 -9 -45.5t-28.5 -43.5t-49.5 -33t-72 -13q-26 0 -48 5t-42 12l15 87l32 -4t30 -2q28 0 46 12.5t23 46.5q4 31 -4 54zM319 496q78 0 133.5 -36t81.5 -95l-100 -66q-20 31 -48 53.5t-72 22.5q-29 0 -54.5 -11t-44 -30.5t-29 -45.5
t-10.5 -56q0 -54 33.5 -88.5t87.5 -34.5q41 0 71 18.5t51 46.5l87 -74q-35 -51 -90.5 -81.5t-125.5 -30.5q-54 0 -100 18t-79.5 50t-53 76t-19.5 96q0 57 22.5 106t61 85t89.5 56.5t108 20.5z" />
    <glyph glyph-name="uni04AE" unicode="&#x4ae;" horiz-adv-x="615" 
d="M378 256l-45 -256h-135l46 262l-158 398h136l107 -263l191 263h156z" />
    <glyph glyph-name="uni04AF" unicode="&#x4af;" horiz-adv-x="556" 
d="M318 81l-45 -261h-135l45 257l-129 408h138l77 -272l171 272h149z" />
    <glyph glyph-name="uni04B0" unicode="&#x4b0;" horiz-adv-x="641" 
d="M556 164h-181l-29 -164h-135l29 164h-181l21 121h168l-149 375h135l108 -264l191 264h156l-277 -375h165z" />
    <glyph glyph-name="uni04B1" unicode="&#x4b1;" horiz-adv-x="568" 
d="M459 0h-151l-31 -180h-135l31 180h-148l19 110h124l-108 375h135l74 -292l176 292h150l-242 -375h125z" />
    <glyph glyph-name="uni04B2" unicode="&#x4b2;" horiz-adv-x="623" 
d="M338 447l157 213h164l-259 -337l98 -201h92l-46 -263h-135l25 141h-20l-108 224l-172 -224h-164l276 350l-147 310h143z" />
    <glyph glyph-name="uni04B3" unicode="&#x4b3;" horiz-adv-x="564" 
d="M342 246l75 -133h96l-45 -254h-135l25 141h-22l-84 156l-128 -156h-159l223 257l-126 228h145l72 -137l114 137h159z" />
    <glyph glyph-name="uni04B6" unicode="&#x4b6;" horiz-adv-x="682" 
d="M220 499q-2 -14 -3.5 -26t-1.5 -23q0 -38 13.5 -62t34.5 -37.5t47 -18.5t52 -5q20 0 43 2.5t46 7.5l57 323h135l-95 -538h88l-46 -263h-135l25 141h-88l37 214q-18 -4 -38 -5.5t-40 -1.5q-59 0 -108.5 16t-85.5 47t-56 76t-20 102q0 16 1.5 31t4.5 33l26 148h135z" />
    <glyph glyph-name="uni04B7" unicode="&#x4b7;" horiz-adv-x="609" 
d="M197 386q-1 -5 -1.5 -11.5t-0.5 -13.5q0 -39 23 -64.5t72 -25.5q17 0 36 3t39 9l36 202h134l-66 -372h89l-45 -254h-135l25 141h-88l28 161q-18 -5 -37 -7.5t-39 -2.5q-46 0 -84 13.5t-65.5 39t-43 60.5t-15.5 79q0 14 1.5 26t3.5 24l16 92h135z" />
    <glyph glyph-name="uni04BA" unicode="&#x4ba;" horiz-adv-x="646" 
d="M245 433q22 5 45.5 7.5t46.5 2.5q52 0 95 -15t74 -43t48 -68t17 -89q0 -16 -2 -30.5t-4 -30.5l-29 -167h-135l31 181q2 12 3 23t1 19q0 53 -33 76.5t-81 23.5q-20 0 -46.5 -3.5t-52.5 -9.5l-54 -310h-135l116 660h135z" />
    <glyph glyph-name="uni04BB" unicode="&#x4bb;" horiz-adv-x="596" 
d="M244 454q24 20 55.5 31.5t69.5 11.5t69.5 -12t54 -34t34.5 -52.5t12 -67.5q0 -23 -6 -56l-48 -275h-134l47 271q2 8 3 15.5t1 15.5q0 37 -23 57.5t-61 20.5t-66.5 -22t-36.5 -66l-50 -292h-135l132 750h134z" />
    <glyph glyph-name="uni04C0" unicode="&#x4c0;" horiz-adv-x="286" 
d="M169 0h-135l116 660h135z" />
    <glyph glyph-name="uni04C1" unicode="&#x4c1;" horiz-adv-x="1012" 
d="M747 337l211 -337h-154l-212 343l-60 -343h-135l60 344l-313 -344h-174l335 360l-186 300h152l188 -307l54 307h135l-54 -305l275 305h172zM797 903q-5 -37 -20 -68.5t-39 -54.5t-56 -36t-71 -13q-36 0 -66 11.5t-51 32t-32.5 48.5t-11.5 61v10t1 9h106v-9
q0 -29 16.5 -46.5t45.5 -17.5q28 0 47.5 18.5t24.5 54.5h106z" />
    <glyph glyph-name="uni04C2" unicode="&#x4c2;" horiz-adv-x="845" 
d="M644 254l151 -254h-149l-153 258l-45 -258h-135l45 260l-225 -260h-168l242 272l-141 213h151l143 -216l38 216h135l-38 -213l200 213h170zM685 748q-5 -37 -19.5 -68.5t-38.5 -55t-56 -36.5t-71 -13q-37 0 -67 11.5t-51 32t-32.5 48.5t-11.5 61v11t1 9h106v-9
q0 -30 16.5 -47t45.5 -17q28 0 47.5 18t24.5 55h106z" />
    <glyph glyph-name="uni04CF" unicode="&#x4cf;" horiz-adv-x="276" 
d="M165 0h-135l132 750h135z" />
    <glyph glyph-name="uni04D0" unicode="&#x4d0;" horiz-adv-x="661" 
d="M621 903q-5 -37 -20 -68.5t-39 -54.5t-56 -36t-71 -13q-36 0 -66 11.5t-51 32t-32.5 48.5t-11.5 61v10t1 9h106v-9q0 -29 16.5 -46.5t45.5 -17.5q28 0 47.5 18.5t24.5 54.5h106zM607 0h-140l-23 86h-266l-52 -86h-153l414 672h44zM245 197h171l-47 217z" />
    <glyph glyph-name="uni04D1" unicode="&#x4d1;" horiz-adv-x="626" 
d="M576 748q-5 -37 -19.5 -68.5t-38.5 -55t-56 -36.5t-71 -13q-37 0 -67 11.5t-51 32t-32.5 48.5t-11.5 61v11t1 9h106v-9q0 -30 16.5 -47t45.5 -17q28 0 47.5 18t24.5 55h106zM303 497q57 0 96 -18.5t62 -50.5l10 57h134l-85 -485h-126l9 50q-29 -31 -67.5 -46.5
t-82.5 -15.5q-50 0 -89.5 18.5t-68 50t-43.5 73.5t-15 88t16 95.5t49 90t83 67t118 26.5zM312 376q-30 0 -55 -11.5t-43 -31t-28.5 -46t-10.5 -55.5q-1 -53 31 -88t87 -35q31 0 56.5 12.5t43 33t27.5 46.5t10 54t-9 50.5t-25 38t-37.5 24t-46.5 8.5z" />
    <glyph glyph-name="uni04D4" unicode="&#x4d4;" horiz-adv-x="853" 
d="M770 0h-356v86h-233l-58 -86h-160l453 660h457l-21 -122h-303l-1 -134h199l-19 -115h-180l-1 -167h244zM415 198l4 253l-163 -253h159z" />
    <glyph glyph-name="uni04D5" unicode="&#x4d5;" horiz-adv-x="871" 
d="M290 496q51 0 92 -16.5t65 -53.5q35 33 80 51.5t96 18.5q48 0 87.5 -16t68 -44.5t44.5 -66.5t16 -82q0 -26 -5 -51.5t-12 -42.5h-343q11 -45 45.5 -67.5t87.5 -22.5q41 0 74.5 12t65.5 34l49 -90q-44 -35 -94.5 -53t-104.5 -18q-66 0 -117.5 26.5t-83.5 72.5
q-37 -48 -88.5 -73.5t-119.5 -25.5q-35 0 -67 7.5t-56 24t-38 42.5t-14 64q0 32 11.5 60.5t37 49.5t66 33t98.5 12h124q1 7 1.5 13.5t0.5 11.5q0 35 -22.5 54.5t-64.5 19.5q-39 0 -71 -15.5t-64 -38.5l-52 92q94 78 207 78zM610 388q-48 0 -83 -28.5t-47 -78.5h230v12
q0 47 -29 71t-71 24zM224 86q44 0 74.5 25t37.5 66l3 16h-104q-38 0 -58.5 -12t-20.5 -41t20 -41.5t48 -12.5z" />
    <glyph glyph-name="uni04D6" unicode="&#x4d6;" horiz-adv-x="573" 
d="M583 903q-5 -37 -20 -68.5t-39 -54.5t-56 -36t-71 -13q-36 0 -66 11.5t-51 32t-32.5 48.5t-11.5 61v10t1 9h106v-9q0 -29 16.5 -46.5t45.5 -17.5q28 0 47.5 18.5t24.5 54.5h106zM573 538h-309l-24 -134h227l-20 -115h-228l-29 -167h321l-21 -122h-456l116 660h444z" />
    <glyph glyph-name="uni04D7" unicode="&#x4d7;" horiz-adv-x="564" 
d="M549 748q-5 -37 -19.5 -68.5t-38.5 -55t-56 -36.5t-71 -13q-37 0 -67 11.5t-51 32t-32.5 48.5t-11.5 61v11t1 9h106v-9q0 -30 16.5 -47t45.5 -17q28 0 47.5 18t24.5 55h106zM313 496q49 0 89.5 -16t69.5 -44.5t44.5 -66.5t15.5 -82q0 -26 -4.5 -49.5t-11.5 -40.5h-344
q10 -47 44.5 -70.5t89.5 -23.5q40 0 74 12t66 34l49 -90q-45 -35 -95 -53t-106 -18q-57 0 -104 18t-81 50t-52.5 76t-18.5 95q0 56 21.5 105t59 85.5t87.5 57.5t107 21zM303 388q-45 0 -79 -26t-48 -71h227v2q0 47 -29 71t-71 24z" />
    <glyph glyph-name="uni04D8" unicode="&#x4d8;" horiz-adv-x="736" 
d="M386 672q71 0 131 -25t103.5 -68t68 -100.5t24.5 -121.5q0 -57 -21 -122t-65.5 -119.5t-112 -90.5t-160.5 -36q-69 0 -125 21t-95.5 59.5t-61 91t-21.5 115.5q0 30 4.5 55.5t10.5 45.5h506q-5 39 -21 70t-41 53.5t-58 34.5t-72 12q-55 0 -102.5 -23.5t-84.5 -68.5l-85 82
q50 61 120 98t158 37zM356 114q39 0 71.5 11.5t58 31t44 46.5t29.5 58h-371q0 -38 14 -65.5t37 -45.5t53.5 -27t63.5 -9z" />
    <glyph glyph-name="uni04D9" unicode="&#x4d9;" horiz-adv-x="564" 
d="M276 496q57 0 103 -19t79 -52t50.5 -77t17.5 -93q0 -56 -21.5 -104.5t-59 -84.5t-87 -57t-106.5 -21q-50 0 -90.5 16.5t-69.5 45t-44.5 66.5t-15.5 82q0 26 5 49.5t12 40.5h343q-10 46 -43 70t-86 24q-39 0 -72.5 -12t-64.5 -34l-49 90q42 34 93.5 52t105.5 18zM262 96
q44 0 78 26t48 72h-227v-2q0 -47 29.5 -71.5t71.5 -24.5z" />
    <glyph glyph-name="uni04E2" unicode="&#x4e2;" horiz-adv-x="723" 
d="M606 0h-135l69 393l-463 -405h-45l118 672h135l-70 -394l465 406h44zM603 755h-322l19 106h322z" />
    <glyph glyph-name="uni04E3" unicode="&#x4e3;" horiz-adv-x="585" 
d="M475 0h-123l7 43q-26 -25 -61 -40t-78 -15q-38 0 -69 12t-53 34t-34.5 52.5t-12.5 67.5q0 23 6 56l48 275h135l-47 -265q-2 -12 -3 -20.5t-1 -16.5q0 -38 22.5 -58t60.5 -20t66.5 22t36.5 66l51 292h134zM509 622h-302l19 106h302z" />
    <glyph glyph-name="uni04E6" unicode="&#x4e6;" horiz-adv-x="779" 
d="M624 892q33 0 57 -22.5t24 -56.5q0 -31 -24 -54t-57 -23q-16 0 -30.5 6.5t-26 17t-18 24.5t-6.5 29q0 34 24.5 56.5t56.5 22.5zM360 892q33 0 57 -22t24 -56q0 -31 -24 -54t-57 -23q-16 0 -30.5 6.5t-26 17t-18 24.5t-6.5 29q0 34 24.5 56t56.5 22zM431 672
q70 0 129.5 -24t102.5 -67t67 -101t24 -127q0 -77 -30 -143.5t-81 -115.5t-119.5 -77.5t-144.5 -28.5q-71 0 -130 24t-102 67t-67 101t-24 127q0 76 30 143t81 116t119 77.5t145 28.5zM422 547q-48 0 -89.5 -18t-72 -49.5t-48 -74t-17.5 -92.5q0 -45 14.5 -81.5t40 -63
t61 -41t78.5 -14.5q47 0 88.5 18t72 49.5t48.5 74.5t18 93q0 44 -14.5 80.5t-40 63t-61.5 41t-78 14.5z" />
    <glyph glyph-name="uni04E7" unicode="&#x4e7;" horiz-adv-x="609" 
d="M510 753q33 0 57 -22t24 -56q0 -31 -24 -54t-57 -23q-16 0 -30.5 6.5t-26 17t-18 24.5t-6.5 29q0 34 24.5 56t56.5 22zM262 753q33 0 57 -22t24 -56q0 -31 -24 -54t-57 -23q-16 0 -30.5 6.5t-26 17t-18 24.5t-6.5 29q0 34 24.5 56t56.5 22zM318 497q54 0 100.5 -18.5
t80 -51.5t53 -77.5t19.5 -96.5q0 -56 -23 -104.5t-61.5 -84t-89.5 -56t-107 -20.5q-54 0 -100.5 18.5t-80 51.5t-52.5 77.5t-19 95.5q0 56 22.5 104.5t61 84.5t89.5 56.5t107 20.5zM312 375q-29 0 -53.5 -11t-43 -30.5t-29 -45t-10.5 -55.5q0 -27 8.5 -50t24.5 -39t38 -25
t48 -9q28 0 53.5 10.5t44 29.5t29.5 44t11 55q0 28 -9 51t-25 39.5t-38.5 26t-48.5 9.5z" />
    <glyph glyph-name="uni04E8" unicode="&#x4e8;" horiz-adv-x="778" 
d="M431 672q70 0 129.5 -24t102.5 -67t67 -101t24 -127q0 -77 -30 -143.5t-81 -115.5t-119.5 -77.5t-144.5 -28.5q-71 0 -130 24t-102 67t-67 101t-24 127q0 76 30 143t81 116t119 77.5t145 28.5zM389 113q40 0 75.5 13t64.5 36.5t50 55.5t30 71h-413q4 -40 19.5 -72.5
t41 -55.5t59 -35.5t73.5 -12.5zM422 547q-73 0 -129 -39.5t-81 -103.5h397q-16 66 -66 104.5t-121 38.5z" />
    <glyph glyph-name="uni04E9" unicode="&#x4e9;" horiz-adv-x="609" 
d="M318 497q54 0 100.5 -18.5t80 -51.5t53 -77.5t19.5 -95.5q0 -57 -23 -105.5t-61.5 -84t-89.5 -56t-107 -20.5q-54 0 -100.5 18.5t-80 51.5t-52.5 77t-19 95q0 57 22.5 105.5t61 84.5t89.5 56.5t107 20.5zM295 103q48 0 84.5 26t52.5 68h-260q10 -43 42.5 -68.5
t80.5 -25.5zM313 382q-45 0 -80 -24.5t-52 -64.5h254q-11 41 -44 65t-78 24z" />
    <glyph glyph-name="uni04EE" unicode="&#x4ee;" horiz-adv-x="629" 
d="M375 135q-46 -75 -102.5 -110t-133.5 -35q-53 0 -103 14l20 116q20 -3 36 -4t27 -1q35 0 66.5 12t54.5 41l-145 492h142l97 -348l204 348h153zM588 755h-322l19 106h322z" />
    <glyph glyph-name="uni04EF" unicode="&#x4ef;" horiz-adv-x="593" 
d="M518 622h-302l19 106h302zM490 24q-9 -53 -32 -93.5t-56 -67.5t-74.5 -41t-87.5 -14q-65 0 -127.5 28t-106.5 84l81 89q32 -33 68 -56t85 -23q44 0 75.5 22.5t40.5 75.5l5 29q-25 -20 -56.5 -30.5t-67.5 -10.5q-39 0 -70 12.5t-53.5 34.5t-34.5 52.5t-12 65.5
q0 12 1.5 25.5t3.5 27.5l45 251h134l-44 -248q-3 -15 -3 -28q0 -35 23 -56t60 -21q38 0 66.5 22t36.5 64l47 267h134z" />
    <glyph glyph-name="uni04F2" unicode="&#x4f2;" horiz-adv-x="629" 
d="M375 135q-46 -75 -102.5 -110t-133.5 -35q-53 0 -103 14l20 116q20 -3 36 -4t27 -1q35 0 66.5 12t54.5 41l-145 492h142l97 -348l204 348h153zM728 886l-153 -162h-97l105 186h149zM512 886l-153 -162h-97l105 186h149z" />
    <glyph glyph-name="uni04F3" unicode="&#x4f3;" horiz-adv-x="593" 
d="M662 756l-154 -185h-99l109 209h148zM466 756l-154 -185h-99l109 209h148zM490 24q-9 -53 -32 -93.5t-56 -67.5t-74.5 -41t-87.5 -14q-65 0 -127.5 28t-106.5 84l81 89q32 -33 68 -56t85 -23q44 0 75.5 22.5t40.5 75.5l5 29q-25 -20 -56.5 -30.5t-67.5 -10.5
q-39 0 -70 12.5t-53.5 34.5t-34.5 52.5t-12 65.5q0 12 1.5 25.5t3.5 27.5l45 251h134l-44 -248q-3 -15 -3 -28q0 -35 23 -56t60 -21q38 0 66.5 22t36.5 64l47 267h134z" />
    <glyph glyph-name="uni2009" unicode="&#x2009;" horiz-adv-x="148" 
 />
    <glyph glyph-name="endash" unicode="&#x2013;" horiz-adv-x="500" 
d="M469 264h-430l20 113h430z" />
    <glyph glyph-name="emdash" unicode="&#x2014;" horiz-adv-x="1001" 
d="M954 264h-900l21 113h900z" />
    <glyph glyph-name="uni2015" unicode="&#x2015;" horiz-adv-x="1001" 
d="M954 264h-900l21 113h900z" />
    <glyph glyph-name="quoteleft" unicode="&#x2018;" horiz-adv-x="302" 
d="M239 382h-155l103 278h105z" />
    <glyph glyph-name="quoteright" unicode="&#x2019;" horiz-adv-x="302" 
d="M215 382h-106l54 278h154z" />
    <glyph glyph-name="quotesinglbase" unicode="&#x201a;" horiz-adv-x="302" 
d="M120 -155h-106l54 278h155z" />
    <glyph glyph-name="quotedblleft" unicode="&#x201c;" horiz-adv-x="539" 
d="M477 382h-155l103 278h105zM239 382h-155l103 278h105z" />
    <glyph glyph-name="quotedblright" unicode="&#x201d;" horiz-adv-x="539" 
d="M452 382h-106l54 278h154zM215 382h-106l54 278h154z" />
    <glyph glyph-name="quotedblbase" unicode="&#x201e;" horiz-adv-x="538" 
d="M356 -155h-106l54 278h155zM120 -155h-106l54 278h155z" />
    <glyph glyph-name="dagger" unicode="&#x2020;" horiz-adv-x="485" 
d="M373 605h127l-19 -113h-127l-44 -244h-134l43 244h-127l19 113h128l25 145h135z" />
    <glyph glyph-name="daggerdbl" unicode="&#x2021;" horiz-adv-x="484" 
d="M379 635h127l-19 -113h-127l-23 -129h127l-20 -113h-127l-21 -116h-135l21 116h-127l20 113h127l23 129h-127l19 113h127l21 115h134z" />
    <glyph glyph-name="bullet" unicode="&#x2022;" horiz-adv-x="427" 
d="M220 430q34 0 63.5 -12t51.5 -33.5t34.5 -50.5t12.5 -63t-12.5 -63t-34.5 -50t-51.5 -33t-63.5 -12q-33 0 -63 12t-52 33t-35 50t-13 63t13 63t35 50.5t52 33.5t63 12z" />
    <glyph glyph-name="ellipsis" unicode="&#x2026;" horiz-adv-x="787" 
d="M367 174q39 0 65.5 -27t26.5 -66q0 -40 -26.5 -66.5t-65.5 -26.5q-41 0 -67.5 26.5t-26.5 66.5q0 39 26.5 66t67.5 27zM108 174q39 0 65.5 -27t26.5 -66q0 -40 -26.5 -66.5t-65.5 -26.5q-41 0 -67.5 26.5t-26.5 66.5q0 39 26.5 66t67.5 27zM625 174q39 0 65.5 -27
t26.5 -66q0 -40 -26.5 -66.5t-65.5 -26.5q-41 0 -67.5 26.5t-26.5 66.5q0 39 26.5 66t67.5 27z" />
    <glyph glyph-name="perthousand" unicode="&#x2030;" horiz-adv-x="1215" 
d="M995 317q34 0 63.5 -12.5t51.5 -34t34 -50t12 -61.5q0 -35 -14 -66t-37.5 -54t-55 -36t-66.5 -13t-64.5 12.5t-51 34.5t-33.5 51t-12 61q0 34 13.5 65t37 53.5t55 36t67.5 13.5zM992 224q-32 0 -51 -21.5t-19 -51.5q0 -29 17.5 -49t48.5 -20q32 0 50 21.5t18 52.5
q0 29 -17 48.5t-47 19.5zM221 0h-109l530 660h109zM612 316q34 0 63.5 -12.5t51.5 -34t34 -50t12 -61.5q0 -35 -14 -65.5t-37.5 -53.5t-55 -36.5t-66.5 -13.5t-64.5 12.5t-51 34.5t-33.5 51t-12 61q0 35 13.5 65.5t37 53.5t55 36t67.5 13zM609 224q-32 0 -51 -21.5
t-19 -51.5t17.5 -49.5t48.5 -19.5q32 0 50 21.5t18 52.5q0 29 -17 48.5t-47 19.5zM264 671q34 0 63.5 -12.5t51.5 -34t34 -50.5t12 -61q0 -35 -14 -66t-37.5 -54t-55 -36t-66.5 -13t-64.5 12.5t-51 34.5t-33.5 50.5t-12 61.5q0 34 13.5 65t37 53.5t55 36t67.5 13.5zM261 578
q-32 0 -51 -21.5t-19 -51.5q0 -29 17.5 -49t48.5 -20q32 0 50 21.5t18 52.5q0 29 -17 48.5t-47 19.5z" />
    <glyph glyph-name="minute" unicode="&#x2032;" horiz-adv-x="288" 
d="M194 376h-103l83 284h156z" />
    <glyph glyph-name="second" unicode="&#x2033;" horiz-adv-x="525" 
d="M194 376h-103l83 284h156zM431 376h-103l83 284h156z" />
    <glyph glyph-name="guilsinglleft" unicode="&#x2039;" horiz-adv-x="340" 
d="M340 421l-162 -154l109 -151l-94 -71l-162 209l6 36l227 210z" />
    <glyph glyph-name="guilsinglright" unicode="&#x203a;" horiz-adv-x="340" 
d="M320 291l-6 -36l-227 -210l-76 80l162 153l-108 151l94 71z" />
    <glyph glyph-name="fraction" unicode="&#x2044;" horiz-adv-x="267" 
d="M-42 0h-111l493 660h112z" />
    <glyph glyph-name="uni2070" unicode="&#x2070;" horiz-adv-x="421" 
d="M302 788q37 0 63.5 -11.5t43.5 -32.5t25.5 -50.5t8.5 -64.5q0 -25 -4.5 -55.5t-14.5 -60.5t-25.5 -58.5t-38.5 -50.5t-53.5 -35t-69.5 -13q-36 0 -63 12t-44.5 33.5t-26 51t-8.5 65.5q0 38 10.5 85t34.5 88t63.5 69t98.5 28zM288 696q-27 0 -44.5 -19t-28 -46
t-14.5 -56.5t-4 -51.5q0 -41 14.5 -58t37.5 -17q27 0 44.5 19.5t28 47.5t15 57.5t4.5 50.5q0 39 -15 56t-38 17z" />
    <glyph glyph-name="uni2074" unicode="&#x2074;" horiz-adv-x="374" 
d="M363 514h49l-15 -86h-49l-11 -64h-93l11 64h-211l5 27l170 326h111l-142 -267h82l18 105h93z" />
    <glyph glyph-name="uni2075" unicode="&#x2075;" horiz-adv-x="370" 
d="M392 690h-156l-10 -57q13 3 28 3q23 0 46 -7.5t41 -23t29.5 -38.5t11.5 -54q0 -29 -10.5 -57t-31.5 -50t-52.5 -36t-73.5 -14q-65 0 -105 32t-54 80l79 41q13 -32 34 -46.5t48 -14.5q30 0 47 16.5t17 39.5q0 22 -16.5 34.5t-51.5 12.5h-96l40 229h252z" />
    <glyph glyph-name="uni2076" unicode="&#x2076;" horiz-adv-x="374" 
d="M280 650q22 -3 42 -14t35.5 -28.5t24.5 -41t9 -51.5q0 -35 -14 -64t-37 -50t-53 -32.5t-61 -11.5q-30 0 -57 10.5t-47.5 29.5t-33 46.5t-12.5 60.5q0 40 19 71.5t51 69.5l119 135h128zM238 567q-26 0 -43.5 -17.5t-17.5 -43.5q0 -24 15.5 -40.5t38.5 -16.5q26 0 43 17.5
t17 45.5q0 25 -14.5 40t-38.5 15z" />
    <glyph glyph-name="uni2077" unicode="&#x2077;" horiz-adv-x="345" 
d="M419 753l-240 -389h-117l207 326h-157l17 90h295z" />
    <glyph glyph-name="uni2078" unicode="&#x2078;" horiz-adv-x="388" 
d="M277 788q25 0 50 -6t45 -19t32.5 -33.5t12.5 -50.5q0 -34 -18.5 -62t-59.5 -48q56 -31 56 -84q0 -21 -9.5 -43.5t-28.5 -41t-48.5 -30.5t-68.5 -12q-23 0 -51.5 5.5t-53.5 18.5t-41.5 35.5t-16.5 56.5t22 67t74 47q-17 15 -27.5 33.5t-10.5 44.5q0 22 8.5 43.5t26 39
t44 28.5t63.5 11zM296 484q0 17 -11.5 29t-34.5 25q-39 -11 -56 -23t-17 -32t15 -32.5t44 -12.5q31 0 45.5 14t14.5 32zM276 709q-21 0 -35 -12t-14 -30q0 -13 8.5 -23t28.5 -24q26 9 43.5 20.5t17.5 29.5q0 17 -14 28t-35 11z" />
    <glyph glyph-name="uni2079" unicode="&#x2079;" horiz-adv-x="374" 
d="M264 787q30 0 57 -10.5t48 -29.5t33.5 -46.5t12.5 -60.5q0 -20 -5 -37.5t-14 -34t-22.5 -33.5t-29.5 -36l-118 -135h-128l112 129q-21 3 -41 14t-35.5 28.5t-24.5 41t-9 52.5q0 35 14 64t37 50t52.5 32.5t60.5 11.5zM260 695q-26 0 -43 -17.5t-17 -45.5q0 -25 14.5 -40
t38.5 -15q26 0 43.5 17.5t17.5 43.5q0 24 -15 40.5t-39 16.5z" />
    <glyph glyph-name="uni207A" unicode="&#x207a;" horiz-adv-x="427" 
d="M322 616h130l-15 -87h-131l-24 -135h-97l24 135h-131l16 87h130l24 134h98z" />
    <glyph glyph-name="uni207B" unicode="&#x207b;" horiz-adv-x="427" 
d="M443 529h-358l15 86h359z" />
    <glyph glyph-name="uni207C" unicode="&#x207c;" horiz-adv-x="427" 
d="M421 447h-343l15 88h344zM450 611h-343l16 87h343z" />
    <glyph glyph-name="uni207D" unicode="&#x207d;" horiz-adv-x="278" 
d="M367 840q-48 -25 -81 -63t-54 -83.5t-30.5 -95t-9.5 -97.5q0 -80 22.5 -128t55.5 -77l-47 -54q-24 15 -45 37.5t-37.5 54t-26 72.5t-9.5 92q0 61 14.5 124t43.5 118.5t72.5 98.5t102.5 64z" />
    <glyph glyph-name="uni207E" unicode="&#x207e;" horiz-adv-x="277" 
d="M172 903q24 -15 45 -37.5t37.5 -54t26 -72.5t9.5 -92q0 -61 -14.5 -124t-43.5 -118.5t-72.5 -98.5t-102.5 -64l-29 63q48 25 81 63t54 83.5t30.5 95t9.5 97.5q0 80 -22.5 128t-56.5 77z" />
    <glyph glyph-name="uni2080" unicode="&#x2080;" horiz-adv-x="421" 
d="M218 305q37 0 63.5 -11.5t43.5 -32.5t25.5 -50.5t8.5 -64.5q0 -25 -4.5 -55.5t-14.5 -60.5t-25.5 -58.5t-38.5 -50.5t-53.5 -35t-69.5 -13q-36 0 -63 12t-44.5 33.5t-26 51t-8.5 65.5q0 38 10.5 85t34.5 88t63.5 69t98.5 28zM204 213q-27 0 -44.5 -19t-28 -46
t-14.5 -56.5t-4 -51.5q0 -41 14.5 -58t37.5 -17q27 0 44.5 19.5t28 47.5t15 57.5t4.5 50.5q0 39 -15 56t-38 17z" />
    <glyph glyph-name="uni2081" unicode="&#x2081;" horiz-adv-x="370" 
d="M197 -29h86l-15 -90h-288l16 90h101l41 236h-92l15 90h193z" />
    <glyph glyph-name="uni2082" unicode="&#x2082;" horiz-adv-x="384" 
d="M180 305q34 0 61 -10.5t45.5 -28.5t28.5 -42t10 -51q0 -24 -8 -45t-23.5 -42t-39 -43.5t-54.5 -48.5l-28 -23h127l-16 -90l-311 -1l4 21l176 160q38 35 54.5 59t16.5 46t-13 34.5t-34 12.5q-29 0 -41 -21t-12 -50v-10h-100q-1 5 -1 8.5v6.5q0 28 9.5 56.5t29 51t49 36.5
t70.5 14z" />
    <glyph glyph-name="uni2083" unicode="&#x2083;" horiz-adv-x="360" 
d="M324 270l-109 -130q30 -14 51 -43.5t21 -70.5q0 -26 -10 -53.5t-30.5 -49.5t-51.5 -36t-73 -14q-65 0 -103 32t-52 80l78 41q15 -33 33 -47t44 -14q33 0 48 17t15 39t-15.5 34.5t-52.5 12.5h-55l4 25l96 114h-123l16 90h274z" />
    <glyph glyph-name="uni2084" unicode="&#x2084;" horiz-adv-x="374" 
d="M279 31h49l-15 -86h-49l-11 -64h-93l11 64h-211l5 27l170 326h111l-142 -267h82l18 105h93z" />
    <glyph glyph-name="uni2085" unicode="&#x2085;" horiz-adv-x="370" 
d="M308 207h-156l-10 -57q13 3 28 3q23 0 46 -7.5t41 -23t29.5 -38.5t11.5 -54q0 -29 -10.5 -57t-31.5 -50t-52.5 -36t-73.5 -14q-65 0 -105 32t-54 80l79 41q13 -32 34 -46.5t48 -14.5q30 0 47 16.5t17 39.5q0 22 -16.5 34.5t-51.5 12.5h-96l40 229h252z" />
    <glyph glyph-name="uni2086" unicode="&#x2086;" horiz-adv-x="374" 
d="M196 167q22 -3 42 -14t35.5 -28.5t24.5 -41t9 -51.5q0 -35 -14 -64t-37 -50t-53 -32.5t-61 -11.5q-30 0 -57 10.5t-47.5 29.5t-33 46.5t-12.5 60.5q0 40 19 71.5t51 69.5l119 135h128zM154 84q-26 0 -43.5 -17.5t-17.5 -43.5q0 -24 15.5 -40.5t38.5 -16.5q26 0 43 17.5
t17 45.5q0 25 -14.5 40t-38.5 15z" />
    <glyph glyph-name="uni2087" unicode="&#x2087;" horiz-adv-x="345" 
d="M334 270l-240 -389h-117l207 326h-157l17 90h295z" />
    <glyph glyph-name="uni2088" unicode="&#x2088;" horiz-adv-x="388" 
d="M192 305q25 0 50 -6t45 -19t32.5 -33.5t12.5 -50.5q0 -34 -18.5 -62t-59.5 -48q56 -31 56 -84q0 -21 -9.5 -43.5t-28.5 -41t-48.5 -30.5t-68.5 -12q-23 0 -51.5 5.5t-53.5 18.5t-41.5 35.5t-16.5 56.5t22 67t74 47q-17 15 -27.5 33.5t-10.5 44.5q0 22 8.5 43.5t26 39
t44 28.5t63.5 11zM211 1q0 17 -11.5 29t-34.5 25q-39 -11 -56 -23t-17 -32t15 -32.5t44 -12.5q31 0 45.5 14t14.5 32zM191 226q-21 0 -35 -12t-14 -30q0 -13 8.5 -23t28.5 -24q26 9 43.5 20.5t17.5 29.5q0 17 -14 28t-35 11z" />
    <glyph glyph-name="uni2089" unicode="&#x2089;" horiz-adv-x="374" 
d="M180 304q30 0 57 -10.5t48 -29.5t33.5 -46.5t12.5 -60.5q0 -20 -5 -37.5t-14 -34t-22.5 -33.5t-29.5 -36l-118 -135h-128l112 129q-21 3 -41 14t-35.5 28.5t-24.5 41t-9 52.5q0 35 14 64t37 50t52.5 32.5t60.5 11.5zM176 212q-26 0 -43 -17.5t-17 -45.5q0 -25 14.5 -40
t38.5 -15q26 0 43.5 17.5t17.5 43.5q0 24 -15 40.5t-39 16.5z" />
    <glyph glyph-name="uni208A" unicode="&#x208a;" horiz-adv-x="428" 
d="M238 132h130l-15 -87h-131l-24 -135h-97l24 135h-131l16 87h130l24 134h98z" />
    <glyph glyph-name="uni208B" unicode="&#x208b;" horiz-adv-x="422" 
d="M357 45h-358l15 86h359z" />
    <glyph glyph-name="uni208C" unicode="&#x208c;" horiz-adv-x="428" 
d="M337 -37h-343l15 88h344zM366 127h-343l16 87h343z" />
    <glyph glyph-name="uni208D" unicode="&#x208d;" horiz-adv-x="277" 
d="M282 356q-48 -25 -81 -63t-54 -83.5t-30.5 -95t-9.5 -97.5q0 -80 22.5 -128t55.5 -77l-47 -54q-24 15 -45 37.5t-37.5 54t-26 72.5t-9.5 92q0 61 14.5 124t43.5 118.5t72.5 98.5t102.5 64z" />
    <glyph glyph-name="uni208E" unicode="&#x208e;" horiz-adv-x="277" 
d="M87 419q24 -15 45 -37.5t37.5 -54t26 -72.5t9.5 -92q0 -61 -14.5 -124t-43.5 -118.5t-72.5 -98.5t-102.5 -64l-29 63q48 25 81 63t54 83.5t30.5 95t9.5 97.5q0 80 -22.5 128t-56.5 77z" />
    <glyph glyph-name="lira" unicode="&#x20a4;" horiz-adv-x="568" 
d="M397 168h-108q-15 -35 -42 -60h252l-19 -108h-481l6 29q60 38 95 72t52 67h-111l16 91h115q-1 16 -4 30.5t-8 28.5h-93l16 90h49q-6 24 -6 52q0 37 13.5 75t42 68t71 49t101.5 19q42 0 80 -11.5t67 -35.5t48.5 -62t24.5 -91l-117 -27q-6 48 -30 75t-68 27q-28 0 -47 -10
t-30.5 -26t-16.5 -34.5t-5 -35.5q0 -19 4 -32h175l-16 -90h-127q5 -14 7.5 -28t3.5 -31h106z" />
    <glyph glyph-name="peseta" unicode="&#x20a7;" horiz-adv-x="626" 
d="M648 366h-74q-12 -44 -38.5 -78.5t-65 -58.5t-87.5 -36.5t-106 -12.5h-59l-31 -180h-135l64 366h-78l19 109h78l33 185h156q109 0 176 -50t81 -135h87zM301 293q54 0 90 21t51 59h-190l-14 -80h63zM283 547l-14 -79h177q-11 37 -41.5 58t-80.5 21h-41z" />
    <glyph glyph-name="Euro" unicode="&#x20ac;" horiz-adv-x="676" 
d="M407 202h-154q19 -42 55 -66t88 -24q44 0 79.5 17.5t59.5 46.5l86 -77q-38 -52 -98.5 -81.5t-137.5 -29.5q-55 0 -101 15.5t-81.5 44t-59.5 68t-36 86.5h-110l17 96h82q0 14 1.5 29t3.5 31h-76l17 96h84q17 42 43.5 81t64.5 69t88 48t114 18q46 0 84.5 -10t69.5 -27
t54 -40t38 -50l-97 -69q-20 30 -58.5 51t-90.5 21q-59 0 -98 -26.5t-62 -65.5h245l-43 -96h-237q-6 -32 -6 -60h215z" />
    <glyph glyph-name="uni20AE" unicode="&#x20ae;" horiz-adv-x="587" 
d="M514 191l-170 -48l-25 -143h-135l18 103l-169 -48l20 114l169 48l11 61l-169 -48l20 114l169 47l26 147h-212l21 122h558l-21 -122h-211l-19 -107l170 48l-21 -113l-169 -48l-11 -61l170 48z" />
    <glyph glyph-name="uni20B4" unicode="&#x20b4;" horiz-adv-x="541" 
d="M525 204h-348q-1 -5 -1.5 -10.5t-0.5 -11.5q0 -70 93 -70q41 0 80.5 13.5t83.5 39.5l45 -101q-55 -38 -111.5 -57t-111.5 -19q-48 0 -88 12t-68.5 35.5t-44.5 56.5t-16 75q0 22 4 37h-39l16 94h523zM326 672q43 0 79.5 -12t62 -34t40 -53.5t14.5 -69.5q0 -29 -11 -51h58
l-16 -95h-523l16 95h330q3 8 5 15.5t2 16.5q0 35 -23 49.5t-54 14.5q-29 0 -60.5 -12t-61.5 -34l-50 99q42 35 91.5 53t100.5 18z" />
    <glyph glyph-name="uni20B8" unicode="&#x20b8;" horiz-adv-x="587" 
d="M593 353h-211l-63 -353h-135l63 353h-212l21 121h558zM625 538h-558l21 122h558z" />
    <glyph glyph-name="uni20B9" unicode="&#x20b9;" horiz-adv-x="537" 
d="M491 403h-71q-18 -64 -71.5 -106.5t-128.5 -57.5l201 -239h-161l-199 233l18 102h76q48 0 80 18t46 50h-190l17 97h175q-11 29 -38.5 44.5t-69.5 15.5h-56l17 100h401l-16 -96h-124q22 -29 28 -64h84z" />
    <glyph glyph-name="uni20BA" unicode="&#x20ba;" horiz-adv-x="538" 
d="M421 343l-183 -78l-29 -158q51 0 85 11t55 32.5t30.5 53t10.5 72.5h113q1 -9 2 -19.5t1 -24.5q0 -45 -16.5 -89t-55.5 -78.5t-104.5 -55.5t-163.5 -21q-29 0 -55.5 2t-55.5 5l36 208l-90 -38l20 114l90 38l11 61l-91 -38l20 114l91 38l30 168h136l-19 -106l181 77
l-19 -113l-182 -77l-11 -61l182 77z" />
    <glyph glyph-name="uni20BD" unicode="&#x20bd;" horiz-adv-x="599" 
d="M391 660q100 0 154.5 -49.5t54.5 -131.5q0 -47 -18 -85t-51 -64.5t-78 -41t-99 -14.5h-119l-11 -63h252l-19 -108h-253l-17 -103h-135l17 103h-78l19 108h79l11 63h-78l19 114h79l48 272h223zM283 546l-28 -158h112q46 0 70.5 23t24.5 61q0 34 -20 54t-61 20h-98z" />
    <glyph glyph-name="uni2105" unicode="&#x2105;" horiz-adv-x="831" 
d="M241 0h-113l490 660h115zM612 317q35 0 64.5 -12t51.5 -33.5t34 -50.5t11 -62q0 -36 -15 -67.5t-39.5 -54.5t-57 -36t-68.5 -13q-35 0 -64.5 12t-51 33.5t-33.5 50.5t-11 63q0 36 14.5 67.5t39 54t57 35.5t68.5 13zM272 672q52 0 88.5 -24.5t52.5 -64.5l-77 -50
q-11 19 -26 31.5t-41 12.5q-33 0 -53 -21t-20 -54q0 -30 17 -47t46 -17q26 0 42.5 11t27.5 27l66 -58q-22 -34 -57.5 -54.5t-83.5 -20.5q-35 0 -65 12t-52 33t-34.5 49.5t-12.5 61.5q0 37 14.5 68.5t39.5 54.5t58 36.5t70 13.5zM607 223q-29 0 -49.5 -21.5t-20.5 -54.5
q-1 -30 16 -47.5t43 -17.5q29 0 49.5 20.5t20.5 54.5q1 32 -16 49t-43 17z" />
    <glyph glyph-name="uni2113" unicode="&#x2113;" horiz-adv-x="496" 
d="M378 762q32 0 59.5 -7.5t47.5 -25.5t31.5 -47t11.5 -71q0 -44 -14 -87t-47 -87t-86.5 -90.5t-132.5 -97.5l-8 -47q-3 -15 -3 -31q0 -35 24 -48.5t66 -13.5q22 0 47.5 2.5t44.5 5.5l-19 -114q-20 -6 -47 -10.5t-59 -4.5q-38 0 -73 8t-61.5 26t-42.5 48t-16 74v19
q-14 -8 -29 -15.5t-30 -15.5l-42 109q35 18 66 35t59 33l43 245q19 111 74 159.5t136 48.5zM276 405q75 56 105.5 101t30.5 90q0 29 -11 41t-31 12q-26 0 -42.5 -22t-26.5 -79z" />
    <glyph glyph-name="uni2116" unicode="&#x2116;" horiz-adv-x="1121" 
d="M594 -12h-44l-310 417l-71 -405h-135l118 672h45v-2l309 -411l71 401h135zM951 565q34 0 64 -12t51.5 -33t34 -50t11.5 -63q0 -36 -15 -67.5t-39.5 -54.5t-57 -36t-68.5 -13q-35 0 -64.5 12t-51 33.5t-33.5 50.5t-11 63q0 36 14.5 67.5t39 54t57 35.5t68.5 13zM1049 84
h-324l15 85h324zM947 474q-31 0 -51 -22.5t-21 -55.5q-1 -31 16.5 -49.5t44.5 -18.5q31 0 51.5 21.5t21.5 54.5q0 32 -17.5 51t-44.5 19z" />
    <glyph glyph-name="uni2117" unicode="&#x2117;" horiz-adv-x="786" 
d="M426 672q70 0 131 -25.5t106 -69.5t71 -103.5t26 -127.5q0 -74 -29.5 -139.5t-80 -114t-117.5 -76.5t-141 -28q-71 0 -132 25.5t-106 69.5t-71 104t-26 128q0 74 30 139t80.5 113.5t117.5 76.5t141 28zM423 592q-57 0 -107.5 -21.5t-88.5 -58.5t-60 -87.5t-22 -108.5
q0 -53 18.5 -98.5t51.5 -78.5t79.5 -52t102.5 -19q65 0 116.5 24.5t87 64.5t54.5 90t19 100q0 51 -19 95.5t-52.5 78t-79.5 52.5t-100 19zM448 504q63 0 97.5 -31.5t34.5 -83.5q0 -30 -11.5 -54t-32.5 -41.5t-49.5 -26.5t-62.5 -9h-59l-19 -104h-91l62 350h131zM395 425
l-16 -88h57q26 0 39 12.5t13 33.5q0 19 -10.5 30.5t-33.5 11.5h-49z" />
    <glyph glyph-name="trademark" unicode="&#x2122;" horiz-adv-x="984" 
d="M909 211h-112l34 195l-115 -115h-36l-76 122l-35 -202h-113l80 457h36l146 -237l233 234l2 3h36zM452 559h-136l-61 -348h-112l60 348h-136l18 101h385z" />
    <glyph glyph-name="uni2126" unicode="&#x2126;" horiz-adv-x="788" 
d="M419 672q74 0 137.5 -23.5t110 -64t73 -96.5t26.5 -120q0 -32 -7 -64.5t-23 -64.5t-42 -62t-63 -55h85l-21 -122h-281l21 122q98 38 145 101t47 135q0 43 -15 77.5t-42 59.5t-64 38.5t-82 13.5q-54 0 -95.5 -18.5t-70 -50t-43.5 -72t-15 -84.5q0 -69 34.5 -118.5
t87.5 -81.5l-22 -122h-286l21 122h124q-43 38 -70 91.5t-27 116.5q0 51 21 111t65 111t111 85.5t160 34.5z" />
    <glyph glyph-name="estimated" unicode="&#x212e;" horiz-adv-x="795" 
d="M422 670q60 0 120 -20.5t107 -58.5t76.5 -91.5t29.5 -118.5q0 -11 -0.5 -20t-1.5 -17q-1 -9 -2 -17h-544v-198q34 -47 89 -75.5t130 -28.5q82 0 147.5 33.5t107.5 83.5l26 -23q-48 -60 -120 -94.5t-160 -34.5q-75 0 -138.5 26t-110 71.5t-72.5 107t-26 131.5
q0 73 27.5 135.5t74.5 109t109 73t131 26.5zM427 634q-72 0 -128.5 -28t-91.5 -76v-168h421v183q-37 43 -87.5 66t-113.5 23z" />
    <glyph glyph-name="uni2150" unicode="&#x2150;" horiz-adv-x="983" 
d="M260 334h86l-15 -90h-288l16 90h101l41 236h-92l15 90h193zM328 0h-111l493 660h112zM992 390l-240 -389h-117l207 326h-157l17 90h295z" />
    <glyph glyph-name="uni2151" unicode="&#x2151;" horiz-adv-x="981" 
d="M260 334h86l-15 -90h-288l16 90h101l41 236h-92l15 90h193zM328 0h-111l493 660h112zM807 424q30 0 57 -10.5t48 -29.5t33.5 -46.5t12.5 -60.5q0 -20 -5 -37.5t-14 -34t-22.5 -33.5t-29.5 -36l-118 -135h-128l112 129q-21 3 -41 14t-35.5 28.5t-24.5 41t-9 52.5
q0 35 14 64t37 50t52.5 32.5t60.5 11.5zM803 332q-26 0 -43 -17.5t-17 -45.5q0 -25 14.5 -40t38.5 -15q26 0 43.5 17.5t17.5 43.5q0 24 -15 40.5t-39 16.5z" />
    <glyph glyph-name="uni2152" unicode="&#x2152;" horiz-adv-x="1428" 
d="M260 334h86l-15 -90h-288l16 90h101l41 236h-92l15 90h193zM328 0h-111l493 660h112zM1245 425q37 0 63.5 -11.5t43.5 -32.5t25.5 -50.5t8.5 -64.5q0 -25 -4.5 -55.5t-14.5 -60.5t-25.5 -58.5t-38.5 -50.5t-53.5 -35t-69.5 -13q-36 0 -63 12t-44.5 33.5t-26 51t-8.5 65.5
q0 38 10.5 85t34.5 88t63.5 69t98.5 28zM1231 333q-27 0 -44.5 -19t-28 -46t-14.5 -56.5t-4 -51.5q0 -41 14.5 -58t37.5 -17q27 0 44.5 19.5t28 47.5t15 57.5t4.5 50.5q0 39 -15 56t-38 17zM854 91h86l-15 -90h-288l16 90h101l41 236h-92l15 90h193z" />
    <glyph glyph-name="uni2153" unicode="&#x2153;" horiz-adv-x="997" 
d="M260 334h86l-15 -90h-288l16 90h101l41 236h-92l15 90h193zM328 0h-111l493 660h112zM981 390l-109 -130q30 -14 51 -43.5t21 -70.5q0 -26 -10 -53.5t-30.5 -49.5t-51.5 -36t-73 -14q-65 0 -103 32t-52 80l78 41q15 -33 33 -47t44 -14q33 0 48 17t15 39t-15.5 34.5
t-52.5 12.5h-55l4 25l96 114h-123l16 90h274z" />
    <glyph glyph-name="uni2154" unicode="&#x2154;" horiz-adv-x="1011" 
d="M243 668q34 0 61 -10.5t45.5 -28.5t28.5 -42t10 -51q0 -24 -8 -45t-23.5 -42t-39 -43.5t-54.5 -48.5l-28 -23h127l-16 -90l-311 -1l4 21l176 160q38 35 54.5 59t16.5 46t-13 34.5t-34 12.5q-29 0 -41 -21t-12 -50v-10h-100q-1 5 -1 8.5v6.5q0 28 9.5 56.5t29 51t49 36.5
t70.5 14zM342 0h-111l493 660h112zM995 390l-109 -130q30 -14 51 -43.5t21 -70.5q0 -26 -10 -53.5t-30.5 -49.5t-51.5 -36t-73 -14q-65 0 -103 32t-52 80l78 41q15 -33 33 -47t44 -14q33 0 48 17t15 39t-15.5 34.5t-52.5 12.5h-55l4 25l96 114h-123l16 90h274z" />
    <glyph glyph-name="uni2155" unicode="&#x2155;" horiz-adv-x="999" 
d="M260 334h86l-15 -90h-288l16 90h101l41 236h-92l15 90h193zM328 0h-111l493 660h112zM957 327h-156l-10 -57q13 3 28 3q23 0 46 -7.5t41 -23t29.5 -38.5t11.5 -54q0 -29 -10.5 -57t-31.5 -50t-52.5 -36t-73.5 -14q-65 0 -105 32t-54 80l79 41q13 -32 34 -46.5t48 -14.5
q30 0 47 16.5t17 39.5q0 22 -16.5 34.5t-51.5 12.5h-96l40 229h252z" />
    <glyph glyph-name="uni2156" unicode="&#x2156;" horiz-adv-x="1013" 
d="M243 668q34 0 61 -10.5t45.5 -28.5t28.5 -42t10 -51q0 -24 -8 -45t-23.5 -42t-39 -43.5t-54.5 -48.5l-28 -23h127l-16 -90l-311 -1l4 21l176 160q38 35 54.5 59t16.5 46t-13 34.5t-34 12.5q-29 0 -41 -21t-12 -50v-10h-100q-1 5 -1 8.5v6.5q0 28 9.5 56.5t29 51t49 36.5
t70.5 14zM342 0h-111l493 660h112zM971 327h-156l-10 -57q13 3 28 3q23 0 46 -7.5t41 -23t29.5 -38.5t11.5 -54q0 -29 -10.5 -57t-31.5 -50t-52.5 -36t-73.5 -14q-65 0 -105 32t-54 80l79 41q13 -32 34 -46.5t48 -14.5q30 0 47 16.5t17 39.5q0 22 -16.5 34.5t-51.5 12.5h-96
l40 229h252z" />
    <glyph glyph-name="uni2157" unicode="&#x2157;" horiz-adv-x="954" 
d="M387 633l-109 -130q30 -14 51 -43.5t21 -70.5q0 -26 -10 -53.5t-30.5 -49.5t-51.5 -36t-73 -14q-65 0 -103 32t-52 80l78 41q15 -33 33 -47t44 -14q33 0 48 17t15 39t-15.5 34.5t-52.5 12.5h-55l4 25l96 114h-123l16 90h274zM283 0h-111l493 660h112zM912 327h-156
l-10 -57q13 3 28 3q23 0 46 -7.5t41 -23t29.5 -38.5t11.5 -54q0 -29 -10.5 -57t-31.5 -50t-52.5 -36t-73.5 -14q-65 0 -105 32t-54 80l79 41q13 -32 34 -46.5t48 -14.5q30 0 47 16.5t17 39.5q0 22 -16.5 34.5t-51.5 12.5h-96l40 229h252z" />
    <glyph glyph-name="uni2158" unicode="&#x2158;" horiz-adv-x="1013" 
d="M342 394h49l-15 -86h-49l-11 -64h-93l11 64h-211l5 27l170 326h111l-142 -267h82l18 105h93zM342 0h-111l493 660h112zM971 327h-156l-10 -57q13 3 28 3q23 0 46 -7.5t41 -23t29.5 -38.5t11.5 -54q0 -29 -10.5 -57t-31.5 -50t-52.5 -36t-73.5 -14q-65 0 -105 32t-54 80
l79 41q13 -32 34 -46.5t48 -14.5q30 0 47 16.5t17 39.5q0 22 -16.5 34.5t-51.5 12.5h-96l40 229h252z" />
    <glyph glyph-name="uni2159" unicode="&#x2159;" horiz-adv-x="931" 
d="M260 334h86l-15 -90h-288l16 90h101l41 236h-92l15 90h193zM328 0h-111l493 660h112zM773 287q22 -3 42 -14t35.5 -28.5t24.5 -41t9 -51.5q0 -35 -14 -64t-37 -50t-53 -32.5t-61 -11.5q-30 0 -57 10.5t-47.5 29.5t-33 46.5t-12.5 60.5q0 40 19 71.5t51 69.5l119 135h128z
M731 204q-26 0 -43.5 -17.5t-17.5 -43.5q0 -24 15.5 -40.5t38.5 -16.5q26 0 43 17.5t17 45.5q0 25 -14.5 40t-38.5 15z" />
    <glyph glyph-name="uni215A" unicode="&#x215a;" horiz-adv-x="896" 
d="M371 570h-156l-10 -57q13 3 28 3q23 0 46 -7.5t41 -23t29.5 -38.5t11.5 -54q0 -29 -10.5 -57t-31.5 -50t-52.5 -36t-73.5 -14q-65 0 -105 32t-54 80l79 41q13 -32 34 -46.5t48 -14.5q30 0 47 16.5t17 39.5q0 22 -16.5 34.5t-51.5 12.5h-96l40 229h252zM293 0h-111
l493 660h112zM738 287q22 -3 42 -14t35.5 -28.5t24.5 -41t9 -51.5q0 -35 -14 -64t-37 -50t-53 -32.5t-61 -11.5q-30 0 -57 10.5t-47.5 29.5t-33 46.5t-12.5 60.5q0 40 19 71.5t51 69.5l119 135h128zM696 204q-26 0 -43.5 -17.5t-17.5 -43.5q0 -24 15.5 -40.5t38.5 -16.5
q26 0 43 17.5t17 45.5q0 25 -14.5 40t-38.5 15z" />
    <glyph glyph-name="oneeighth" unicode="&#x215b;" horiz-adv-x="980" 
d="M260 334h86l-15 -90h-288l16 90h101l41 236h-92l15 90h193zM328 0h-111l493 660h112zM805 425q25 0 50 -6t45 -19t32.5 -33.5t12.5 -50.5q0 -34 -18.5 -62t-59.5 -48q56 -31 56 -84q0 -21 -9.5 -43.5t-28.5 -41t-48.5 -30.5t-68.5 -12q-23 0 -51.5 5.5t-53.5 18.5
t-41.5 35.5t-16.5 56.5t22 67t74 47q-17 15 -27.5 33.5t-10.5 44.5q0 22 8.5 43.5t26 39t44 28.5t63.5 11zM824 121q0 17 -11.5 29t-34.5 25q-39 -11 -56 -23t-17 -32t15 -32.5t44 -12.5q31 0 45.5 14t14.5 32zM804 346q-21 0 -35 -12t-14 -30q0 -13 8.5 -23t28.5 -24
q26 9 43.5 20.5t17.5 29.5q0 17 -14 28t-35 11z" />
    <glyph glyph-name="threeeighths" unicode="&#x215c;" horiz-adv-x="935" 
d="M387 633l-109 -130q30 -14 51 -43.5t21 -70.5q0 -26 -10 -53.5t-30.5 -49.5t-51.5 -36t-73 -14q-65 0 -103 32t-52 80l78 41q15 -33 33 -47t44 -14q33 0 48 17t15 39t-15.5 34.5t-52.5 12.5h-55l4 25l96 114h-123l16 90h274zM283 0h-111l493 660h112zM760 425q25 0 50 -6
t45 -19t32.5 -33.5t12.5 -50.5q0 -34 -18.5 -62t-59.5 -48q56 -31 56 -84q0 -21 -9.5 -43.5t-28.5 -41t-48.5 -30.5t-68.5 -12q-23 0 -51.5 5.5t-53.5 18.5t-41.5 35.5t-16.5 56.5t22 67t74 47q-17 15 -27.5 33.5t-10.5 44.5q0 22 8.5 43.5t26 39t44 28.5t63.5 11zM779 121
q0 17 -11.5 29t-34.5 25q-39 -11 -56 -23t-17 -32t15 -32.5t44 -12.5q31 0 45.5 14t14.5 32zM759 346q-21 0 -35 -12t-14 -30q0 -13 8.5 -23t28.5 -24q26 9 43.5 20.5t17.5 29.5q0 17 -14 28t-35 11z" />
    <glyph glyph-name="fiveeighths" unicode="&#x215d;" horiz-adv-x="945" 
d="M371 570h-156l-10 -57q13 3 28 3q23 0 46 -7.5t41 -23t29.5 -38.5t11.5 -54q0 -29 -10.5 -57t-31.5 -50t-52.5 -36t-73.5 -14q-65 0 -105 32t-54 80l79 41q13 -32 34 -46.5t48 -14.5q30 0 47 16.5t17 39.5q0 22 -16.5 34.5t-51.5 12.5h-96l40 229h252zM293 0h-111
l493 660h112zM770 425q25 0 50 -6t45 -19t32.5 -33.5t12.5 -50.5q0 -34 -18.5 -62t-59.5 -48q56 -31 56 -84q0 -21 -9.5 -43.5t-28.5 -41t-48.5 -30.5t-68.5 -12q-23 0 -51.5 5.5t-53.5 18.5t-41.5 35.5t-16.5 56.5t22 67t74 47q-17 15 -27.5 33.5t-10.5 44.5q0 22 8.5 43.5
t26 39t44 28.5t63.5 11zM789 121q0 17 -11.5 29t-34.5 25q-39 -11 -56 -23t-17 -32t15 -32.5t44 -12.5q31 0 45.5 14t14.5 32zM769 346q-21 0 -35 -12t-14 -30q0 -13 8.5 -23t28.5 -24q26 9 43.5 20.5t17.5 29.5q0 17 -14 28t-35 11z" />
    <glyph glyph-name="seveneighths" unicode="&#x215e;" horiz-adv-x="857" 
d="M398 633l-240 -389h-117l207 326h-157l17 90h295zM205 0h-111l493 660h112zM682 425q25 0 50 -6t45 -19t32.5 -33.5t12.5 -50.5q0 -34 -18.5 -62t-59.5 -48q56 -31 56 -84q0 -21 -9.5 -43.5t-28.5 -41t-48.5 -30.5t-68.5 -12q-23 0 -51.5 5.5t-53.5 18.5t-41.5 35.5
t-16.5 56.5t22 67t74 47q-17 15 -27.5 33.5t-10.5 44.5q0 22 8.5 43.5t26 39t44 28.5t63.5 11zM701 121q0 17 -11.5 29t-34.5 25q-39 -11 -56 -23t-17 -32t15 -32.5t44 -12.5q31 0 45.5 14t14.5 32zM681 346q-21 0 -35 -12t-14 -30q0 -13 8.5 -23t28.5 -24q26 9 43.5 20.5
t17.5 29.5q0 17 -14 28t-35 11z" />
    <glyph glyph-name="arrowleft" unicode="&#x2190;" horiz-adv-x="650" 
d="M619 264h-305l-68 3l159 -159l-79 -79l-279 278v26l279 279l79 -80l-157 -157l66 3h305v-114z" />
    <glyph glyph-name="arrowup" unicode="&#x2191;" horiz-adv-x="650" 
d="M635 324l-79 -80l-153 153l3 -64v-293h-122v293l2 64l-152 -153l-80 80l278 278h26z" />
    <glyph glyph-name="arrowright" unicode="&#x2192;" horiz-adv-x="650" 
d="M631 333v-26l-279 -278l-79 79l159 159l-69 -3h-305v114h305l66 -3l-156 157l79 80z" />
    <glyph glyph-name="arrowdown" unicode="&#x2193;" horiz-adv-x="650" 
d="M395 308l-3 -64l153 153l79 -79l-277 -279h-26l-278 279l80 79l152 -153l-2 64v294h122v-294z" />
    <glyph glyph-name="arrowboth" unicode="&#x2194;" horiz-adv-x="947" 
d="M405 532l-157 -157l66 3h347l65 -3l-156 157l79 80l279 -279v-26l-279 -278l-79 79l159 159l-68 -3h-347l-68 3l159 -159l-79 -79l-279 278v26l279 279z" />
    <glyph glyph-name="arrowupdn" unicode="&#x2195;" horiz-adv-x="650" 
d="M627 458l-79 -79l-149 149l3 -64v-268l-3 -64l149 149l79 -79l-273 -275h-26l-274 275l80 79l148 -149l-2 64v268l2 64l-148 -149l-80 79l274 275h26z" />
    <glyph glyph-name="arrowupleft" unicode="&#x2196;" horiz-adv-x="650" 
d="M530 417h-231l48 -43l236 -237l-83 -83l-235 236l-39 42v-230h-118v410l18 18h404v-113z" />
    <glyph glyph-name="arrowupright" unicode="&#x2197;" horiz-adv-x="650" 
d="M546 512v-410h-118v230l-39 -42l-235 -236l-83 83l236 237l47 43h-230v113h404z" />
    <glyph glyph-name="arrowdownright" unicode="&#x2198;" horiz-adv-x="650" 
d="M404 332l40 -44v232h118v-410l-18 -19h-404v114h229l-47 43l-236 237l83 83z" />
    <glyph glyph-name="arrowdownleft" unicode="&#x2199;" horiz-adv-x="650" 
d="M587 485l-236 -237l-48 -43h231v-114h-404l-18 19v410h118v-231l39 43l235 236z" />
    <glyph glyph-name="partialdiff" unicode="&#x2202;" horiz-adv-x="615" 
d="M358 672q54 0 98 -18t75.5 -51.5t48.5 -81t17 -105.5q0 -38 -8 -85t-25.5 -94.5t-44.5 -92.5t-64.5 -79.5t-86.5 -55.5t-109 -21q-44 0 -84 12.5t-70 36.5t-47.5 59.5t-17.5 82.5q0 39 14 80t44.5 74.5t79 55t117.5 21.5q48 0 88.5 -9.5t75.5 -22.5q1 9 1.5 18.5
t0.5 17.5q0 38 -8.5 64t-23.5 42t-36 23t-46 7q-39 0 -68.5 -15.5t-59.5 -44.5l-75 78q38 47 91.5 75.5t122.5 28.5zM270 107q32 0 58.5 13t47 35.5t35.5 51t25 60.5q-39 13 -74 19t-61 6q-34 0 -57.5 -8.5t-37.5 -22.5t-20.5 -31.5t-6.5 -36.5q0 -40 24 -63t67 -23z" />
    <glyph glyph-name="uni2206" unicode="&#x2206;" horiz-adv-x="661" 
d="M607 0h-634l413 672h44zM197 122h238l-70 277z" />
    <glyph glyph-name="product" unicode="&#x220f;" horiz-adv-x="700" 
d="M561 -121h-135l117 659h-279l-117 -659h-135l138 781h549z" />
    <glyph glyph-name="summation" unicode="&#x2211;" horiz-adv-x="561" 
d="M561 538h-276l108 -242l-5 -29l-189 -266h279l-22 -122h-493l5 29l276 389l-148 334l5 29h481z" />
    <glyph glyph-name="minus" unicode="&#x2212;" 
d="M519 263h-471l20 115h472z" />
    <glyph glyph-name="uni2219" unicode="&#x2219;" horiz-adv-x="270" 
d="M150 413q39 0 65.5 -27t26.5 -66q0 -40 -26.5 -66.5t-65.5 -26.5q-41 0 -67.5 26.5t-26.5 66.5q0 39 26.5 66t67.5 27z" />
    <glyph glyph-name="radical" unicode="&#x221a;" horiz-adv-x="652" 
d="M226 -133h-45v309h-163v108h272v-96l327 562h122z" />
    <glyph glyph-name="infinity" unicode="&#x221e;" horiz-adv-x="876" 
d="M254 518q38 0 68.5 -9.5t55.5 -25t45 -36.5t38 -43q22 22 46 43t51 36.5t58 25t66 9.5q44 0 79 -15t59.5 -40.5t37.5 -58.5t13 -70q0 -36 -13.5 -74t-40.5 -68.5t-68.5 -50.5t-97.5 -20q-38 0 -68.5 9.5t-55 25t-44.5 36t-37 43.5q-22 -23 -46 -43.5t-51 -36t-57.5 -25
t-66.5 -9.5q-45 0 -81 15t-60.5 40t-37.5 58t-13 70q0 36 13 74t40.5 69t69 51t98.5 20zM243 239q38 0 72 24t68 59q-25 32 -53.5 54.5t-69.5 22.5q-40 0 -68.5 -22t-28.5 -64q0 -20 7 -34t18.5 -23t25.5 -13t29 -4zM661 399q-39 0 -73 -23.5t-66 -57.5q26 -34 54.5 -56.5
t69.5 -22.5q38 0 66.5 22.5t28.5 63.5q0 39 -24.5 56.5t-55.5 17.5z" />
    <glyph glyph-name="integral" unicode="&#x222b;" horiz-adv-x="359" 
d="M344 789q31 0 55.5 -5t50.5 -14l-19 -110q-16 2 -30 4t-29 2q-61 0 -85.5 -35.5t-24.5 -118.5v-365q0 -57 -9.5 -108t-34.5 -88.5t-67 -59.5t-106 -22q-30 0 -55 5t-51 14l20 110q31 -6 59 -6q59 0 84 35.5t25 119.5v365q0 57 9.5 107.5t34.5 88t66.5 59.5t106.5 22z" />
    <glyph glyph-name="approxequal" unicode="&#x2248;" 
d="M195 551q27 0 50 -9.5t46 -24.5l77 -51q17 -11 30.5 -18.5t25.5 -7.5q18 0 26 14.5t12 37.5h103q-6 -85 -40 -130.5t-92 -45.5q-27 0 -50 9.5t-46 24.5l-77 51q-17 11 -30.5 18t-26.5 7q-18 0 -25.5 -14t-11.5 -37h-103q6 85 40 130.5t92 45.5zM155 323q27 0 50 -9.5
t46 -24.5l77 -51q17 -11 30.5 -18.5t25.5 -7.5q18 0 26 14.5t12 37.5h103q-6 -85 -40 -130.5t-92 -45.5q-27 0 -50 9.5t-46 24.5l-77 51q-17 11 -30.5 18t-26.5 7q-18 0 -25.5 -14t-11.5 -37h-103q6 85 40 130.5t92 45.5z" />
    <glyph glyph-name="notequal" unicode="&#x2260;" 
d="M490 156h-251l-70 -100h-120l70 100h-80l20 114h140l71 101h-193l20 114h253l69 98h120l-69 -98h78l-20 -114h-138l-71 -101h191z" />
    <glyph glyph-name="lessequal" unicode="&#x2264;" 
d="M537 440l-252 -85l221 -85l-19 -108l-433 181l6 36l496 181zM458 0h-451l19 106h451z" />
    <glyph glyph-name="greaterequal" unicode="&#x2265;" 
d="M548 379l-6 -36l-496 -181l20 120l246 84l-216 86l19 108zM469 0h-451l18 106h451z" />
    <glyph glyph-name="uni24EA" unicode="&#x24ea;" horiz-adv-x="982" 
d="M507 762q90 0 168.5 -34t137 -92.5t92.5 -137.5t34 -168t-34 -168t-92.5 -137.5t-137 -92.5t-168.5 -34q-89 0 -167.5 34t-137 92.5t-92.5 137t-34 168.5t34 168.5t92.5 137t137 92.5t167.5 34zM507 562q46 0 81 -17.5t57.5 -48.5t34 -72.5t11.5 -90.5t-11.5 -92t-34 -75
t-57.5 -50.5t-81 -18.5q-47 0 -81 18.5t-57 50.5t-34 75t-11 92t11.5 90.5t34 72.5t57 48.5t80.5 17.5zM507 462q-72 0 -72 -130q0 -66 17.5 -100.5t54.5 -34.5t54.5 34.5t17.5 100.5q0 130 -72 130zM507 660q-68 0 -127.5 -25t-103.5 -69t-69.5 -104.5t-25.5 -131.5
t25.5 -131.5t69.5 -104.5t103.5 -69t127.5 -25t127.5 25t103.5 69t69.5 104.5t25.5 131.5t-25.5 131.5t-69.5 104.5t-103.5 69t-127.5 25z" />
    <glyph glyph-name="uni24FF" unicode="&#x24ff;" horiz-adv-x="982" 
d="M507 762q90 0 168.5 -34t137 -92.5t92.5 -137.5t34 -168t-34 -168t-92.5 -137.5t-137 -92.5t-168.5 -34q-89 0 -167.5 34t-137 92.5t-92.5 137t-34 168.5t34 168.5t92.5 137t137 92.5t167.5 34zM507 562q-46 0 -80.5 -17.5t-57.5 -48.5t-34.5 -72.5t-11.5 -90.5t11 -92
t34 -75t57.5 -50.5t81.5 -18.5q46 0 81 18.5t57.5 50.5t34 75t11.5 92t-11.5 90.5t-34 72.5t-57.5 48.5t-81 17.5zM507 460q71 0 71 -128q0 -133 -71 -133q-70 0 -70 133q0 128 70 128z" />
    <glyph glyph-name="uni25A0" unicode="&#x25a0;" horiz-adv-x="730" 
d="M656 55h-550v550h550v-550z" />
    <glyph glyph-name="uni25A1" unicode="&#x25a1;" horiz-adv-x="730" 
d="M656 55h-550v550h550v-550zM223 493v-326h316v326h-316z" />
    <glyph glyph-name="uni25AA" unicode="&#x25aa;" horiz-adv-x="541" 
d="M463 58h-381v380h381v-380z" />
    <glyph glyph-name="uni25AB" unicode="&#x25ab;" horiz-adv-x="541" 
d="M463 58h-381v380h381v-380zM191 332v-169h162v169h-162z" />
    <glyph glyph-name="uni25B2" unicode="&#x25b2;" horiz-adv-x="730" 
d="M686 71l-9 -16h-671l-9 16l336 589h18z" />
    <glyph glyph-name="uni25B3" unicode="&#x25b3;" horiz-adv-x="730" 
d="M686 71l-9 -16h-671l-9 16l336 589h18zM185 170h312l-156 272z" />
    <glyph glyph-name="uni25B4" unicode="&#x25b4;" horiz-adv-x="528" 
d="M476 74l-9 -16h-460l-9 16l230 403h18z" />
    <glyph glyph-name="uni25B5" unicode="&#x25b5;" horiz-adv-x="528" 
d="M476 74l-9 -16h-460l-9 16l230 403h18zM150 145h174l-87 153z" />
    <glyph glyph-name="uni25B6" unicode="&#x25b6;" horiz-adv-x="645" 
d="M638 339v-18l-516 -333l-16 9v666l16 9z" />
    <glyph glyph-name="uni25B7" unicode="&#x25b7;" horiz-adv-x="645" 
d="M638 339v-18l-516 -333l-16 9v666l16 9zM223 470v-281l218 140z" />
    <glyph glyph-name="uni25B8" unicode="&#x25b8;" horiz-adv-x="480" 
d="M449 257v-18l-353 -226l-16 8v454l16 9z" />
    <glyph glyph-name="uni25B9" unicode="&#x25b9;" horiz-adv-x="489" 
d="M458 257v-18l-353 -226l-16 8v454l16 9zM179 327v-157l123 78z" />
    <glyph glyph-name="uni25BA" unicode="&#x25ba;" horiz-adv-x="970" 
d="M957 339v-18l-825 -333l-16 9v666l16 9z" />
    <glyph glyph-name="uni25BB" unicode="&#x25bb;" horiz-adv-x="970" 
d="M957 339v-18l-825 -333l-16 9v666l16 9zM233 506v-353l437 177z" />
    <glyph glyph-name="uni25BC" unicode="&#x25bc;" horiz-adv-x="730" 
d="M766 589.004l-9 15.999h-671l-9 -15.999l336 -588.964h18z" />
    <glyph glyph-name="uni25BD" unicode="&#x25bd;" horiz-adv-x="730" 
d="M765 589l-335 -589h-18l-336 589l9 16h671zM421 217l156 273h-312z" />
    <glyph glyph-name="uni25BE" unicode="&#x25be;" horiz-adv-x="528" 
d="M532 422l-230 -403h-18l-230 403l9 16h460z" />
    <glyph glyph-name="uni25BF" unicode="&#x25bf;" horiz-adv-x="528" 
d="M532 422l-230 -403h-18l-230 403l9 16h460zM293 197l87 153h-174z" />
    <glyph glyph-name="uni25C0" unicode="&#x25c0;" horiz-adv-x="645" 
d="M571 663v-666l-16 -9l-516 333v18l516 333z" />
    <glyph glyph-name="uni25C1" unicode="&#x25c1;" horiz-adv-x="645" 
d="M39.0391 339v-18l515.969 -333l15.999 9v666l-15.999 9zM454.014 470v-281l-217.986 140z" />
    <glyph glyph-name="uni25C2" unicode="&#x25c2;" horiz-adv-x="480" 
d="M403 475v-454l-16 -8l-353 226v18l353 227z" />
    <glyph glyph-name="uni25C3" unicode="&#x25c3;" horiz-adv-x="480" 
d="M403 475v-454l-16 -8l-353 226v18l353 227zM313 170v157l-123 -79z" />
    <glyph glyph-name="uni25C4" unicode="&#x25c4;" horiz-adv-x="970" 
d="M885 663v-666l-16 -9l-825 333v18l825 333z" />
    <glyph glyph-name="uni25C5" unicode="&#x25c5;" horiz-adv-x="970" 
d="M885 663v-666l-16 -9l-825 333v18l825 333zM768 153v353l-438 -176z" />
    <glyph glyph-name="lozenge" unicode="&#x25ca;" horiz-adv-x="665" 
d="M578 330l-213 -342h-45l-213 342l213 342h45zM343 492l-101 -162l104 -164l98 164z" />
    <glyph glyph-name="uni25CB" unicode="&#x25cb;" horiz-adv-x="775" 
d="M405 659q67 0 127 -26t104.5 -71t70.5 -104.5t26 -126.5q0 -68 -26 -128t-70.5 -105t-104.5 -71.5t-127 -26.5t-127 26t-105.5 71t-72 105t-26.5 128q0 67 26.5 127t71.5 105t105 71t128 26zM405 546q-45 0 -84 -17t-68.5 -46t-46 -68.5t-16.5 -84.5t16.5 -84.5t45.5 -69
t68 -46.5t84 -17t83.5 17t67.5 46.5t45.5 69.5t16.5 85t-16.5 84t-45 68.5t-67.5 46t-83 16.5z" />
    <glyph glyph-name="uni25CF" unicode="&#x25cf;" horiz-adv-x="775" 
d="M405 659q67 0 127 -26t104.5 -71t70.5 -104.5t26 -126.5q0 -68 -26 -128t-70.5 -105t-104.5 -71.5t-127 -26.5t-127 26t-105.5 71t-72 105t-26.5 128q0 67 26.5 127t71.5 105t105 71t128 26z" />
    <glyph glyph-name="pointingindexleftwhite" unicode="&#x261c;" horiz-adv-x="1210" 
d="M1155 537l-52 -178l89 -73v-36l-89 -74l52 -177l-33 -23l-235 146q-47 -24 -96 -43.5t-95.5 -33t-89.5 -20.5t-79 -7q-65 0 -92 20.5t-27 51.5q0 23 14 37q-20 7 -33 21.5t-13 36.5q0 16 7 27.5t18 19.5q-37 16 -37 53q0 21 12 35l-179 3q-83 2 -122 25.5t-39 76.5
q0 30 12.5 48.5t37 29t60 14.5t82.5 4q38 0 79 -2t84 -6q1 24 10 42t22.5 29.5t30.5 17.5t35 6q36 0 74 -23l248 -151q20 -6 38 -11.5t35 -11.5l238 149zM469 223q-16 0 -16 -16t16 -16h120v-65q-17 -2 -37.5 -4t-37.5 -2h-13q-6 0 -10.5 -4t-4.5 -11t5.5 -12t19.5 -5
q28 0 69.5 7t89 20.5t96.5 33t93 43.5v150q-58 23 -134.5 42.5t-164.5 33.5t-183.5 21.5t-191.5 7.5q-38 0 -51.5 -5.5t-13.5 -19.5q0 -13 13.5 -18.5t45.5 -7.5l108 -3q94 -1 163 -3.5t116 -6.5v-65l-108 1q-17 0 -17 -15q0 -16 15 -16h121v-65h-108zM940 178l107 -65
l-30 97l76 58l-76 58l30 97l-107 -65v-180zM511 530q-25 0 -29 -27q32 -5 63 -9.5t62 -10.5l-69 39q-14 8 -27 8z" />
    <glyph glyph-name="pointingindexrightwhite" unicode="&#x261e;" horiz-adv-x="1214" 
d="M364 411q17 6 35 11.5t38 11.5l248 151q38 23 74 23q17 0 34 -6t31 -17.5t23 -29.5t10 -42q43 4 83.5 6t78.5 2q47 0 83 -4t60.5 -14.5t37 -29t12.5 -48.5q0 -53 -39 -76.5t-123 -25.5l-179 -3q5 -8 8.5 -16t3.5 -19q0 -20 -9.5 -32.5t-26.5 -19.5q26 -18 26 -48
q0 -23 -13.5 -37t-33.5 -22q13 -15 13 -36q0 -31 -27 -51.5t-91 -20.5q-36 0 -79.5 7t-90 20.5t-95 32.5t-95.5 43l-233 -145l-34 23l51 177l-88 74v36l88 73l-51 178l34 23zM762 105q0 13 -13 15h-14q-17 0 -37.5 2t-37.5 4v65h120q16 0 16 16q0 6 -4.5 10.5t-9.5 5.5h-111
v65h120q16 0 16 16q0 15 -17 15l-108 -1v65q47 4 116 6.5t163 3.5l107 3q33 2 46 7.5t13 18.5t-13 19t-48 6q-98 0 -194 -7.5t-184 -21.5t-164.5 -33.5t-134.5 -42.5v-150q43 -24 92.5 -43.5t97 -33t89.5 -20.5t71 -7q13 0 18 5t5 12zM201 112l107 65v181l-107 65l30 -97
l-76 -58l76 -58zM640 483q32 6 62.5 10.5t62.5 9.5q-5 27 -28 27q-13 0 -27 -8z" />
    <glyph glyph-name="heartsuitwhite" unicode="&#x2661;" horiz-adv-x="860" 
d="M649 672q39 0 74.5 -14t61.5 -40t41.5 -62t15.5 -80q0 -25 -6 -48t-18.5 -47t-33 -50.5t-50.5 -58.5l-259 -284h-21l-260 284q-29 32 -49.5 58.5t-33.5 50.5t-18.5 47t-5.5 48q0 44 15.5 80t41.5 62t61.5 40t74.5 14q66 0 114.5 -36t69.5 -92q21 56 70 92t115 36z
M622 544q-25 0 -45 -12.5t-35 -33t-26 -48t-17 -57.5h-69q-6 30 -17 57.5t-26.5 48t-35.5 33t-45 12.5q-33 0 -55.5 -21t-22.5 -59q0 -35 19.5 -63.5t47.5 -60.5l169 -190l169 190q29 32 48.5 60.5t19.5 63.5q0 38 -23 59t-56 21z" />
    <glyph glyph-name="heartsuitblack" unicode="&#x2665;" horiz-adv-x="860" 
d="M649 672q39 0 74.5 -14t61.5 -40t41.5 -62t15.5 -80q0 -25 -6 -48t-18.5 -47t-33 -50.5t-50.5 -58.5l-259 -284h-21l-260 284q-29 32 -49.5 58.5t-33.5 50.5t-18.5 47t-5.5 48q0 44 15.5 80t41.5 62t61.5 40t74.5 14q66 0 114.5 -36t69.5 -92q21 56 70 92t115 36z" />
    <glyph glyph-name="uni275B" unicode="&#x275b;" horiz-adv-x="635" 
d="M411 672q69 0 119 -20t96 -57l-62 -84q-35 27 -70.5 40.5t-79.5 13.5q-57 0 -102.5 -21.5t-77.5 -57.5t-49 -82t-17 -95q0 -28 4 -48q11 35 33 64.5t51.5 50.5t64.5 33t73 12q44 0 81.5 -16t65.5 -43.5t43.5 -65.5t15.5 -81q0 -45 -17 -86t-48.5 -72.5t-77 -50
t-101.5 -18.5q-65 0 -120.5 24.5t-96.5 67t-64.5 99.5t-23.5 122q0 58 20 123t63.5 120t112 91.5t164.5 36.5z" />
    <glyph glyph-name="uni275C" unicode="&#x275c;" horiz-adv-x="635" 
d="M311 672q64 0 120 -24.5t97 -67t64.5 -99.5t23.5 -122q0 -58 -20.5 -123t-64 -120t-112 -91.5t-164.5 -36.5q-69 0 -119 20t-95 57l61 84q35 -27 71 -40.5t80 -13.5q57 0 102 21.5t77 57.5t49 82t17 95q0 12 -1 23.5t-3 22.5q-12 -35 -33.5 -64t-51 -50t-64.5 -32.5
t-72 -11.5q-44 0 -81.5 16t-65.5 43.5t-43.5 65t-15.5 81.5q0 45 17 86t48.5 72.5t76.5 50t102 18.5z" />
    <glyph glyph-name="uni275D" unicode="&#x275d;" horiz-adv-x="1248" 
d="M1024 672q69 0 119 -20t96 -57l-62 -84q-35 27 -70.5 40.5t-79.5 13.5q-57 0 -102.5 -21.5t-77.5 -57.5t-49 -82t-17 -95q0 -28 4 -48q11 35 33 64.5t51.5 50.5t64.5 33t73 12q44 0 81.5 -16t65.5 -43.5t43.5 -65.5t15.5 -81q0 -45 -17 -86t-48.5 -72.5t-77 -50
t-101.5 -18.5q-65 0 -120.5 24.5t-96.5 67t-64.5 99.5t-23.5 122q0 58 20 123t63.5 120t112 91.5t164.5 36.5zM411 672q69 0 119 -20t96 -57l-62 -84q-35 27 -70.5 40.5t-79.5 13.5q-57 0 -102.5 -21.5t-77.5 -57.5t-49 -82t-17 -95q0 -28 4 -48q11 35 33 64.5t51.5 50.5
t64.5 33t73 12q44 0 81.5 -16t65.5 -43.5t43.5 -65.5t15.5 -81q0 -45 -17 -86t-48.5 -72.5t-77 -50t-101.5 -18.5q-65 0 -120.5 24.5t-96.5 67t-64.5 99.5t-23.5 122q0 58 20 123t63.5 120t112 91.5t164.5 36.5z" />
    <glyph glyph-name="uni275E" unicode="&#x275e;" horiz-adv-x="1258" 
d="M311 672q64 0 120 -24.5t97 -67t64.5 -99.5t23.5 -122q0 -58 -20.5 -123t-64 -120t-112 -91.5t-164.5 -36.5q-69 0 -119 20t-95 57l61 84q35 -27 71 -40.5t80 -13.5q57 0 102 21.5t77 57.5t49 82t17 95q0 12 -1 23.5t-3 22.5q-12 -35 -33.5 -64t-51 -50t-64.5 -32.5
t-72 -11.5q-44 0 -81.5 16t-65.5 43.5t-43.5 65t-15.5 81.5q0 45 17 86t48.5 72.5t76.5 50t102 18.5zM934 672q64 0 120 -24.5t97 -67t64.5 -99.5t23.5 -122q0 -58 -20.5 -123t-64 -120t-112 -91.5t-164.5 -36.5q-69 0 -119 20t-95 57l61 84q35 -27 71 -40.5t80 -13.5
q57 0 102 21.5t77 57.5t49 82t17 95q0 12 -1 23.5t-3 22.5q-12 -35 -33.5 -64t-51 -50t-64.5 -32.5t-72 -11.5q-44 0 -81.5 16t-65.5 43.5t-43.5 65t-15.5 81.5q0 45 17 86t48.5 72.5t76.5 50t102 18.5z" />
    <glyph glyph-name="uni2776" unicode="&#x2776;" horiz-adv-x="982" 
d="M507 762q90 0 168.5 -34t137 -92.5t92.5 -137.5t34 -168t-34 -168t-92.5 -137.5t-137 -92.5t-168.5 -34q-89 0 -167.5 34t-137 92.5t-92.5 137t-34 168.5t34 168.5t92.5 137t137 92.5t167.5 34zM369 554v-93h87v-263h-93v-93h289v93h-85v356h-198z" />
    <glyph glyph-name="uni2777" unicode="&#x2777;" horiz-adv-x="982" 
d="M507 762q90 0 168.5 -34t137 -92.5t92.5 -137.5t34 -168t-34 -168t-92.5 -137.5t-137 -92.5t-168.5 -34q-89 0 -167.5 34t-137 92.5t-92.5 137t-34 168.5t34 168.5t92.5 137t137 92.5t167.5 34zM504 562q-38 0 -69 -13t-52.5 -34t-33.5 -49t-12 -58q0 -19 4 -38h101
q-1 8 -1.5 15.5t-0.5 13.5q0 26 15 43.5t44 17.5q25 0 40 -14.5t15 -40.5t-16 -49t-43 -53l-156 -176v-23h341v94h-150l57 62q32 34 56.5 71t24.5 84q0 32 -12.5 59t-34.5 46.5t-52 30.5t-65 11z" />
    <glyph glyph-name="uni2778" unicode="&#x2778;" horiz-adv-x="982" 
d="M507 762q90 0 168.5 -34t137 -92.5t92.5 -137.5t34 -168t-34 -168t-92.5 -137.5t-137 -92.5t-168.5 -34q-89 0 -167.5 34t-137 92.5t-92.5 137t-34 168.5t34 168.5t92.5 137t137 92.5t167.5 34zM362 554v-100h134l-84 -122v-28h62q81 0 81 -51q0 -26 -18.5 -40t-45.5 -14
q-29 0 -48.5 14.5t-39.5 43.5l-77 -54q23 -48 66 -77t103 -29q36 0 68 11.5t55.5 32.5t37 49.5t13.5 63.5q0 54 -30 88t-71 47l94 136v29h-300z" />
    <glyph glyph-name="uni2779" unicode="&#x2779;" horiz-adv-x="982" 
d="M507 762q90 0 168.5 -34t137 -92.5t92.5 -137.5t34 -168t-34 -168t-92.5 -137.5t-137 -92.5t-168.5 -34q-89 0 -167.5 34t-137 92.5t-92.5 137t-34 168.5t34 168.5t92.5 137t137 92.5t167.5 34zM429 554l-127 -352v-30h225v-67h111v67h53v97h-53v103h-111v-103h-91
l111 285h-118z" />
    <glyph glyph-name="uni277A" unicode="&#x277a;" horiz-adv-x="982" 
d="M507 762q90 0 168.5 -34t137 -92.5t92.5 -137.5t34 -168t-34 -168t-92.5 -137.5t-137 -92.5t-168.5 -34q-89 0 -167.5 34t-137 92.5t-92.5 137t-34 168.5t34 168.5t92.5 137t137 92.5t167.5 34zM377 554v-250h106q81 0 81 -50q0 -27 -19.5 -41.5t-48.5 -14.5t-50 15
t-41 44l-77 -54q23 -48 67 -77t106 -29q37 0 69.5 11.5t56.5 32.5t37.5 50t13.5 64t-13.5 62t-35 45t-48.5 27.5t-54 9.5q-25 0 -45 -4v59h169v100h-274z" />
    <glyph glyph-name="uni277B" unicode="&#x277b;" horiz-adv-x="982" 
d="M507 762q90 0 168.5 -34t137 -92.5t92.5 -137.5t34 -168t-34 -168t-92.5 -137.5t-137 -92.5t-168.5 -34q-89 0 -167.5 34t-137 92.5t-92.5 137t-34 168.5t34 168.5t92.5 137t137 92.5t167.5 34zM496 324q26 0 44 -17.5t18 -44.5t-18 -45t-43 -18q-26 0 -43.5 18.5
t-17.5 45.5q0 26 17 43.5t43 17.5zM499 554l-112 -151q-29 -40 -45 -70.5t-16 -70.5q0 -36 14 -66.5t37.5 -52.5t54.5 -34t64 -12q34 0 65 12t55 34t38 52t14 66q0 52 -28 89.5t-68 51.5q-25 9 -47 8l106 144h-132z" />
    <glyph glyph-name="uni277C" unicode="&#x277c;" horiz-adv-x="982" 
d="M507 762q90 0 168.5 -34t137 -92.5t92.5 -137.5t34 -168t-34 -168t-92.5 -137.5t-137 -92.5t-168.5 -34q-89 0 -167.5 34t-137 92.5t-92.5 137t-34 168.5t34 168.5t92.5 137t137 92.5t167.5 34zM356 554v-101h176l-169 -348h121l195 420v29h-323z" />
    <glyph glyph-name="uni277D" unicode="&#x277d;" horiz-adv-x="982" 
d="M507 762q90 0 168.5 -34t137 -92.5t92.5 -137.5t34 -168t-34 -168t-92.5 -137.5t-137 -92.5t-168.5 -34q-89 0 -167.5 34t-137 92.5t-92.5 137t-34 168.5t34 168.5t92.5 137t137 92.5t167.5 34zM507 299q28 -11 46 -24.5t18 -39.5q0 -22 -15.5 -36.5t-47.5 -14.5
q-33 0 -49 14.5t-16 37.5q0 25 18 38.5t46 24.5zM508 562q-33 0 -61 -8t-48.5 -23.5t-32.5 -38.5t-12 -53q0 -34 17 -59t46 -43q-38 -16 -60.5 -42.5t-22.5 -66.5q0 -31 13.5 -55t36.5 -41t55 -26t69 -9t68.5 9t55 26t36.5 41t13 55q0 40 -22 67t-60 43q30 18 46.5 43
t16.5 59q0 30 -12 52.5t-32.5 38t-48.5 23.5t-61 8zM508 475q22 0 36.5 -11t14.5 -32q0 -20 -14.5 -31.5t-37.5 -21.5q-23 10 -36 21.5t-13 31.5t14 31.5t36 11.5z" />
    <glyph glyph-name="uni277E" unicode="&#x277e;" horiz-adv-x="982" 
d="M508 762q89 0 167.5 -34t137 -92.5t92.5 -137t34 -168.5t-34 -168.5t-92.5 -137t-137 -92.5t-167.5 -34q-90 0 -168.5 34t-137 92.5t-92.5 137.5t-34 168t34 168t92.5 137.5t137 92.5t168.5 34zM518 563q-34 0 -65 -12t-55 -34t-38 -52t-14 -66q0 -52 28 -89.5t69 -51.5
q24 -9 47 -8l-107 -144h132l112 151q29 40 45 70.5t16 70.5q0 36 -14 66.5t-37.5 52.5t-54 34t-64.5 12zM517 461q26 0 43.5 -18.5t17.5 -45.5q0 -26 -17 -43.5t-43 -17.5t-44 17.5t-18 44.5t18 45t43 18z" />
    <glyph glyph-name="uni2780" unicode="&#x2780;" horiz-adv-x="982" 
d="M507 762q90 0 168.5 -34t137 -92.5t92.5 -137.5t34 -168t-34 -168t-92.5 -137.5t-137 -92.5t-168.5 -34q-89 0 -167.5 34t-137 92.5t-92.5 137t-34 168.5t34 168.5t92.5 137t137 92.5t167.5 34zM507 657q-68 0 -127 -24.5t-103 -68t-69 -103.5t-25 -131t25 -131
t69 -103.5t103 -68t127 -24.5t127 24.5t102.5 68.5t68.5 103.5t25 130.5q0 70 -25 130t-68.5 104t-102.5 68.5t-127 24.5zM567 198h85v-93h-289v93h93v263h-87v93h198v-356z" />
    <glyph glyph-name="uni2781" unicode="&#x2781;" horiz-adv-x="982" 
d="M507 762q90 0 168.5 -34t137 -92.5t92.5 -137.5t34 -168t-34 -168t-92.5 -137.5t-137 -92.5t-168.5 -34q-89 0 -167.5 34t-137 92.5t-92.5 137t-34 168.5t34 168.5t92.5 137t137 92.5t167.5 34zM507 657q-68 0 -127 -24.5t-103 -68t-69 -103.5t-25 -131t25 -131
t69 -103.5t103 -68t127 -24.5t127 24.5t102.5 68.5t68.5 103.5t25 130.5q0 70 -25 130t-68.5 104t-102.5 68.5t-127 24.5zM504 562q35 0 65 -11t52 -30.5t34.5 -46.5t12.5 -59q0 -47 -24.5 -84t-56.5 -71l-57 -62h150v-94h-341v23l156 176q27 30 43 53t16 49t-15 40.5
t-40 14.5q-29 0 -44 -17.5t-15 -43.5q0 -6 0.5 -13.5t1.5 -15.5h-101q-4 19 -4 38q0 30 12 58t33.5 49t52.5 34t69 13z" />
    <glyph glyph-name="uni2782" unicode="&#x2782;" horiz-adv-x="982" 
d="M507 762q90 0 168.5 -34t137 -92.5t92.5 -137.5t34 -168t-34 -168t-92.5 -137.5t-137 -92.5t-168.5 -34q-89 0 -167.5 34t-137 92.5t-92.5 137t-34 168.5t34 168.5t92.5 137t137 92.5t167.5 34zM662 525l-94 -136q41 -13 71 -47t30 -88q0 -35 -13.5 -63.5t-37 -49.5
t-55.5 -32.5t-68 -11.5q-60 0 -103 29t-66 77l77 54q20 -29 39.5 -43.5t48.5 -14.5q27 0 45.5 14t18.5 40q0 51 -81 51h-62v28l84 122h-134v100h300v-29zM507 657q-68 0 -127 -24.5t-103 -68t-69 -103.5t-25 -131t25 -131t69 -103.5t103 -68t127 -24.5t127 24.5t102.5 68.5
t68.5 103.5t25 130.5q0 70 -25 130t-68.5 104t-102.5 68.5t-127 24.5z" />
    <glyph glyph-name="uni2783" unicode="&#x2783;" horiz-adv-x="982" 
d="M507 762q90 0 168.5 -34t137 -92.5t92.5 -137.5t34 -168t-34 -168t-92.5 -137.5t-137 -92.5t-168.5 -34q-89 0 -167.5 34t-137 92.5t-92.5 137t-34 168.5t34 168.5t92.5 137t137 92.5t167.5 34zM436 269h91v103h111v-103h53v-97h-53v-67h-111v67h-225v30l127 352h118z
M507 657q-68 0 -127 -24.5t-103 -68t-69 -103.5t-25 -131t25 -131t69 -103.5t103 -68t127 -24.5t127 24.5t102.5 68.5t68.5 103.5t25 130.5q0 70 -25 130t-68.5 104t-102.5 68.5t-127 24.5z" />
    <glyph glyph-name="uni2784" unicode="&#x2784;" horiz-adv-x="982" 
d="M507 762q90 0 168.5 -34t137 -92.5t92.5 -137.5t34 -168t-34 -168t-92.5 -137.5t-137 -92.5t-168.5 -34q-89 0 -167.5 34t-137 92.5t-92.5 137t-34 168.5t34 168.5t92.5 137t137 92.5t167.5 34zM651 454h-168v-59q20 4 44 4q27 0 54.5 -9.5t49 -27.5t35 -45t13.5 -62
t-14 -64t-38 -50t-56.5 -32.5t-69.5 -11.5q-62 0 -106 29t-67 77l77 54q20 -29 41 -44t50 -15t48.5 14.5t19.5 41.5q0 50 -80 50h-107v250h274v-100zM507 657q-68 0 -127 -24.5t-103 -68t-69 -103.5t-25 -131t25 -131t69 -103.5t103 -68t127 -24.5t127 24.5t102.5 68.5
t68.5 103.5t25 130.5q0 70 -25 130t-68.5 104t-102.5 68.5t-127 24.5z" />
    <glyph glyph-name="uni2785" unicode="&#x2785;" horiz-adv-x="982" 
d="M507 762q90 0 168.5 -34t137 -92.5t92.5 -137.5t34 -168t-34 -168t-92.5 -137.5t-137 -92.5t-168.5 -34q-89 0 -167.5 34t-137 92.5t-92.5 137t-34 168.5t34 168.5t92.5 137t137 92.5t167.5 34zM496 324q-26 0 -43 -17.5t-17 -43.5q0 -27 17.5 -45.5t43.5 -18.5
q25 0 43 18t18 45t-18 44.5t-44 17.5zM525 410q22 1 47 -8q40 -14 68 -51.5t28 -89.5q0 -36 -14 -66t-38 -52t-55 -34t-65 -12q-33 0 -64 12t-54.5 34t-37.5 52.5t-14 66.5q0 40 16 70.5t45 70.5l112 151h132zM507 657q-68 0 -127 -24.5t-103 -68t-69 -103.5t-25 -131
t25 -131t69 -103.5t103 -68t127 -24.5t127 24.5t102.5 68.5t68.5 103.5t25 130.5q0 70 -25 130t-68.5 104t-102.5 68.5t-127 24.5z" />
    <glyph glyph-name="uni2786" unicode="&#x2786;" horiz-adv-x="982" 
d="M507 762q90 0 168.5 -34t137 -92.5t92.5 -137.5t34 -168t-34 -168t-92.5 -137.5t-137 -92.5t-168.5 -34q-89 0 -167.5 34t-137 92.5t-92.5 137t-34 168.5t34 168.5t92.5 137t137 92.5t167.5 34zM507 657q-68 0 -127 -24.5t-103 -68t-69 -103.5t-25 -131t25 -131
t69 -103.5t103 -68t127 -24.5t127 24.5t102.5 68.5t68.5 103.5t25 130.5q0 70 -25 130t-68.5 104t-102.5 68.5t-127 24.5zM679 525l-195 -420h-121l169 348h-176v101h323v-29z" />
    <glyph glyph-name="uni2787" unicode="&#x2787;" horiz-adv-x="982" 
d="M507 762q90 0 168.5 -34t137 -92.5t92.5 -137.5t34 -168t-34 -168t-92.5 -137.5t-137 -92.5t-168.5 -34q-89 0 -167.5 34t-137 92.5t-92.5 137t-34 168.5t34 168.5t92.5 137t137 92.5t167.5 34zM507 299q-28 -11 -46 -24.5t-18 -38.5q0 -23 16 -37.5t49 -14.5
q32 0 47.5 14.5t15.5 36.5q0 26 -18 39.5t-46 24.5zM508 562q33 0 61 -8t48.5 -23.5t32.5 -38t12 -52.5q0 -34 -16.5 -59t-46.5 -43q38 -16 60 -43t22 -67q0 -31 -13 -55t-36.5 -41t-55 -26t-68.5 -9t-69 9t-55 26t-36.5 41t-13.5 55q0 40 22.5 66.5t60.5 42.5
q-29 18 -46 43t-17 59q0 30 12 53t32.5 38.5t48.5 23.5t61 8zM507 657q-68 0 -127 -24.5t-103 -68t-69 -103.5t-25 -131t25 -131t69 -103.5t103 -68t127 -24.5t127 24.5t102.5 68.5t68.5 103.5t25 130.5q0 70 -25 130t-68.5 104t-102.5 68.5t-127 24.5zM508 475
q-22 0 -36 -11.5t-14 -31.5t13 -31.5t36 -21.5q23 10 37.5 21.5t14.5 31.5q0 21 -14.5 32t-36.5 11z" />
    <glyph glyph-name="uni2788" unicode="&#x2788;" horiz-adv-x="982" 
d="M508 762q89 0 167.5 -34t137 -92.5t92.5 -137t34 -168.5t-34 -168.5t-92.5 -137t-137 -92.5t-167.5 -34q-90 0 -168.5 34t-137 92.5t-92.5 137.5t-34 168t34 168t92.5 137.5t137 92.5t168.5 34zM507 657q-68 0 -127 -24.5t-103 -68.5t-69 -104t-25 -130q0 -71 25 -130.5
t69 -103.5t103 -68.5t127 -24.5t127 24.5t102.5 68t68.5 103.5t25 131t-25 131t-68.5 103.5t-102.5 68t-127 24.5zM518 563q34 0 64.5 -12t54 -34t37.5 -52.5t14 -66.5q0 -40 -16 -70.5t-45 -70.5l-112 -151h-132l107 144q-23 -1 -47 8q-41 14 -69 51.5t-28 89.5q0 36 14 66
t38 52t55 34t65 12zM517 461q-25 0 -43 -18t-18 -45t18 -44.5t44 -17.5t43 17.5t17 43.5q0 27 -17.5 45.5t-43.5 18.5z" />
    <glyph glyph-name="uni27F5" unicode="&#x27f5;" horiz-adv-x="1208" 
d="M1177 264h-863l-68 3l159 -159l-79 -79l-279 278v26l279 279l79 -80l-157 -157l66 3h863v-114z" />
    <glyph glyph-name="uni27F6" unicode="&#x27f6;" horiz-adv-x="1208" 
d="M1189 333v-26l-279 -278l-79 79l159 159l-69 -3h-863v114h863l66 -3l-156 157l79 80z" />
    <glyph glyph-name="uniF8FF" unicode="&#xf8ff;" horiz-adv-x="722" 
d="M99 660h524v-660h-524v660zM231 202q-2 26 -2 45v36q0 50 6 87.5t17 69.5q24 13 51 20q-24 -62 -40.5 -126.5t-24.5 -131.5h-7zM458 123q37 0 58.5 23t21.5 53q0 26 -16.5 55t-45.5 46l-24 -25q21 -20 33 -38t12 -38q0 -17 -9.5 -28t-27.5 -11q-11 0 -21 6t-21.5 21
t-24.5 40t-30 63q43 25 70 44t42.5 35.5t21 31t5.5 29.5q0 40 -27.5 61t-74.5 21q-8 0 -16.5 -0.5t-16.5 -1.5l26 55l-41 7l-33 -71q-26 -5 -52.5 -15t-50.5 -21q-14 -38 -18.5 -80t-4.5 -81q0 -51 6 -90t14 -68l42 -8q11 55 21 99.5t21 83.5t23.5 75t29.5 76q11 2 21.5 3
t19.5 1q70 0 70 -50q0 -12 -5 -22.5t-20 -24t-42.5 -31.5t-72.5 -44l-1 -6q18 -45 33 -78t31 -54.5t33.5 -32t40.5 -10.5z" />
    <glyph glyph-name="uni0414.loclBGR" horiz-adv-x="769" 
d="M680 -141h-135l25 141h-454l-25 -141h-135l46 263h94l343 550h44l148 -550h95zM249 122h245l-73 279z" />
    <glyph glyph-name="uni041B.loclBGR" horiz-adv-x="661" 
d="M607 0h-140l-101 405l-240 -405h-153l413 672h44z" />
    <glyph glyph-name="uni0410.ordn" horiz-adv-x="429" 
d="M420 244h-106l-10 46h-151l-25 -46h-117l262 424h34zM194 366h94l-26 119z" />
    <glyph glyph-name="uni0413.ordn" horiz-adv-x="350" 
d="M390 566h-173l-56 -322h-104l73 416h276z" />
    <glyph glyph-name="uni0415.ordn" horiz-adv-x="380" 
d="M399 566h-182l-12 -65h138l-14 -81h-137l-15 -83h190l-17 -93h-293l73 416h286z" />
    <glyph glyph-name="uni0419.ordn" horiz-adv-x="484" 
d="M429 244h-104l39 220l-274 -228h-34l75 424h103l-39 -218l274 226h34zM451 817q-5 -49 -37.5 -82.5t-86.5 -33.5q-50 0 -79 29t-29 74v13h82v-7q0 -32 31 -32q32 0 38 39h81z" />
    <glyph glyph-name="uni041C.ordn" horiz-adv-x="531" 
d="M475 244h-103l30 174l-98 -97h-33l-77 117l-33 -194h-104l74 424h34l137 -218l214 218h33z" />
    <glyph glyph-name="uni041E.ordn" horiz-adv-x="505" 
d="M305 668q45 0 83 -15.5t65.5 -42.5t43 -64t15.5 -80q0 -48 -19 -90t-51.5 -73t-75.5 -49t-92 -18q-45 0 -83 15t-65.5 42t-43 64t-15.5 81q0 48 19 90t51.5 73t75.5 49t92 18zM298 572q-26 0 -48.5 -10t-39.5 -27t-27 -41t-10 -51q0 -51 30.5 -80.5t78.5 -29.5
q26 0 48.5 9.5t39.5 26.5t26.5 40.5t9.5 51.5q0 51 -30.5 81t-77.5 30z" />
    <glyph glyph-name="uni0423.ordn" horiz-adv-x="419" 
d="M288 337q-30 -52 -68.5 -76t-92.5 -24q-18 0 -36 2.5t-34 7.5l16 89q12 -2 22 -2.5t16 -0.5q18 0 35.5 5t31.5 18l-90 304h109l54 -197l115 197h116z" />
    <glyph glyph-name="uni0425.ordn" horiz-adv-x="389" 
d="M244 543l81 117h127l-160 -215l95 -201h-110l-58 123l-89 -123h-127l170 222l-89 194h110z" />
    <glyph glyph-name="uni042B.ordn" horiz-adv-x="582" 
d="M210 529h48q72 0 112.5 -36t40.5 -98q0 -35 -13.5 -63t-38 -47.5t-57.5 -30t-72 -10.5h-173l73 416h104zM195 437l-18 -102h71q26 0 41.5 14t15.5 40q0 23 -12.5 35.5t-35.5 12.5h-62zM554 244h-104l73 416h104z" />
    <glyph glyph-name="uni042E.ordn" horiz-adv-x="684" 
d="M207 506h55q11 35 32 64.5t50.5 51t65 33.5t75.5 12q45 0 82.5 -15t65 -42t43 -64t15.5 -80q0 -49 -19 -91t-51 -73t-75.5 -48.5t-91.5 -17.5q-42 0 -77 13t-61 36.5t-42.5 56t-20.5 71.5h-63l-29 -169h-104l73 416h104zM477 571q-26 0 -49 -9.5t-39.5 -27t-26 -41
t-9.5 -50.5q0 -51 30 -80.5t77 -29.5q27 0 49.5 9.5t39.5 26.5t26.5 40.5t9.5 51.5q0 51 -30 80.5t-78 29.5z" />
    <glyph glyph-name="uni042F.ordn" horiz-adv-x="425" 
d="M369 244h-102l20 112h-25h-13.5t-13.5 1l-92 -113h-125l123 151q-44 38 -44 103q0 38 15 68t41 51t61.5 32t76.5 11h151zM271 570q-30 0 -49 -17.5t-19 -46.5q0 -27 15.5 -43t43.5 -16h40l21 123h-52z" />
    <glyph glyph-name="uni0409.ss01" horiz-adv-x="964" 
d="M492 433h196q112 0 173.5 -55t61.5 -147q0 -53 -20.5 -95.5t-57 -72.5t-87.5 -46.5t-112 -16.5h-179l-101 404l-240 -404h-153l413 672h44zM523 315l52 -196h92q57 0 87 28.5t30 75.5q0 42 -24.5 67t-73.5 25h-163z" />
    <glyph glyph-name="uni0432.loclBGR" horiz-adv-x="596" 
d="M366 762q35 0 71 -8.5t65.5 -28t48.5 -51.5t19 -78q0 -55 -29 -107t-89 -84q48 -22 76.5 -64t28.5 -102q0 -43 -15.5 -87.5t-47.5 -81t-80.5 -59.5t-114.5 -23q-39 0 -80.5 10t-75.5 34.5t-56 65t-22 102.5q0 29 6 59l49 284q20 108 85.5 163.5t160.5 55.5zM217 342
l-16 -92q-3 -17 -3 -31q0 -54 28 -81.5t76 -27.5q33 0 55.5 12t36.5 30.5t20.5 41.5t6.5 44q0 49 -30 76.5t-87 27.5h-87zM236 452h68q34 0 58.5 10t40.5 26.5t24 37t8 40.5q0 38 -23 56t-56 18q-37 0 -66 -23.5t-38 -76.5z" />
    <glyph glyph-name="uni0491.loclBGR" horiz-adv-x="456" 
d="M330 482q42 -14 66 -44.5t24 -78.5q0 -59 -40.5 -95t-121.5 -64l-60 -20q-30 -10 -44 -19t-14 -26q0 -20 17.5 -28.5t43.5 -8.5q76 0 148 55l53 -86q-37 -36 -87.5 -57.5t-110.5 -21.5q-28 0 -61.5 6t-63 22.5t-49 44.5t-19.5 72q0 63 44 99t125 62l59 19q28 9 39.5 17.5
t11.5 23.5q0 18 -15 25t-40 7q-61 0 -112 -35l-51 87q57 44 125 54l23 132h135z" />
    <glyph glyph-name="uni0436.loclBGR" horiz-adv-x="845" 
d="M645 254l151 -254h-149l-153 261l-46 -261h-135l45 258l-226 -258h-167l241 271l-140 214h151l144 -213l84 478h135l-84 -479l200 214h170z" />
    <glyph glyph-name="uni0437.loclBGR" horiz-adv-x="512" 
d="M250 497q51 0 88 -14t62 -38t37 -56t12 -68q0 -47 -21.5 -88t-69.5 -69q35 -25 52.5 -59.5t17.5 -76.5q0 -35 -13.5 -74t-41.5 -71.5t-71 -53.5t-102 -21q-64 0 -122.5 28.5t-101.5 85.5l80 79q25 -29 58.5 -50t77.5 -21q27 0 46.5 9t32 23t18.5 31t6 33q0 35 -26 59.5
t-71 24.5h-86l19 114h78q59 0 83 24t24 56t-20.5 53t-65.5 21q-32 0 -62.5 -10.5t-53.5 -27.5l-49 93q44 37 93 50.5t92 13.5z" />
    <glyph glyph-name="uni0438.loclBGR" horiz-adv-x="580" 
d="M509 192q-9 -51 -30.5 -89t-53 -63.5t-71 -38.5t-83.5 -13q-47 0 -86 14t-67.5 39.5t-44.5 61.5t-16 80q0 12 1.5 24t3.5 24l43 254h135l-47 -272q-1 -5 -1.5 -11t-0.5 -12q0 -36 24.5 -58t62.5 -22q34 0 62 20.5t36 63.5l50 291h134z" />
    <glyph glyph-name="uni0439.loclBGR" horiz-adv-x="580" 
d="M509 192q-9 -51 -30.5 -89t-53 -63.5t-71 -38.5t-83.5 -13q-47 0 -86 14t-67.5 39.5t-44.5 61.5t-16 80q0 12 1.5 24t3.5 24l43 254h135l-47 -272q-1 -5 -1.5 -11t-0.5 -12q0 -36 24.5 -58t62.5 -22q34 0 62 20.5t36 63.5l50 291h134zM554 748q-5 -37 -19.5 -68.5
t-38.5 -55t-56 -36.5t-71 -13q-37 0 -67 11.5t-51 32t-32.5 48.5t-11.5 61v11t1 9h106v-9q0 -30 16.5 -47t45.5 -17q28 0 47.5 18t24.5 55h106z" />
    <glyph glyph-name="uni045D.loclBGR" horiz-adv-x="580" 
d="M509 192q-9 -51 -30.5 -89t-53 -63.5t-71 -38.5t-83.5 -13q-47 0 -86 14t-67.5 39.5t-44.5 61.5t-16 80q0 12 1.5 24t3.5 24l43 254h135l-47 -272q-1 -5 -1.5 -11t-0.5 -12q0 -36 24.5 -58t62.5 -22q34 0 62 20.5t36 63.5l50 291h134zM369 571h-94l-71 185l8 24h151z" />
    <glyph glyph-name="uni043A.loclBGR" horiz-adv-x="564" 
d="M213 280l209 205h163l-223 -221l152 -264h-148l-154 273l-48 -273h-135l132 750h135z" />
    <glyph glyph-name="uni045C.loclBGR" horiz-adv-x="564" 
d="M671 756l-169 -185h-106l109 209h170zM213 280l209 205h163l-223 -221l152 -264h-148l-154 273l-48 -273h-135l132 750h135z" />
    <glyph glyph-name="uni043B.loclBGR" horiz-adv-x="557" 
d="M512 0h-141l-78 267l-169 -267h-148l333 496h44z" />
    <glyph glyph-name="uni0447.loclBGR" horiz-adv-x="561" 
d="M450 0h-135l23 132q-14 -2 -28.5 -3.5t-31.5 -1.5q-48 0 -89 13t-70.5 38.5t-46.5 62.5t-17 84q0 11 1 23t3 26l20 111h134l-18 -108q-2 -10 -3 -19.5t-1 -17.5q0 -31 11.5 -49.5t28.5 -28t36.5 -12.5t36.5 -3q14 0 27.5 1.5t27.5 3.5l41 233h134z" />
    <glyph glyph-name="uni044E.loclBGR" horiz-adv-x="860" 
d="M219 311h90q13 41 39 75t60.5 59t76 38.5t86.5 13.5q53 0 99 -18.5t80 -51.5t53.5 -77.5t19.5 -95.5q0 -57 -23 -105.5t-61.5 -84t-89.5 -56t-106 -20.5q-49 0 -91 16t-74 43.5t-52.5 66t-26.5 83.5h-100l-34 -197h-135l132 750h135zM564 375q-29 0 -53.5 -11t-43 -30.5
t-29 -45t-10.5 -55.5q0 -27 8.5 -50t24.5 -39t38 -25t48 -9q29 0 54 10.5t44 29.5t29.5 44t10.5 55q0 28 -9 51t-25 39.5t-38.5 26t-48.5 9.5z" />
    <glyph glyph-name="uni0431.loclSRB" horiz-adv-x="591" 
d="M551 637h-229q-10 0 -16.5 -4t-6.5 -13q0 -8 5 -14t16 -17l138 -146q42 -45 68 -91.5t26 -105.5q0 -53 -22 -100t-59.5 -82t-87.5 -55t-106 -20q-51 0 -95.5 17t-77 47.5t-51 72t-18.5 90.5t18.5 92t50.5 76t74.5 53.5t89.5 25.5l-50 55q-28 31 -44 58t-16 61
q0 28 11.5 49t31 35.5t45 21.5t54.5 7h271zM302 349q-27 0 -50.5 -10t-40.5 -27.5t-27 -40.5t-10 -50q-1 -51 30 -82t81 -31q27 0 50 9.5t40.5 27t28 40.5t11.5 50q0 25 -8.5 46t-23.5 36t-36 23.5t-45 8.5z" />
    <glyph glyph-name="uni0433.loclSRB" horiz-adv-x="269" 
d="M160 0h-135l85 485h135zM330 622h-257l19 107h257z" />
    <glyph glyph-name="uni0453.loclSRB" horiz-adv-x="269" 
d="M160 0h-135l85 485h135zM419 756l-169 -185h-106l109 209h170z" />
    <glyph glyph-name="uni0434.loclSRB" horiz-adv-x="628" 
d="M304 497q57 0 96 -19t61 -50l10 57h135l-79 -453q-10 -58 -35.5 -100.5t-62.5 -70t-82 -40.5t-94 -13q-69 0 -134 26.5t-117 85.5l81 89q37 -38 78.5 -58.5t91.5 -20.5q53 0 92 25t48 81l4 24q-29 -24 -65 -35t-74 -11q-49 0 -89.5 16.5t-69.5 45t-45 67.5t-16 84
q0 44 16 92t49 87.5t83 65t118 25.5zM314 382q-30 0 -55.5 -11.5t-43.5 -31t-28.5 -44.5t-10.5 -53q0 -49 31 -83t87 -34q32 0 57.5 12t43 31.5t27.5 45t10 51.5q0 53 -33.5 85t-84.5 32z" />
    <glyph glyph-name="uni0438.loclSRB" horiz-adv-x="597" 
d="M485 0h-134l42 241l-216 -172l-12 -69h-135l85 485h135l-44 -247l217 171l13 76h134z" />
    <glyph glyph-name="uni043F.loclSRB" horiz-adv-x="583" 
d="M475 0h-123l7 43q-26 -25 -61 -40t-78 -15q-38 0 -69 12t-53 34t-34.5 52.5t-12.5 67.5q0 23 6 56l48 275h135l-47 -265q-2 -12 -3 -20.5t-1 -16.5q0 -38 22.5 -58t60.5 -20t66.5 22t36.5 66l51 292h134zM508 621h-302l19 107h302z" />
    <glyph glyph-name="uni0442.loclSRB" horiz-adv-x="890" 
d="M783 0h-124l7 42q-26 -25 -60.5 -39.5t-77.5 -14.5q-47 0 -83 18t-57 51q-30 -31 -72.5 -50t-94.5 -19q-80 0 -125 46t-45 120q0 23 6 56l48 275h135l-48 -269q-3 -20 -3 -33q0 -37 21 -57.5t58 -20.5t64.5 22t35.5 66l51 292h135l-48 -270q-3 -18 -3 -32q0 -37 21 -57.5
t58 -20.5t64.5 22t35.5 66l51 292h135zM797 621h-572l19 107h572z" />
    <glyph glyph-name="uni0448.loclSRB" horiz-adv-x="890" 
d="M784 0h-124l7 42q-26 -25 -60.5 -39.5t-77.5 -14.5q-47 0 -83 18t-57 51q-30 -31 -72.5 -50t-94.5 -19q-80 0 -125 46t-45 120q0 23 6 56l48 275h135l-48 -269q-3 -20 -3 -33q0 -37 21 -57.5t58 -20.5t64.5 22t35.5 66l51 292h135l-48 -270q-3 -18 -3 -32q0 -37 21 -57.5
t58 -20.5t64.5 22t35.5 66l51 292h135zM652 -205h-572l19 106h572z" />
    <glyph glyph-name="uni0430.ordn" horiz-adv-x="422" 
d="M225 565q33 0 56.5 -11t37.5 -29l6 34h103l-56 -315h-91l3 30q-35 -37 -90 -37q-32 0 -57 12t-42.5 32t-27 46.5t-9.5 55.5t10 61t30.5 59t52 44.5t74.5 17.5zM235 473q-31 0 -52 -23t-21 -55q-1 -29 17.5 -47.5t46.5 -18.5q30 0 50.5 22t21.5 53t-17 50t-46 19z" />
    <glyph glyph-name="uni0433.ordn" horiz-adv-x="297" 
d="M196 565q55 0 83.5 -25t28.5 -65t-28.5 -65t-82.5 -43l-36 -12q-14 -5 -20.5 -9.5t-6.5 -12.5q0 -10 7.5 -14t19.5 -4q23 0 47.5 10t47.5 25l40 -63q-24 -24 -58 -37.5t-73 -13.5q-18 0 -40.5 3.5t-42 14t-32.5 29t-13 48.5q0 39 27 62.5t84 40.5l34 11q26 8 26 22
q0 16 -25 16q-17 0 -36.5 -6.5t-35.5 -16.5l-35 69q29 19 60 27.5t60 8.5z" />
    <glyph glyph-name="uni0435.ordn" horiz-adv-x="379" 
d="M239 565q65 0 103.5 -36.5t38.5 -91.5q0 -19 -4.5 -36t-9.5 -31h-208q12 -48 76 -48q24 0 44.5 7t41.5 20l35 -69q-60 -43 -130 -43q-38 0 -68.5 11.5t-52.5 32.5t-34 49.5t-12 61.5q0 36 14 67.5t38 55t57 37t71 13.5zM231 486q-26 0 -44 -14.5t-26 -38.5h123
q-1 29 -16 41t-37 12z" />
    <glyph glyph-name="uni0439.ordn" horiz-adv-x="399" 
d="M349 244h-94l4 24q-16 -14 -37 -22.5t-47 -8.5q-47 1 -76.5 30t-29.5 77q0 9 1.5 19.5t3.5 22.5l30 173h103l-29 -162q-3 -18 -3 -25q0 -20 12 -31t31 -11q20 0 34 12.5t18 35.5l32 181h103zM399 716q-5 -49 -38 -82.5t-87 -33.5q-49 0 -78 29t-29 74v13h82v-6
q0 -7 8 -20t23 -13q31 0 37 39h82z" />
    <glyph glyph-name="uni043C.ordn" horiz-adv-x="461" 
d="M411 244h-102l19 114l-66 -59h-34l-52 70l-22 -125h-102l56 321h33l116 -158l178 158h32z" />
    <glyph glyph-name="uni043E.ordn" horiz-adv-x="403" 
d="M239 572q34 0 64 -12t52 -33t34 -50t12 -63q0 -36 -15 -67.5t-39.5 -54.5t-57 -36t-68.5 -13q-35 0 -64.5 12t-51 33t-33.5 50t-12 63q0 37 14.5 68t39 54t57 36t68.5 13zM235 479q-31 0 -51 -22t-20 -55q-1 -30 16.5 -48t44.5 -18q30 0 50.5 21.5t20.5 54.5q1 31 -16 49
t-45 18z" />
    <glyph glyph-name="uni0443.ordn" horiz-adv-x="409" 
d="M363 268q-13 -71 -58 -108t-108 -37q-42 0 -84.5 17.5t-73.5 54.5l58 68q23 -23 46 -34.5t50 -11.5q28 0 45 12.5t22 41.5l4 23q-15 -10 -33 -16t-40 -6q-49 0 -78 29t-29 79q0 8 1 16.5t3 20.5l25 142h103l-23 -127q-3 -17 -3 -25q0 -20 11.5 -31.5t31.5 -11.5t33.5 12
t18.5 35l25 148h104z" />
    <glyph glyph-name="uni0445.ordn" horiz-adv-x="358" 
d="M218 479l61 80h120l-134 -158l87 -157h-112l-44 88l-69 -88h-119l140 165l-80 150h113z" />
    <glyph glyph-name="uni044B.ordn" horiz-adv-x="534" 
d="M195 492h31q59 0 97 -28.5t38 -90.5q0 -33 -12 -58.5t-32 -42.5t-47.5 -26t-57.5 -9q-29 0 -55 8t-45.5 23.5t-30.5 38t-11 50.5q0 13 3 28l30 174h104zM484 244h-103l55 315h103zM179 406l-3 -19q-2 -8 -2.5 -13t-0.5 -10q0 -20 12.5 -29.5t30.5 -9.5q17 0 29.5 10.5
t12.5 31.5t-13 30t-35 9h-31z" />
    <glyph glyph-name="uni044E.ordn" horiz-adv-x="569" 
d="M192 449h43q9 25 25 46.5t38 37t48.5 24t55.5 8.5q35 0 65 -12t51.5 -33t34 -49.5t12.5 -61.5q0 -37 -14.5 -68.5t-39.5 -54.5t-57.5 -36t-68.5 -13q-61 0 -103 34.5t-53 89.5h-53l-21 -116h-103l55 313h103zM398 472q-32 0 -51.5 -22t-19.5 -54q-1 -29 16 -47t45 -18
q31 0 51.5 21t20.5 53q1 30 -16.5 48.5t-45.5 18.5z" />
    <glyph glyph-name="uni044F.ordn" horiz-adv-x="387" 
d="M337 244h-104l13 70h-30h-14l-64 -70h-122l100 102q-35 32 -35 85q0 30 12 54t33 40.5t50 25t63 8.5h153zM227 474q-20 0 -32 -10.5t-12 -30.5q0 -35 38 -35h39l13 76h-46z" />
    <glyph glyph-name="uni0439.loclBGR.ordn" horiz-adv-x="398" 
d="M374 374q-13 -69 -55.5 -103t-102.5 -34q-63 0 -103 34.5t-40 94.5q0 18 3 33l27 160h104l-29 -166q-1 -5 -1.5 -10t-0.5 -9q0 -20 13.5 -31t32.5 -11q18 0 32 11t18 33l31 183h103zM401 716q-5 -49 -37.5 -82.5t-86.5 -33.5q-49 0 -78 29t-29 74v13h82q-1 -3 -1 -6
q0 -15 8.5 -24t23.5 -9q31 0 37 39h81z" />
    <glyph glyph-name="uni044E.loclBGR.ordn" horiz-adv-x="569" 
d="M192 449h43q9 25 25 46.5t38 37t48.5 24t55.5 8.5q35 0 65 -12t51.5 -33t34 -49.5t12.5 -61.5q0 -37 -14.5 -68.5t-39.5 -54.5t-57.5 -36t-68.5 -13q-61 0 -103 34.5t-53 89.5h-53l-21 -116h-103l82 472h104zM398 472q-32 0 -51.5 -22t-19.5 -54q-1 -29 16 -47t45 -18
q31 0 51.5 21t20.5 53q1 30 -16.5 48.5t-45.5 18.5z" />
    <glyph glyph-name="uni0433.loclSRB.ordn" horiz-adv-x="205" 
d="M154 244h-103l55 315h103zM269 615h-202l15 83h201z" />
    <glyph glyph-name="uni0430.ss01.ordn" horiz-adv-x="369" 
d="M230 565q24 0 47 -5t41 -17.5t29 -33t11 -51.5q0 -13 -1.5 -24t-3.5 -22l-30 -168h-92l4 27q-17 -16 -39 -25t-48 -9q-17 0 -35 4.5t-32.5 15t-24 28t-9.5 42.5q0 21 7.5 39t24 31.5t42.5 21t64 7.5h67q1 4 1 12q0 41 -45 41q-23 0 -43 -9.5t-42 -22.5l-33 68
q29 23 62.5 36.5t77.5 13.5zM186 310q20 0 34.5 12.5t18.5 33.5l2 11h-49q-20 0 -30 -8.5t-10 -22.5t9.5 -20t24.5 -6z" />
    <glyph glyph-name="uni0443.ss01.ordn" horiz-adv-x="372" 
d="M210 218q-31 -49 -68 -72t-82 -23q-14 0 -29 2.5t-32 9.5l15 83q24 -3 40 -3q21 0 38.5 9t31.5 32l10 16l-71 287h109l33 -175l100 175h114z" />
    <glyph glyph-name="uni0430.ss01" horiz-adv-x="544" 
d="M294 496q39 0 75.5 -8.5t64 -28t44 -51t16.5 -77.5q0 -17 -2 -30.5t-4 -27.5l-48 -273h-124l7 42q-28 -25 -64.5 -39.5t-78.5 -14.5q-28 0 -57 7.5t-52 24t-38 42.5t-15 64q0 31 11.5 58.5t37 48t66 32.5t98.5 12h123q1 8 2 15.5t1 13.5q0 35 -22.5 54.5t-64.5 19.5
q-39 0 -71 -15.5t-64 -38.5l-52 92q48 40 98.5 59t112.5 19zM225 86q43 0 73 24.5t37 62.5l3 15h-103q-79 0 -79 -49q0 -28 20.5 -40.5t48.5 -12.5z" />
    <glyph glyph-name="uni0434.ss01" horiz-adv-x="650" 
d="M560 -141h-134l25 141h-336l-25 -141h-134l45 254h78l271 383h45l132 -383h78zM225 113h171l-53 181z" />
    <glyph glyph-name="uni0443.ss01" horiz-adv-x="557" 
d="M248 -55q-45 -72 -98 -104.5t-117 -32.5q-20 0 -42 4t-47 13l20 109q18 -2 34 -3t26 -1q34 0 59 13t48 51l29 47l-113 444h138l69 -310l178 310h150z" />
    <glyph glyph-name="uni045E.ss01" horiz-adv-x="557" 
d="M248 -55q-45 -72 -98 -104.5t-117 -32.5q-20 0 -42 4t-47 13l20 109q18 -2 34 -3t26 -1q34 0 59 13t48 51l29 47l-113 444h138l69 -310l178 310h150zM529 748q-5 -37 -19.5 -68.5t-38.5 -55t-56 -36.5t-71 -13q-37 0 -67 11.5t-51 32t-32.5 48.5t-11.5 61v11t1 9h106v-9
q0 -30 16.5 -47t45.5 -17q28 0 47.5 18t24.5 55h106z" />
    <glyph glyph-name="uni0444.ss01" horiz-adv-x="988" 
d="M597 439q55 57 141 57q49 0 88.5 -18.5t67.5 -50t43.5 -73.5t15.5 -88t-16 -95.5t-48.5 -90t-82.5 -66.5t-117 -26q-58 0 -97 19t-62 51l-42 -238h-135l40 225q-26 -29 -62.5 -43t-78.5 -14q-49 0 -88.5 18.5t-67.5 50t-43.5 73.5t-15.5 88t16 95.5t49 90t83 67t118 26.5
q57 0 95.5 -18.5t61.5 -50.5l57 322h135zM697 376q-32 0 -57 -12.5t-43 -33t-27.5 -47t-9.5 -53.5q0 -28 9 -50.5t25 -38.5t38 -24.5t47 -8.5q29 0 54 11.5t43.5 31.5t29 46t10.5 55q0 26 -8.5 49t-24 39.5t-37.5 26t-49 9.5zM312 376q-29 0 -54 -11.5t-43 -31t-28.5 -46
t-10.5 -55.5q-1 -53 31 -88.5t87 -35.5q31 0 56 12.5t43 33t28 47t10 53.5q1 56 -33.5 89t-85.5 33z" />
    <glyph glyph-name="uni0459.ss01" horiz-adv-x="802" 
d="M394 367h153q46 0 84 -11t65 -33t42 -55t15 -78q0 -48 -17 -85.5t-47 -63.5t-70.5 -39.5t-88.5 -13.5q-72 0 -123 33t-72 105l-41 142l-169 -268h-149l333 497h44zM430 254l29 -91q11 -35 29.5 -47.5t43.5 -12.5q35 0 59 20.5t24 58.5q0 36 -24 54t-66 18h-95z" />
    <glyph glyph-name="uni04EF.ss01" horiz-adv-x="557" 
d="M248 -55q-45 -72 -98 -104.5t-117 -32.5q-20 0 -42 4t-47 13l20 109q18 -2 34 -3t26 -1q34 0 59 13t48 51l29 47l-113 444h138l69 -310l178 310h150zM484 622h-302l19 106h302z" />
    <glyph glyph-name="uni04F3.ss01" horiz-adv-x="557" 
d="M248 -55q-45 -72 -98 -104.5t-117 -32.5q-20 0 -42 4t-47 13l20 109q18 -2 34 -3t26 -1q34 0 59 13t48 51l29 47l-113 444h138l69 -310l178 310h150zM628 756l-154 -185h-99l109 209h148zM432 756l-154 -185h-99l109 209h148z" />
    <glyph glyph-name="zero.lf" horiz-adv-x="635" 
d="M384 672q55 0 96 -18.5t68 -52t40.5 -80t13.5 -102.5q0 -40 -7 -87.5t-22.5 -95.5t-40.5 -92.5t-60.5 -79t-82 -55.5t-106.5 -21q-56 0 -97 19t-68 53t-40 81t-13 104q0 40 7 87t22.5 94.5t40 91.5t60 78.5t82.5 55t107 20.5zM367 548q-33 0 -58 -15.5t-43 -40.5
t-30.5 -57t-20 -65.5t-10.5 -66t-3 -57.5q0 -73 27.5 -103.5t69.5 -30.5q32 0 57 16t43.5 42t31 58.5t20 66.5t11 65.5t3.5 55.5q0 73 -27.5 102.5t-70.5 29.5z" />
    <glyph glyph-name="one.lf" horiz-adv-x="402" 
d="M269 0h-135l89 509l-129 -28l-13 121l260 58h44z" />
    <glyph glyph-name="two.lf" horiz-adv-x="584" 
d="M331 672q51 0 91.5 -15.5t69 -42.5t43.5 -64.5t15 -80.5q0 -36 -11 -69.5t-33.5 -66.5t-58 -68t-83.5 -75l-92 -76h238l-20 -114l-487 -1l5 30l282 247q34 29 57 54t37 47t20.5 42t6.5 40q0 42 -22.5 65t-63.5 23q-28 0 -47.5 -11.5t-31.5 -29.5t-17.5 -40.5t-5.5 -44.5
v-11t1 -11h-136q-1 6 -1 13v14q0 42 14.5 86t44.5 79.5t76 58t109 22.5z" />
    <glyph glyph-name="three.lf" horiz-adv-x="549" 
d="M556 624l-181 -213q25 -11 47.5 -28.5t39.5 -41t26.5 -52.5t9.5 -62q0 -42 -16 -84.5t-47.5 -77t-80 -56t-112.5 -21.5q-50 0 -89.5 13.5t-69.5 36.5t-50.5 54t-31.5 66l106 57q23 -51 54.5 -77t81.5 -26q29 0 51 9t36.5 23.5t21.5 34t7 40.5q0 45 -31.5 69t-91.5 24h-74
l6 36l162 192h-212l21 120h424z" />
    <glyph glyph-name="four.lf" horiz-adv-x="577" 
d="M474 221h85l-20 -113h-85l-19 -108h-134l19 108h-328l7 36l283 517h144l-244 -440h157l33 186h135z" />
    <glyph glyph-name="five.lf" horiz-adv-x="564" 
d="M528 540h-252l-21 -118q14 2 27 3.5t25 1.5q40 0 77.5 -13t66 -37.5t45.5 -61t17 -84.5q0 -45 -16.5 -88.5t-49.5 -78t-82 -55.5t-113 -21q-50 0 -90.5 13.5t-71.5 36.5t-51.5 54t-31.5 66l105 57q45 -103 140 -103q30 0 53 8.5t38 23.5t23 34.5t8 41.5q0 42 -30 67
t-91 25h-147l61 348h382z" />
    <glyph glyph-name="six.lf" horiz-adv-x="563" 
d="M320 446q39 -1 75.5 -17t64.5 -44t44.5 -66.5t16.5 -85.5q0 -53 -21.5 -98t-56.5 -77.5t-81.5 -50.5t-95.5 -18q-47 0 -89.5 16.5t-74 46.5t-50 71.5t-18.5 91.5q0 33 8 61.5t23 55t36 53t47 55.5l190 220h168zM285 336q-25 0 -46.5 -8.5t-37.5 -24.5t-25 -37.5t-9 -46.5
q0 -47 28.5 -77.5t76.5 -30.5q24 0 45.5 8.5t37 24.5t25 38t9.5 48q0 48 -29 77t-75 29z" />
    <glyph glyph-name="seven.lf" horiz-adv-x="525" 
d="M569 624l-407 -624h-152l361 541h-280l21 119h463z" />
    <glyph glyph-name="eight.lf" horiz-adv-x="588" 
d="M349 671q39 0 78 -9t70 -29.5t50 -52.5t19 -77q0 -56 -32.5 -100.5t-101.5 -74.5q48 -25 74.5 -60t26.5 -81q0 -33 -14 -68t-44 -64t-76 -47.5t-109 -18.5q-41 0 -86.5 9.5t-83 31t-62 56t-24.5 84.5q0 60 40.5 110t125.5 72q-34 26 -53 57.5t-19 73.5q0 34 13 67.5
t40.5 60.5t69 43.5t98.5 16.5zM398 186q0 33 -24.5 55t-67.5 45q-70 -18 -103 -42t-33 -62q0 -36 28.5 -59t84.5 -23q31 0 53 7.5t35.5 19.5t20 27.5t6.5 31.5zM348 562q-44 0 -69 -22t-25 -55q0 -26 16.5 -46t54.5 -43q49 16 81.5 37t32.5 58q0 33 -26 52t-65 19z" />
    <glyph glyph-name="nine.lf" horiz-adv-x="563" 
d="M329 671q47 0 89 -16.5t73.5 -46t50 -71t18.5 -92.5q0 -33 -8.5 -61t-23.5 -54.5t-36 -53t-46 -55.5l-191 -221h-167l186 215q-39 1 -75.5 16.5t-64 43.5t-44.5 67t-17 86q0 53 21.5 97.5t57 77t81.5 50.5t96 18zM323 550q-24 0 -45.5 -9t-37.5 -24.5t-25 -37.5t-9 -48
q0 -48 28.5 -77t75.5 -29q25 0 46.5 8.5t37.5 24.5t25 37t9 47q0 47 -29 77.5t-76 30.5z" />
    <glyph glyph-name="zero.slash.lf" horiz-adv-x="635" 
d="M384 672q55 0 96 -18.5t68 -52t40.5 -80t13.5 -102.5q0 -40 -7 -87.5t-22.5 -95.5t-40 -92.5t-60 -79t-82.5 -55.5t-106 -21q-56 0 -97.5 19t-68.5 53t-40 81t-13 103q0 40 7 87t22.5 94.5t40 92t60 79t82.5 55t107 20.5zM370 556q-49 0 -82 -29t-53 -72t-29.5 -92
t-11.5 -88l264 225q-14 29 -36.5 42.5t-51.5 13.5zM294 104q46 0 78.5 29t53.5 71.5t31.5 91t13.5 88.5l-263 -223q13 -31 35 -44t51 -13z" />
    <glyph glyph-name="zero.slash" horiz-adv-x="659" 
d="M347 549q57 0 107.5 -20t88 -56t59.5 -85t22 -106q0 -62 -24.5 -115.5t-66.5 -93t-97.5 -62.5t-116.5 -23q-58 0 -108.5 20t-87.5 56t-58 85t-21 106q0 61 24.5 115t66 93.5t96.5 62.5t116 23zM491 278q0 25 -8 51l-251 -195q18 -14 40.5 -21.5t49.5 -7.5q35 0 65.5 13
t53.5 36.5t36.5 55t13.5 68.5zM343 433q-35 0 -65.5 -14t-53 -38.5t-35 -56.5t-12.5 -68q0 -11 1 -22t4 -21l249 192q-37 28 -88 28z" />
    <glyph glyph-name="zero.tf" 
d="M340 671q51 0 89.5 -17.5t64.5 -50.5t39 -80t13 -105q0 -38 -6 -84.5t-20 -94t-36.5 -93t-55 -80.5t-76.5 -56t-100 -21q-51 0 -89.5 18t-64 52t-38 81t-12.5 106q0 38 5.5 84t19 93.5t35.5 92t54.5 79t76.5 55.5t101 21zM326 546q-27 0 -48 -16.5t-37 -43.5t-26.5 -61
t-17.5 -68.5t-10 -67t-3 -55.5q0 -67 22.5 -93.5t59.5 -26.5q26 0 47 17t37 44t27 61.5t18.5 69.5t10.5 67t3 56q0 66 -23 91.5t-60 25.5z" />
    <glyph glyph-name="one.tf" 
d="M487 0h-467l20 114h176l69 395l-160 -42l-14 120l294 82h44l-98 -555h156z" />
    <glyph glyph-name="two.tf" 
d="M325 672q51 0 91.5 -15.5t69 -42.5t44 -64.5t15.5 -80.5q0 -36 -11 -69.5t-34 -66.5t-58 -68t-83 -75l-94 -77h240l-20 -113l-487 -1l5 29l282 247q34 29 57 54t37.5 47.5t21 42.5t6.5 40q0 42 -23 65.5t-64 23.5q-28 0 -47.5 -11.5t-31.5 -29.5t-17.5 -41t-5.5 -45v-22
h-135q-1 6 -1 13v14q0 42 14 86t44 79.5t76 58t109 22.5z" />
    <glyph glyph-name="three.tf" 
d="M556 624l-182 -213q25 -11 47.5 -28.5t39.5 -41t26.5 -52.5t9.5 -62q0 -42 -16 -84.5t-47.5 -77t-80 -56t-112.5 -21.5q-50 0 -89.5 13.5t-69.5 36.5t-50.5 54t-31.5 66l105 57q23 -51 54.5 -77t81.5 -26q30 0 52 9t36.5 23.5t21.5 34t7 40.5q0 45 -31.5 69t-91.5 24h-74
l1 1l6 35l164 193h-214l21 119h424z" />
    <glyph glyph-name="four.tf" 
d="M465 221h69l-20 -113h-69l-19 -108h-134l19 108h-322l7 36l270 517h145l-234 -440h154l32 183h134z" />
    <glyph glyph-name="five.tf" 
d="M530 541h-252l-21 -119q14 2 27 3.5t25 1.5q40 0 77.5 -13t66 -37.5t45.5 -61t17 -84.5q0 -45 -16.5 -88.5t-49.5 -78t-82 -55.5t-113 -21q-50 0 -90.5 13.5t-71.5 36.5t-51.5 54t-31.5 66l105 57q45 -103 140 -103q30 0 53 8.5t38 23.5t23 34.5t8 41.5q0 42 -30 67
t-91 25h-147l61 348h382z" />
    <glyph glyph-name="six.tf" 
d="M323 446q39 -2 75.5 -18t64 -43.5t44 -66.5t16.5 -85q0 -53 -21.5 -98t-56.5 -77.5t-81.5 -50.5t-95.5 -18q-47 0 -89.5 16.5t-74 46.5t-50 71.5t-18.5 91.5q0 33 8 61.5t23 55t36 53t47 55.5l190 220h167zM286 337q-25 0 -46.5 -9t-37.5 -24.5t-25.5 -37.5t-9.5 -47
q0 -47 29.5 -78t76.5 -31q24 0 45.5 9t37.5 25t25.5 38t9.5 48q0 48 -29.5 77.5t-75.5 29.5z" />
    <glyph glyph-name="seven.tf" 
d="M592 624l-406 -624h-152l359 541h-278l21 119h462z" />
    <glyph glyph-name="eight.tf" 
d="M336 670q39 0 77 -9t68.5 -29t49.5 -51.5t19 -76.5q0 -57 -32.5 -101.5t-101.5 -74.5q47 -25 73.5 -60t26.5 -82q0 -32 -14 -67t-43.5 -64t-74.5 -47.5t-108 -18.5q-41 0 -85.5 9.5t-82 31t-61.5 56t-24 84.5q0 61 41 111t125 72q-34 26 -53 57t-19 73q0 34 13 67.5
t40 60t68.5 43t97.5 16.5zM381 186q0 32 -23.5 55t-65.5 46q-69 -18 -101.5 -43t-32.5 -63q0 -37 28 -60.5t82 -23.5q30 0 51.5 8t35 20.5t20 28.5t6.5 32zM333 564q-42 0 -67.5 -23t-25.5 -57q0 -26 18 -46t53 -43q23 8 43.5 17t36 20t24.5 25.5t9 33.5q0 33 -26.5 53
t-64.5 20z" />
    <glyph glyph-name="nine.tf" 
d="M327 671q47 0 89 -16.5t73.5 -46.5t50 -71.5t18.5 -91.5q0 -33 -8.5 -61.5t-23.5 -55t-36 -53t-46 -55.5l-190 -220h-168l185 214q-39 1 -75 17t-64 44t-44.5 66.5t-16.5 85.5q0 53 21.5 98t57 77.5t81.5 50.5t96 18zM321 549q-24 0 -45.5 -9t-37.5 -24.5t-25 -37.5
t-9 -48q0 -48 28.5 -77t75.5 -29q25 0 46.5 8.5t37.5 24.5t25 37t9 47q0 47 -29 77.5t-76 30.5z" />
    <glyph glyph-name="zero.slash.tf" 
d="M340 671q51 0 89.5 -17.5t64.5 -50.5t39 -80t13 -105q0 -38 -6 -84.5t-20 -94t-36.5 -93t-55 -80.5t-76.5 -56t-100 -21q-51 0 -89.5 18t-64 52t-38 81t-12.5 106q0 38 5.5 84t19 93.5t35.5 92t54.5 79t76.5 55.5t101 21zM328 555q-35 0 -60 -25t-43 -63t-28.5 -83.5
t-15.5 -86.5l228 194q-10 35 -31 49.5t-50 14.5zM264 105q33 0 58 24.5t43 62.5t29 83.5t16 87.5l-227 -193q10 -35 31 -50t50 -15z" />
    <glyph glyph-name="zero.tosf" 
d="M297 547q53 0 98 -18.5t78 -52t51.5 -80t18.5 -101.5q0 -50 -17 -104.5t-50.5 -99.5t-84.5 -74t-119 -29q-54 0 -99 19t-77.5 52.5t-50.5 79.5t-18 101q0 51 16.5 105t50 99t84.5 74t119 29zM293 423q-37 0 -61.5 -18.5t-39.5 -46t-21 -58.5t-6 -56q0 -61 29.5 -96.5
t79.5 -35.5q37 0 62 19t40 46.5t21.5 59t6.5 56.5q0 60 -30 95t-81 35z" />
    <glyph glyph-name="one.tosf" 
d="M346 113h163l-19 -113h-475l20 113h176l54 305h-165l22 119h299z" />
    <glyph glyph-name="two.tosf" 
d="M302 549q48 0 88 -15t68.5 -40.5t44.5 -59.5t16 -73q0 -37 -14.5 -68.5t-40 -60.5t-60.5 -56t-77 -55l-14 -9h182l-19 -112h-488l5 29l233 153q33 22 61 42t49 40t33 40.5t12 44.5q0 33 -22.5 54.5t-64.5 21.5q-28 0 -46 -10t-29 -25.5t-15.5 -34t-4.5 -34.5v-11t1 -14
h-129q-2 9 -4 21t-2 24q0 39 17 76.5t47.5 66.5t74.5 47t98 18z" />
    <glyph glyph-name="three.tosf" 
d="M534 501l-181 -211q26 -11 48.5 -28.5t39.5 -41t26.5 -52.5t9.5 -62q0 -42 -16.5 -84.5t-48.5 -77t-80 -56t-112 -21.5q-50 0 -90 13t-70 36t-50 54t-31 66l105 58q23 -51 54.5 -77.5t81.5 -26.5q28 0 50 9t37 24t22.5 34.5t7.5 40.5q0 45 -31.5 69t-89.5 24h-76l1 1
l6 34l165 192h-216l21 119h424z" />
    <glyph glyph-name="four.tosf" 
d="M445 112h71l-20 -112h-71l-21 -121h-134l21 121h-321l7 36l281 501h144l-241 -425h150l32 178h134z" />
    <glyph glyph-name="five.tosf" 
d="M507 418h-251l-21 -119q27 6 52 6q40 0 77.5 -13t66 -37.5t46 -61t17.5 -83.5q0 -45 -16.5 -88.5t-49.5 -78t-81.5 -55.5t-112.5 -21q-50 0 -90.5 13t-71 36t-52 54t-32.5 66l105 58q23 -53 56 -78.5t83 -25.5q30 0 53 8.5t38 23.5t23 34.5t8 41.5q0 43 -30 67.5
t-92 24.5h-146l60 347h383z" />
    <glyph glyph-name="six.tosf" 
d="M324 446q39 -2 75.5 -18t64 -43.5t44 -66.5t16.5 -85q0 -53 -21.5 -98t-56.5 -77.5t-81.5 -50.5t-95.5 -18q-47 0 -89.5 16.5t-74 46.5t-50 71.5t-18.5 91.5q0 33 8 61.5t23 55t36 53t47 55.5l190 220h167zM287 337q-25 0 -46.5 -9t-37.5 -24.5t-25.5 -37.5t-9.5 -47
q0 -47 29.5 -78t76.5 -31q24 0 45.5 9t37.5 25t25.5 38t9.5 48q0 48 -29.5 77.5t-75.5 29.5z" />
    <glyph glyph-name="seven.tosf" 
d="M571 501l-405 -622h-152l359 539h-280l22 119h463z" />
    <glyph glyph-name="eight.tosf" 
d="M336 670q39 0 77 -9t68.5 -29t49.5 -51.5t19 -76.5q0 -57 -32.5 -101.5t-101.5 -74.5q47 -25 73.5 -60t26.5 -82q0 -32 -14 -67t-43.5 -64t-74.5 -47.5t-108 -18.5q-41 0 -85.5 9.5t-82 31t-61.5 56t-24 84.5q0 61 41 111t125 72q-34 26 -53 57t-19 73q0 34 13 67.5
t40 60t68.5 43t97.5 16.5zM381 186q0 32 -23.5 55t-65.5 46q-69 -18 -101.5 -43t-32.5 -63q0 -37 28 -60.5t82 -23.5q30 0 51.5 8t35 20.5t20 28.5t6.5 32zM333 564q-42 0 -67.5 -23t-25.5 -57q0 -26 18 -46t53 -43q23 8 43.5 17t36 20t24.5 25.5t9 33.5q0 33 -26.5 53
t-64.5 20z" />
    <glyph glyph-name="nine.tosf" 
d="M308 549q47 0 89 -16.5t73.5 -46.5t50 -71.5t18.5 -91.5q0 -33 -8 -61.5t-23 -55t-36 -53t-46 -55.5l-190 -219h-166l183 213q-39 1 -75.5 17t-64.5 44t-44.5 67t-16.5 86q0 53 21.5 97.5t57 77t81.5 50.5t96 18zM303 428q-24 0 -45.5 -9t-37.5 -24.5t-25.5 -37.5
t-9.5 -48q0 -48 29.5 -77.5t75.5 -29.5q24 0 46 9t38 24.5t25.5 37t9.5 47.5q0 47 -29.5 77.5t-76.5 30.5z" />
    <glyph glyph-name="zero.slash.tosf" 
d="M297 547q53 0 98 -18.5t78 -52t51.5 -80t18.5 -101.5q0 -50 -17 -104.5t-50.5 -99.5t-84.5 -74t-119 -29q-54 0 -99 19t-77.5 52.5t-50.5 79.5t-18 101q0 51 16.5 105t50 99t84.5 74t119 29zM416 294q0 6 -0.5 12t-1.5 12l-223 -183q31 -33 83 -33q41 0 68.5 20.5t44 50
t23 62.5t6.5 59zM296 433q-41 0 -68.5 -20t-43.5 -49t-22.5 -62t-6.5 -59v-10.5t1 -10.5l220 181q-32 30 -80 30z" />
    <glyph glyph-name="zero.dnom" horiz-adv-x="421" 
d="M239 425q37 0 63.5 -11.5t43.5 -32.5t25.5 -50.5t8.5 -64.5q0 -25 -4.5 -55.5t-14.5 -60.5t-25.5 -58.5t-38.5 -50.5t-53.5 -35t-69.5 -13q-36 0 -63 12t-44.5 33.5t-26 51t-8.5 65.5q0 38 10.5 85t34.5 88t63.5 69t98.5 28zM225 333q-27 0 -44.5 -19t-28 -46
t-14.5 -56.5t-4 -51.5q0 -41 14.5 -58t37.5 -17q27 0 44.5 19.5t28 47.5t15 57.5t4.5 50.5q0 39 -15 56t-38 17z" />
    <glyph glyph-name="one.dnom" horiz-adv-x="370" 
d="M218 91h86l-15 -90h-288l16 90h101l41 236h-92l15 90h193z" />
    <glyph glyph-name="two.dnom" horiz-adv-x="384" 
d="M201 425q34 0 61 -10.5t45.5 -28.5t28.5 -42t10 -51q0 -24 -8 -45t-23.5 -42t-39 -43.5t-54.5 -48.5l-28 -23h127l-16 -90l-311 -1l4 21l176 160q38 35 54.5 59t16.5 46t-13 34.5t-34 12.5q-29 0 -41 -21t-12 -50v-10h-100q-1 5 -1 8.5v6.5q0 28 9.5 56.5t29 51t49 36.5
t70.5 14z" />
    <glyph glyph-name="three.dnom" horiz-adv-x="360" 
d="M345 390l-109 -130q30 -14 51 -43.5t21 -70.5q0 -26 -10 -53.5t-30.5 -49.5t-51.5 -36t-73 -14q-65 0 -103 32t-52 80l78 41q15 -33 33 -47t44 -14q33 0 48 17t15 39t-15.5 34.5t-52.5 12.5h-55l4 25l96 114h-123l16 90h274z" />
    <glyph glyph-name="four.dnom" horiz-adv-x="374" 
d="M300 151h49l-15 -86h-49l-11 -64h-93l11 64h-211l5 27l170 326h111l-142 -267h82l18 105h93z" />
    <glyph glyph-name="five.dnom" horiz-adv-x="370" 
d="M329 327h-156l-10 -57q13 3 28 3q23 0 46 -7.5t41 -23t29.5 -38.5t11.5 -54q0 -29 -10.5 -57t-31.5 -50t-52.5 -36t-73.5 -14q-65 0 -105 32t-54 80l79 41q13 -32 34 -46.5t48 -14.5q30 0 47 16.5t17 39.5q0 22 -16.5 34.5t-51.5 12.5h-96l40 229h252z" />
    <glyph glyph-name="six.dnom" horiz-adv-x="374" 
d="M217 287q22 -3 42 -14t35.5 -28.5t24.5 -41t9 -51.5q0 -35 -14 -64t-37 -50t-53 -32.5t-61 -11.5q-30 0 -57 10.5t-47.5 29.5t-33 46.5t-12.5 60.5q0 40 19 71.5t51 69.5l119 135h128zM175 204q-26 0 -43.5 -17.5t-17.5 -43.5q0 -24 15.5 -40.5t38.5 -16.5q26 0 43 17.5
t17 45.5q0 25 -14.5 40t-38.5 15z" />
    <glyph glyph-name="seven.dnom" horiz-adv-x="345" 
d="M356 390l-240 -389h-117l207 326h-157l17 90h295z" />
    <glyph glyph-name="eight.dnom" horiz-adv-x="388" 
d="M214 425q25 0 50 -6t45 -19t32.5 -33.5t12.5 -50.5q0 -34 -18.5 -62t-59.5 -48q56 -31 56 -84q0 -21 -9.5 -43.5t-28.5 -41t-48.5 -30.5t-68.5 -12q-23 0 -51.5 5.5t-53.5 18.5t-41.5 35.5t-16.5 56.5t22 67t74 47q-17 15 -27.5 33.5t-10.5 44.5q0 22 8.5 43.5t26 39
t44 28.5t63.5 11zM233 121q0 17 -11.5 29t-34.5 25q-39 -11 -56 -23t-17 -32t15 -32.5t44 -12.5q31 0 45.5 14t14.5 32zM213 346q-21 0 -35 -12t-14 -30q0 -13 8.5 -23t28.5 -24q26 9 43.5 20.5t17.5 29.5q0 17 -14 28t-35 11z" />
    <glyph glyph-name="nine.dnom" horiz-adv-x="374" 
d="M201 424q30 0 57 -10.5t48 -29.5t33.5 -46.5t12.5 -60.5q0 -20 -5 -37.5t-14 -34t-22.5 -33.5t-29.5 -36l-118 -135h-128l112 129q-21 3 -41 14t-35.5 28.5t-24.5 41t-9 52.5q0 35 14 64t37 50t52.5 32.5t60.5 11.5zM197 332q-26 0 -43 -17.5t-17 -45.5q0 -25 14.5 -40
t38.5 -15q26 0 43.5 17.5t17.5 43.5q0 24 -15 40.5t-39 16.5z" />
    <glyph glyph-name="zero.numr" horiz-adv-x="421" 
d="M281 668q37 0 63.5 -11.5t43.5 -32.5t25.5 -50.5t8.5 -64.5q0 -25 -4.5 -55.5t-14.5 -60.5t-25.5 -58.5t-38.5 -50.5t-53.5 -35t-69.5 -13q-36 0 -63 12t-44.5 33.5t-26 51t-8.5 65.5q0 38 10.5 85t34.5 88t63.5 69t98.5 28zM267 576q-27 0 -44.5 -19t-28 -46
t-14.5 -56.5t-4 -51.5q0 -41 14.5 -58t37.5 -17q27 0 44.5 19.5t28 47.5t15 57.5t4.5 50.5q0 39 -15 56t-38 17z" />
    <glyph glyph-name="one.numr" horiz-adv-x="370" 
d="M260 334h86l-15 -90h-288l16 90h101l41 236h-92l15 90h193z" />
    <glyph glyph-name="two.numr" horiz-adv-x="384" 
d="M243 668q34 0 61 -10.5t45.5 -28.5t28.5 -42t10 -51q0 -24 -8 -45t-23.5 -42t-39 -43.5t-54.5 -48.5l-28 -23h127l-16 -90l-311 -1l4 21l176 160q38 35 54.5 59t16.5 46t-13 34.5t-34 12.5q-29 0 -41 -21t-12 -50v-10h-100q-1 5 -1 8.5v6.5q0 28 9.5 56.5t29 51t49 36.5
t70.5 14z" />
    <glyph glyph-name="three.numr" horiz-adv-x="360" 
d="M387 633l-109 -130q30 -14 51 -43.5t21 -70.5q0 -26 -10 -53.5t-30.5 -49.5t-51.5 -36t-73 -14q-65 0 -103 32t-52 80l78 41q15 -33 33 -47t44 -14q33 0 48 17t15 39t-15.5 34.5t-52.5 12.5h-55l4 25l96 114h-123l16 90h274z" />
    <glyph glyph-name="four.numr" horiz-adv-x="374" 
d="M342 394h49l-15 -86h-49l-11 -64h-93l11 64h-211l5 27l170 326h111l-142 -267h82l18 105h93z" />
    <glyph glyph-name="five.numr" horiz-adv-x="370" 
d="M371 570h-156l-10 -57q13 3 28 3q23 0 46 -7.5t41 -23t29.5 -38.5t11.5 -54q0 -29 -10.5 -57t-31.5 -50t-52.5 -36t-73.5 -14q-65 0 -105 32t-54 80l79 41q13 -32 34 -46.5t48 -14.5q30 0 47 16.5t17 39.5q0 22 -16.5 34.5t-51.5 12.5h-96l40 229h252z" />
    <glyph glyph-name="six.numr" horiz-adv-x="374" 
d="M259 530q22 -3 42 -14t35.5 -28.5t24.5 -41t9 -51.5q0 -35 -14 -64t-37 -50t-53 -32.5t-61 -11.5q-30 0 -57 10.5t-47.5 29.5t-33 46.5t-12.5 60.5q0 40 19 71.5t51 69.5l119 135h128zM217 447q-26 0 -43.5 -17.5t-17.5 -43.5q0 -24 15.5 -40.5t38.5 -16.5q26 0 43 17.5
t17 45.5q0 25 -14.5 40t-38.5 15z" />
    <glyph glyph-name="seven.numr" horiz-adv-x="345" 
d="M398 633l-240 -389h-117l207 326h-157l17 90h295z" />
    <glyph glyph-name="eight.numr" horiz-adv-x="388" 
d="M256 668q25 0 50 -6t45 -19t32.5 -33.5t12.5 -50.5q0 -34 -18.5 -62t-59.5 -48q56 -31 56 -84q0 -21 -9.5 -43.5t-28.5 -41t-48.5 -30.5t-68.5 -12q-23 0 -51.5 5.5t-53.5 18.5t-41.5 35.5t-16.5 56.5t22 67t74 47q-17 15 -27.5 33.5t-10.5 44.5q0 22 8.5 43.5t26 39
t44 28.5t63.5 11zM275 364q0 17 -11.5 29t-34.5 25q-39 -11 -56 -23t-17 -32t15 -32.5t44 -12.5q31 0 45.5 14t14.5 32zM255 589q-21 0 -35 -12t-14 -30q0 -13 8.5 -23t28.5 -24q26 9 43.5 20.5t17.5 29.5q0 17 -14 28t-35 11z" />
    <glyph glyph-name="nine.numr" horiz-adv-x="374" 
d="M243 667q30 0 57 -10.5t48 -29.5t33.5 -46.5t12.5 -60.5q0 -20 -5 -37.5t-14 -34t-22.5 -33.5t-29.5 -36l-118 -135h-128l112 129q-21 3 -41 14t-35.5 28.5t-24.5 41t-9 52.5q0 35 14 64t37 50t52.5 32.5t60.5 11.5zM239 575q-26 0 -43 -17.5t-17 -45.5q0 -25 14.5 -40
t38.5 -15q26 0 43.5 17.5t17.5 43.5q0 24 -15 40.5t-39 16.5z" />
    <glyph glyph-name="backslash.case" horiz-adv-x="646" 
d="M582 -100h-125l-362 861h126z" />
    <glyph glyph-name="periodcentered.case" horiz-adv-x="270" 
d="M155 441q39 0 65.5 -27t26.5 -66q0 -40 -26.5 -66.5t-65.5 -26.5q-41 0 -67.5 26.5t-26.5 66.5q0 39 26.5 66t67.5 27z" />
    <glyph glyph-name="bullet.case" horiz-adv-x="426" 
d="M225 458q34 0 63.5 -12t51.5 -33.5t34.5 -50.5t12.5 -63t-12.5 -63t-34.5 -50t-51.5 -33t-63.5 -12q-33 0 -63 12t-52 33t-35 50t-13 63t13 63t35 50.5t52 33.5t63 12z" />
    <glyph glyph-name="slash.case" horiz-adv-x="643" 
d="M86 -100h-143l644 862h145z" />
    <glyph glyph-name="comma.subs" horiz-adv-x="205" 
d="M43 -245h-82l44 229h118z" />
    <glyph glyph-name="period.subs" horiz-adv-x="205" 
d="M50 12q30 0 50 -20.5t20 -49.5q0 -31 -20 -51t-50 -20q-31 0 -51 20t-20 51q0 29 20 49.5t51 20.5z" />
    <glyph glyph-name="braceleft.case" horiz-adv-x="411" 
d="M444 651h-57q-24 0 -39 -7t-23.5 -20.5t-12 -32.5t-3.5 -42v-91q0 -30 -3.5 -52.5t-13.5 -39t-28 -27t-47 -14.5q29 -6 44 -21t15 -42q0 -22 -9 -50t-19.5 -56.5t-19 -55.5t-8.5 -46q0 -46 54 -46h57l-19 -108h-81q-27 0 -51 7t-42.5 21.5t-29 36.5t-10.5 52q0 29 9 59
t20 58.5t20 54t9 43.5q0 36 -47 36h-63l20 115h67q39 0 51.5 19t12.5 58v99q0 43 9 80t31 64t57.5 42t88.5 15h80z" />
    <glyph glyph-name="braceright.case" horiz-adv-x="413" 
d="M211 760q27 0 51.5 -7t42.5 -22t28.5 -37t10.5 -52q0 -29 -9 -60.5t-20 -61.5t-20 -56.5t-9 -44.5q0 -36 48 -36h62l-20 -114h-66q-20 0 -32.5 -5.5t-19.5 -15.5t-9.5 -25t-2.5 -34v-86q0 -44 -9.5 -81t-31 -64t-57.5 -42.5t-89 -15.5h-80l19 108h57q24 0 39.5 7.5t24 21
t11.5 33t3 43.5v82q0 29 3.5 51.5t13.5 39t28.5 26.5t48.5 15q-61 12 -61 66q0 22 8.5 51t19 58t19.5 56.5t9 47.5q0 45 -54 45h-57l19 109h81z" />
    <glyph glyph-name="bracketleft.case" horiz-adv-x="359" 
d="M392 652h-113l-112 -643h113l-20 -109h-228l151 860h228z" />
    <glyph glyph-name="bracketright.case" horiz-adv-x="360" 
d="M209 -100h-228l18 108h113l114 643h-113l18 109h229z" />
    <glyph glyph-name="parenleft.case" horiz-adv-x="367" 
d="M421 681q-62 -30 -105.5 -81t-70.5 -112.5t-39 -129t-12 -130.5q0 -53 8 -93.5t21.5 -71.5t32 -54t40.5 -41l-66 -74q-67 40 -110 123t-43 212q0 76 17.5 159t54.5 158t94.5 133.5t138.5 85.5z" />
    <glyph glyph-name="parenright.case" horiz-adv-x="368" 
d="M169 765q67 -41 110 -123.5t43 -211.5q0 -76 -17.5 -159t-54.5 -158t-94.5 -133.5t-138.5 -85.5l-39 84q62 30 105 81t70 112.5t39 129t12 130.5q0 53 -7.5 93.5t-21 71.5t-32 54t-40.5 41z" />
    <glyph glyph-name="emdash.case" horiz-adv-x="1001" 
d="M959 291h-900l21 113h900z" />
    <glyph glyph-name="endash.case" horiz-adv-x="501" 
d="M474 292h-430l20 113h430z" />
    <glyph glyph-name="uni2015.case" horiz-adv-x="1001" 
d="M959 291h-900l21 113h900z" />
    <glyph glyph-name="hyphen.case" horiz-adv-x="340" 
d="M305 291h-250l20 113h249z" />
    <glyph glyph-name="uni00AD.case" horiz-adv-x="340" 
d="M305 291h-250l20 113h249z" />
    <glyph glyph-name="guillemotleft.case" horiz-adv-x="596" 
d="M601 449l-162 -154l109 -151l-94 -71l-162 209l6 36l227 210zM345 449l-162 -154l109 -151l-94 -71l-162 209l6 36l227 210z" />
    <glyph glyph-name="guillemotright.case" horiz-adv-x="597" 
d="M581 319l-6 -36l-227 -210l-76 80l162 153l-108 151l94 71zM325 319l-6 -36l-227 -210l-76 80l162 153l-108 151l94 71z" />
    <glyph glyph-name="guilsinglleft.case" horiz-adv-x="340" 
d="M345 449l-162 -154l109 -151l-94 -71l-162 209l6 36l227 210z" />
    <glyph glyph-name="guilsinglright.case" horiz-adv-x="340" 
d="M325 319l-6 -36l-227 -210l-76 80l162 153l-108 151l94 71z" />
    <glyph glyph-name="comma.sups" horiz-adv-x="205" 
d="M128 239h-82l44 229h118z" />
    <glyph glyph-name="period.sups" horiz-adv-x="205" 
d="M136 496q29 0 49 -20.5t20 -49.5q0 -31 -20 -51t-49 -20q-32 0 -52 20t-20 51q0 29 20 49.5t52 20.5z" />
    <glyph glyph-name="cent.tf" 
d="M406 575q51 -14 87.5 -46t56.5 -77l-99 -65q-20 31 -50 53.5t-76 22.5q-31 0 -57 -11.5t-45 -31t-30 -46.5t-11 -58q0 -57 34.5 -92t91.5 -35q42 0 73.5 18t53.5 47l86 -73q-34 -49 -86.5 -79.5t-118.5 -34.5l-28 -164h-118l31 181q-71 26 -114 86.5t-43 141.5
q0 52 19 98.5t52 82t78 59t96 30.5l30 167h117z" />
    <glyph glyph-name="dollar.tf" 
d="M405 620q37 -14 65 -41t49 -63l-100 -67q-20 30 -45 48t-63 18t-52.5 -15.5t-14.5 -35.5q0 -22 15 -36t41 -27l65 -33q56 -28 88.5 -65t32.5 -93q0 -31 -11.5 -62.5t-34.5 -58t-58 -45.5t-83 -23l-21 -118h-118l23 131q-51 18 -87.5 53t-61.5 82l99 63q27 -41 62 -66
t81 -25q35 0 55.5 15t20.5 41q0 23 -16.5 38.5t-47.5 31.5l-60 31q-56 29 -87.5 66.5t-31.5 92.5q0 35 13 65.5t36.5 54t56.5 38.5t74 19l21 115h118z" />
    <glyph glyph-name="uni20B4.tf" 
d="M535 204h-348q-1 -5 -1.5 -10.5t-0.5 -11.5q0 -70 93 -70q41 0 80.5 13.5t83.5 39.5l45 -101q-55 -38 -111.5 -57t-111.5 -19q-48 0 -88 12t-68.5 35.5t-44.5 56.5t-16 75q0 22 4 37h-39l16 94h523zM336 672q43 0 79.5 -12t62 -34t40 -53.5t14.5 -69.5q0 -29 -11 -51h58
l-16 -95h-523l16 95h330q3 8 5 15.5t2 16.5q0 35 -23 49.5t-54 14.5q-29 0 -60.5 -12t-61.5 -34l-50 99q42 35 91.5 53t100.5 18z" />
    <glyph glyph-name="currency.tf" 
d="M202 524q20 9 44 14.5t51 5.5q71 0 127 -36l88 83l77 -85l-89 -82q20 -40 20 -86q0 -35 -12.5 -72.5t-36.5 -69.5l68 -77l-84 -78l-74 84q-41 -18 -91 -18q-36 0 -67.5 9t-57.5 25l-88 -87l-77 83l89 86q-21 40 -21 90q0 34 11.5 69.5t34.5 67.5l-64 75l83 78zM297 424
q-43 0 -72 -28.5t-29 -74.5q0 -42 25.5 -69t66.5 -27q43 0 73 30t30 76q0 42 -26.5 67.5t-67.5 25.5z" />
    <glyph glyph-name="Euro.tf" 
d="M418 202h-167q17 -43 54 -66.5t93 -23.5q46 0 94 15l15 -117q-30 -11 -62.5 -16.5t-64.5 -5.5q-57 0 -103 16t-80.5 44.5t-58 67.5t-33.5 86h-95l17 96h69q0 14 2 29t4 31h-65l17 96h75q17 43 44 82.5t64.5 69.5t86 48t109.5 18q48 0 94.5 -12t82.5 -34l-49 -109
q-64 31 -125 31q-59 0 -98 -27t-63 -67h257l-43 -96h-248q-6 -32 -6 -60h227z" />
    <glyph glyph-name="florin.tf" 
d="M469 293h-129l-78 -259q-26 -85 -81.5 -126t-133.5 -41q-27 0 -52.5 4.5t-45.5 11.5l20 110q17 -2 33.5 -3t27.5 -1q35 0 63.5 13.5t40.5 54.5l71 236h-96l21 113h109l30 99q25 84 81 125.5t134 41.5q29 0 54 -5t44 -12l-20 -109q-17 2 -33.5 2.5t-26.5 0.5
q-34 0 -63 -13t-42 -55l-23 -75h116z" />
    <glyph glyph-name="lira.tf" 
d="M398 168h-111q-14 -33 -43 -60h256l-19 -108h-483l5 29q60 38 95 72t52 67h-114l16 91h118q-1 29 -11 59h-97l16 90h54q-3 13 -5 26.5t-2 28.5q0 37 14 74.5t42 67t71 48t102 18.5q43 0 81.5 -11.5t68.5 -35.5t49 -62t25 -91l-118 -26q-6 48 -30.5 74.5t-71.5 26.5
q-28 0 -47 -9.5t-31 -24t-17 -32.5t-5 -35t5 -37h177l-16 -90h-130q10 -29 11 -59h109z" />
    <glyph glyph-name="uni20BA.tf" 
d="M444 346l-189 -80l-29 -159h3q54 0 89 11t56 32.5t30 53t10 72.5h114q1 -9 2 -19t1 -24q0 -46 -16 -90t-55.5 -78.5t-106 -55.5t-168.5 -21q-29 0 -56.5 2t-56.5 5l37 209l-92 -38l20 113l92 39l11 62l-92 -39l20 113l91 39l30 167h136l-19 -105l188 79l-20 -113
l-188 -79l-11 -62l188 80z" />
    <glyph glyph-name="peseta.tf" 
d="M577 366h-64q-12 -44 -38.5 -78.5t-64 -58.5t-85.5 -36.5t-102 -12.5h-34l-31 -180h-128l64 366h-64l20 109h63l33 185h124q105 0 170.5 -50t79.5 -135h77zM247 293q54 0 90 21t50 59h-164l-14 -80h38zM253 547l-14 -79h153q-11 37 -40.5 58t-79.5 21h-19z" />
    <glyph glyph-name="uni20BD.tf" 
d="M362 660q99 0 153.5 -49.5t54.5 -131.5q0 -47 -18 -85t-49.5 -64.5t-74 -41t-92.5 -14.5h-101l-11 -63h228l-19 -108h-229l-17 -103h-135l17 103h-78l19 108h79l11 63h-78l19 114h79l48 272h194zM283 546l-28 -158h83q46 0 70 23t24 61q0 34 -19.5 54t-61.5 20h-68z" />
    <glyph glyph-name="uni20B9.tf" 
d="M530 403h-75q-19 -66 -75.5 -109.5t-135.5 -56.5l215 -237h-166l-215 233l18 103h95q98 0 126 67h-209l17 96h194q-22 61 -107 61h-77l18 100h423l-17 -96h-129q24 -28 31 -65h87z" />
    <glyph glyph-name="sterling.tf" 
d="M426 228h-123q-8 -67 -53 -114h251l-20 -114h-487l5 29q88 55 125.5 103t43.5 96h-125l20 114h88q-9 28 -17.5 56.5t-8.5 61.5q0 37 14 75t42.5 68t71.5 49t102 19q43 0 81 -11.5t67.5 -35.5t49 -62t25.5 -91l-119 -30q-15 106 -100 106q-28 0 -47.5 -10.5t-31.5 -26
t-17 -34.5t-5 -36q0 -27 8.5 -50t18.5 -48h161z" />
    <glyph glyph-name="uni20B8.tf" 
d="M491 191l-161 -48l-25 -143h-135l18 101l-158 -46l20 114l158 46l11 62l-159 -47l20 114l159 46l26 148h-189l21 122h514l-21 -122h-190l-19 -106l160 47l-21 -113l-159 -47l-11 -62l161 48z" />
    <glyph glyph-name="uni20AE.tf" 
d="M544 353h-178l-61 -353h-135l61 353h-175l21 121h489zM577 538h-488l21 122h489z" />
    <glyph glyph-name="yen.tf" 
d="M488 95h-166l-16 -95h-135l16 95h-165l19 108h165l11 63h-165l19 108h144l-126 286h144l81 -210l153 210h153l-228 -286h145l-19 -108h-166l-11 -63h166z" />
    <glyph glyph-name="section.case" horiz-adv-x="595" 
d="M386 733q39 0 71 -10t56 -26.5t40.5 -38t26.5 -44.5l-86 -64q-17 30 -44.5 50t-65.5 20q-29 0 -46 -13.5t-17 -36.5q0 -20 13.5 -35.5t41.5 -37.5l76 -62q63 -47 90 -87t27 -82q0 -51 -35.5 -93.5t-103.5 -62.5q3 -12 3 -26q0 -29 -12 -58t-36 -52t-60 -37.5t-84 -14.5
q-39 0 -70.5 10t-55.5 26.5t-41 38t-27 44.5l87 65q17 -30 44 -50.5t65 -20.5q30 0 46.5 14t16.5 37q0 19 -13 35t-41 38l-77 61q-62 47 -89 87t-27 82q0 51 35 93.5t102 61.5q-1 7 -1.5 13.5t-0.5 13.5q0 29 12 58t36 52t60 37.5t84 14.5zM293 413q-17 12 -31 25t-25 26
q-22 -9 -36.5 -26t-14.5 -40q0 -20 13.5 -39.5t50.5 -48.5l84 -67q17 -13 31 -25.5t25 -26.5q22 9 36.5 26t14.5 41q0 19 -13.5 38.5t-49.5 48.5z" />
    <glyph glyph-name="acute.case" horiz-adv-x="294" 
d="M378 886l-161 -162h-102l96 186h171z" />
    <glyph glyph-name="breve.case" horiz-adv-x="406" 
d="M493 903q-5 -37 -20 -68.5t-39 -54.5t-56 -36t-71 -13q-36 0 -66 11.5t-51 32t-32.5 48.5t-11.5 61v10t1 9h106v-9q0 -29 16.5 -46.5t45.5 -17.5q28 0 47.5 18.5t24.5 54.5h106z" />
    <glyph glyph-name="dieresis.case" horiz-adv-x="492" 
d="M477 892q33 0 57 -22.5t24 -56.5q0 -31 -24 -54t-57 -23q-16 0 -30.5 6.5t-26 17t-18 24.5t-6.5 29q0 34 24.5 56.5t56.5 22.5zM213 892q33 0 57 -22t24 -56q0 -31 -24 -54t-57 -23q-16 0 -30.5 6.5t-26 17t-18 24.5t-6.5 29q0 34 24.5 56t56.5 22z" />
    <glyph glyph-name="grave.case" horiz-adv-x="279" 
d="M335 724h-97l-100 162l4 24h153z" />
    <glyph glyph-name="hungarumlaut.case" horiz-adv-x="498" 
d="M581 886l-153 -162h-97l105 186h149zM365 886l-153 -162h-97l105 186h149z" />
    <glyph glyph-name="acute.loclPLK.case" horiz-adv-x="253" 
d="M341 910l-3 -24l-123 -162h-100l58 186h168z" />
    <glyph glyph-name="macron.case" horiz-adv-x="382" 
d="M443 755h-322l19 106h322z" />
    <glyph glyph-name="dieresis.i" horiz-adv-x="453" 
d="M416 754q33 0 57 -22t24 -56q0 -16 -6.5 -30t-17.5 -24.5t-26 -17t-31 -6.5q-32 0 -56.5 23t-24.5 55q0 34 24.5 56t56.5 22zM189 754q33 0 57 -22t24 -56q0 -16 -6.5 -30t-17.5 -24.5t-26 -17t-31 -6.5q-32 0 -56.5 23t-24.5 55q0 34 24.5 56t56.5 22z" />
    <glyph glyph-name="commaaccentup" horiz-adv-x="193" 
d="M216 571h-127l71 209h98z" />
    </font>
</defs>
</svg>
